<?xml version="1.0" standalone="no"?><!DOCTYPE svg PUBLIC "-//W3C//DTD SVG 1.1//EN" "http://www.w3.org/Graphics/SVG/1.1/DTD/svg11.dtd"><svg t="1638966658223" class="icon" viewBox="0 0 1024 1024" version="1.1" xmlns="http://www.w3.org/2000/svg" p-id="8547" xmlns:xlink="http://www.w3.org/1999/xlink" width="50" height="50"><defs><style type="text/css"></style></defs><path d="M165.177806 296.167226l71.861678 71.861677H155.251613c-19.406452 0-35.228903 16.152774-35.228903 35.939097v215.585032c0 19.835871 15.822452 35.939097 35.228903 35.939097h105.703226c9.331613 0 18.332903 3.765677 24.906322 10.520774l211.489033 215.700645c3.732645 3.765677 7.151484 6.969806 10.24 9.628904V638.563097l70.457806 70.457806L578.064516 907.016258C578.064516 956.812387 548.64929 974.451613 523.47871 974.451613c-23.073032 0-48.623484-14.12129-75.924645-41.934452L246.371097 727.370323H155.251613c-58.285419 0-105.703226-48.359226-105.703226-107.800775V403.984516c0-59.425032 47.417806-107.784258 105.703226-107.784258l9.926193-0.016516zM523.280516 49.548387C548.550194 49.548387 578.064516 67.121548 578.064516 116.52129l-0.033032 340.050581 121.145806 121.145806c12.271484-26.376258 20.017548-55.791484 20.017549-92.886709 0-77.378065-27.829677-114.952258-63.058581-162.469162A1241.583484 1241.583484 0 0 1 637.522581 296.794839a36.385032 36.385032 0 0 1 8.043354-50.076904 34.634323 34.634323 0 0 1 49.052904 8.225033c5.780645 8.208516 11.709935 16.202323 17.540129 24.113548 38.020129 51.282581 77.295484 104.299355 77.295484 205.757936 0 60.515097-16.417032 106.496-37.937549 145.259354l86.841807 86.825291c38.945032-61.522581 66.890323-131.930839 66.890322-218.508387 0-131.237161-64.21471-225.395613-133.648516-307.579871a36.963097 36.963097 0 0 1 3.220645-50.754065 33.709419 33.709419 0 0 1 48.805162 3.303226C898.196645 231.754323 974.451613 342.990452 974.451613 498.423742c0 108.940387-37.475097 196.211613-85.553548 269.047742l75.511741 75.495226a33.032258 33.032258 0 0 1 0 46.724129l-3.584 3.584a33.032258 33.032258 0 0 1-46.724129 0L130.741677 109.898323a33.032258 33.032258 0 0 1 0-46.724129l3.584-3.584a33.032258 33.032258 0 0 1 46.724129 0l150.098581 150.09858 116.306581-118.56929C474.508387 63.537548 500.025806 49.548387 523.264 49.548387z m-15.690322 82.712774a161.775484 161.775484 0 0 0-10.322581 9.661936l-115.811097 118.073806 126.117161 126.117162 0.016517-253.852904z" p-id="8548" fill="#ffffff"></path></svg>