<?xml version="1.0" standalone="no"?><!DOCTYPE svg PUBLIC "-//W3C//DTD SVG 1.1//EN" "http://www.w3.org/Graphics/SVG/1.1/DTD/svg11.dtd"><svg t="1599295768236" class="icon" viewBox="0 0 1024 1024" version="1.1" xmlns="http://www.w3.org/2000/svg" p-id="4132" xmlns:xlink="http://www.w3.org/1999/xlink" width="200" height="200"><defs><style type="text/css"></style></defs><path d="M874.058005 149.941995a510.06838 510.06838 0 1 0 109.740156 162.738976 511.396369 511.396369 0 0 0-109.740156-162.738976z m66.278708 362.178731A428.336713 428.336713 0 1 1 512 83.663287a428.698892 428.698892 0 0 1 428.336713 428.336713z" fill="#2c2c2c" p-id="4133"></path><path d="M417.954256 281.533601a41.046923 41.046923 0 0 0-41.77128 40.201839v385.116718a41.892007 41.892007 0 0 0 83.663287 0v-385.116718a41.167649 41.167649 0 0 0-41.892007-40.201839zM606.045744 281.533601a41.046923 41.046923 0 0 0-41.77128 40.201839v385.116718a41.892007 41.892007 0 0 0 83.663287 0v-385.116718a41.167649 41.167649 0 0 0-41.892007-40.201839z" fill="#2c2c2c" p-id="4134"></path></svg>