<?xml version="1.0" encoding="UTF-8"?>
<svg width="16px" height="16px" viewBox="0 0 16 16" version="1.1" xmlns="http://www.w3.org/2000/svg" xmlns:xlink="http://www.w3.org/1999/xlink">
    <title>切片</title>
    <defs>
        <filter id="filter-1">
            <feColorMatrix in="SourceGraphic" type="matrix" values="0 0 0 0 0.000000 0 0 0 0 0.184314 0 0 0 0 0.654902 0 0 0 1.000000 0"></feColorMatrix>
        </filter>
    </defs>
    <g id="页面-1" stroke="none" stroke-width="1" fill="none" fill-rule="evenodd">
        <g id="首页_web" transform="translate(-1204.000000, -3166.000000)">
            <g id="更多资源卡片1备份" transform="translate(972.000000, 2970.000000)">
                <g id="icon/24/arrow_forward" transform="translate(168.000000, 193.000000)" filter="url(#filter-1)">
                    <g transform="translate(64.000000, 3.000000)">
                        <path d="M1.33333333,8.33333333 L1.33333333,7.66666667 C1.33333333,7.48257175 1.48257175,7.33333333 1.66666667,7.33333333 L12.4466667,7.33333333 L9.48,4.37333333 C9.41689578,4.31074447 9.38140056,4.22554585 9.38140056,4.13666667 C9.38140056,4.04778749 9.41689578,3.96258887 9.48,3.9 L9.95333333,3.43333333 C10.0159222,3.37022912 10.1011208,3.33473389 10.19,3.33473389 C10.2788792,3.33473389 10.3640778,3.37022912 10.4266667,3.43333333 L14.52,7.52 C14.613795,7.61367824 14.6666667,7.74076977 14.6666667,7.87333333 L14.6666667,8.12666667 C14.6651307,8.25894275 14.6125893,8.38551963 14.52,8.48 L10.4266667,12.5666667 C10.3640778,12.6297709 10.2788792,12.6652661 10.19,12.6652661 C10.1011208,12.6652661 10.0159222,12.6297709 9.95333333,12.5666667 L9.48,12.0933333 C9.41729062,12.0318909 9.38195238,11.9477931 9.38195238,11.86 C9.38195238,11.7722069 9.41729062,11.6881091 9.48,11.6266667 L12.4466667,8.66666667 L1.66666667,8.66666667 C1.48257175,8.66666667 1.33333333,8.51742825 1.33333333,8.33333333 Z" id="Icon-color" fill="#FFFFFF"></path>
                    </g>
                </g>
            </g>
        </g>
    </g>
</svg>