<?xml version="1.0" standalone="no"?><!DOCTYPE svg PUBLIC "-//W3C//DTD SVG 1.1//EN" "http://www.w3.org/Graphics/SVG/1.1/DTD/svg11.dtd"><svg t="1638966832738" class="icon" viewBox="0 0 1024 1024" version="1.1" xmlns="http://www.w3.org/2000/svg" p-id="10823" xmlns:xlink="http://www.w3.org/1999/xlink" width="50" height="50"><defs><style type="text/css"></style></defs><path d="M533.333333 26.154667c31.061333 0 57.472 22.272 63.488 56.362666l0.512 7.68v843.648a64 64 0 0 1-16.170666 42.496c-20.650667 23.210667-54.826667 28.16-84.309334 10.026667l-6.058666-4.693333-288.384-256.384L64 725.333333c-29.141333 0-54.186667-19.584-62.122667-50.090666l-1.365333-6.272L0 661.333333v-298.666666c0-31.061333 22.272-57.472 56.32-63.488L64 298.666667l138.325333-0.042667L490.794667 42.325333c7.296-6.485333 15.957333-11.178667 27.477333-14.08l7.296-1.536 3.84-0.341333z m-21.205333 111.402666L246.954667 373.205333a42.666667 42.666667 0 0 1-28.330667 10.752L85.333333 383.829333 85.162667 640h133.461333a42.666667 42.666667 0 0 1 24.277333 7.552l4.053334 3.2L512 886.528l0.128-748.970667z m370.005333 3.626667A510.293333 510.293333 0 0 1 1024 494.933333a510.293333 510.293333 0 0 1-142.421333 354.346667 42.666667 42.666667 0 0 1-61.568-59.093333A425.002667 425.002667 0 0 0 938.666667 494.933333c0-111.36-42.794667-215.893333-118.186667-294.784a42.666667 42.666667 0 0 1 61.653333-58.965333zM756.053333 268.842667A340.309333 340.309333 0 0 1 853.333333 507.52a340.309333 340.309333 0 0 1-98.176 239.573333 42.666667 42.666667 0 1 1-60.8-59.904A254.976 254.976 0 0 0 768 507.52c0-67.84-26.453333-131.456-72.96-179.029333a42.666667 42.666667 0 1 1 60.970667-59.648z" p-id="10824" fill="#ffffff"></path></svg>