<?xml version="1.0" encoding="UTF-8"?>
<svg width="24px" height="24px" viewBox="0 0 24 24" version="1.1" xmlns="http://www.w3.org/2000/svg" xmlns:xlink="http://www.w3.org/1999/xlink">
    <title>icon/24/箭头</title>
    <defs>
        <filter id="filter-1">
            <feColorMatrix in="SourceGraphic" type="matrix" values="0 0 0 0 0.000000 0 0 0 0 0.184314 0 0 0 0 0.654902 0 0 0 1.000000 0"></feColorMatrix>
        </filter>
        <filter id="filter-2">
            <feColorMatrix in="SourceGraphic" type="matrix" values="0 0 0 0 1.000000 0 0 0 0 1.000000 0 0 0 0 1.000000 0 0 0 1.000000 0"></feColorMatrix>
        </filter>
        <path d="M8.7843055,0.0885911588 L8.85355339,0.146446609 L12.8535534,4.14644661 C13.0488155,4.34170876 13.0488155,4.65829124 12.8535534,4.85355339 L12.8535534,4.85355339 L8.85355339,8.85355339 L8.7843055,8.91140884 C8.58943736,9.04640489 8.32001296,9.02711974 8.14644661,8.85355339 C7.95118446,8.65829124 7.95118446,8.34170876 8.14644661,8.14644661 L8.14644661,8.14644661 L11.293,5 L0.5,5 C0.223857625,5 0,4.77614237 0,4.5 C0,4.25454011 0.176875161,4.05039163 0.410124368,4.00805567 L0.5,4 L11.293,4 L8.14644661,0.853553391 C7.95118446,0.658291245 7.95118446,0.341708755 8.14644661,0.146446609 C8.32001296,-0.0271197425 8.58943736,-0.0464048927 8.7843055,0.0885911588 Z" id="path-3"></path>
        <path d="M8.7843055,0.0885911588 L8.85355339,0.146446609 L12.8535534,4.14644661 C13.0488155,4.34170876 13.0488155,4.65829124 12.8535534,4.85355339 L12.8535534,4.85355339 L8.85355339,8.85355339 L8.7843055,8.91140884 C8.58943736,9.04640489 8.32001296,9.02711974 8.14644661,8.85355339 C7.95118446,8.65829124 7.95118446,8.34170876 8.14644661,8.14644661 L8.14644661,8.14644661 L11.293,5 L0.5,5 C0.223857625,5 0,4.77614237 0,4.5 C0,4.25454011 0.176875161,4.05039163 0.410124368,4.00805567 L0.5,4 L11.293,4 L8.14644661,0.853553391 C7.95118446,0.658291245 7.95118446,0.341708755 8.14644661,0.146446609 C8.32001296,-0.0271197425 8.58943736,-0.0464048927 8.7843055,0.0885911588 Z" id="path-5"></path>
    </defs>
    <g id="Summer2021" stroke="none" stroke-width="1" fill="none" fill-rule="evenodd">
        <g id="开源实习" transform="translate(-615.000000, -1752.000000)">
            <g id="icon/24/箭头" transform="translate(421.000000, 1744.000000)" filter="url(#filter-1)">
                <g transform="translate(194.000000, 8.000000)">
                    <rect id="矩形" x="0" y="0" width="24" height="24"></rect>
                    <g id="颜色/#CB0007" transform="translate(6.000000, 8.000000)" filter="url(#filter-2)">
                        <g>
                            <mask id="mask-4" fill="white">
                                <use xlink:href="#path-3"></use>
                            </mask>
                            <use id="蒙版" fill="#CB0007" fill-rule="nonzero" xlink:href="#path-3"></use>
                            <g id="编组" mask="url(#mask-4)">
                                <g transform="translate(-6.000000, -8.000000)" id="颜色/#CB0007">
                                    <rect id="矩形" fill="#C7000B" x="0" y="0" width="24" height="24"></rect>
                                </g>
                            </g>
                        </g>
                    </g>
                    <g id="颜色/#CB0007" transform="translate(6.000000, 8.000000)">
                        <mask id="mask-6" fill="white">
                            <use xlink:href="#path-5"></use>
                        </mask>
                        <use id="蒙版" fill="#002FA7" fill-rule="nonzero" xlink:href="#path-5"></use>
                    </g>
                </g>
            </g>
        </g>
    </g>
</svg>