<?xml version="1.0" encoding="UTF-8"?>
<svg width="156px" height="109px" viewBox="0 0 156 109" version="1.1" xmlns="http://www.w3.org/2000/svg" xmlns:xlink="http://www.w3.org/1999/xlink">
    <title>Fill 63</title>
    <g id="Summer2021" stroke="none" stroke-width="1" fill="none" fill-rule="evenodd">
        <g id="开源实习" transform="translate(-1364.000000, -2366.000000)" fill="#2E9AFE">
            <g id="Fill-63" transform="translate(400.000000, 2212.000000)">
                <path d="M964.063375,263 C963.922795,261.273639 964.020185,259.511647 964.314895,257.846366 C965.896847,248.922731 973.199403,240.391028 982.245663,240.455501 C987.445442,240.492828 992.22094,243.246523 996.455287,246.26914 C1000.68963,249.292605 1004.76731,252.722423 1009.6673,254.465751 C1014.56729,256.209928 1020.66136,255.851931 1024.18434,252.021699 C1026.94428,249.019442 1028.17733,244.050744 1032.14406,243.121818 C1037.10926,241.958751 1040.84311,248.354347 1045.9184,248.848078 C1049.52013,249.19844 1052.77465,246.361609 1054.31341,243.081098 C1055.85217,239.799738 1056.12825,236.093364 1056.81507,232.534599 C1057.50188,228.975834 1058.77726,225.269459 1061.66339,223.082452 C1065.90028,219.869808 1071.94439,221.048993 1076.90535,222.957747 C1081.86631,224.867348 1087.00004,227.412353 1092.22945,226.465611 C1099.61416,225.126091 1103.98062,217.481745 1106.4196,210.372699 C1109.55895,201.223408 1111.21966,191.565964 1111.31874,181.892402 C1111.38226,175.785239 1110.84534,169.529618 1112.65171,163.696467 C1113.86951,159.761042 1116.52783,156.01225 1120,154 L1120,263 L964.063375,263 Z"></path>
            </g>
        </g>
    </g>
</svg>