<?xml version="1.0" encoding="UTF-8"?>
<svg width="1120px" height="481px" viewBox="0 0 1120 481" version="1.1" xmlns="http://www.w3.org/2000/svg" xmlns:xlink="http://www.w3.org/1999/xlink">
    <title>编组 2</title>
    <g id="Web" stroke="none" stroke-width="1" fill="none" fill-rule="evenodd">
        <g id="生命周期（额外弹出）" transform="translate(-400.000000, -414.000000)">
            <rect fill="#FFFFFF" x="0" y="0" width="1920" height="1295"></rect>
            <g id="编组-2" transform="translate(400.000000, 414.000000)">
                <path d="M4,0 L1116,0 C1118.20914,-4.05812251e-16 1120,1.790861 1120,4 L1120,477 C1120,479.209139 1118.20914,481 1116,481 L4,481 C1.790861,481 2.705415e-16,479.209139 0,477 L0,4 C-2.705415e-16,1.790861 1.790861,4.05812251e-16 4,0 Z" id="矩形备份" fill-opacity="0.0971645542" fill="#E1E6EE"></path>
                <line x1="908.12507" y1="230.575456" x2="1230.37521" y2="230.726369" id="直线备份" stroke="#0041BD" stroke-linecap="square" stroke-dasharray="3,3" transform="translate(1069.125070, 231.075456) rotate(89.973189) translate(-1069.125070, -231.075456) "></line>
                <line x1="856.12507" y1="230.575456" x2="1178.37521" y2="230.726369" id="直线备份" stroke="#0041BD" stroke-linecap="square" stroke-dasharray="3,3" transform="translate(1017.125070, 231.075456) rotate(89.973189) translate(-1017.125070, -231.075456) "></line>
                <line x1="801.12507" y1="230.575456" x2="1123.37521" y2="230.726369" id="直线备份" stroke="#0041BD" stroke-linecap="square" stroke-dasharray="3,3" transform="translate(962.125070, 231.075456) rotate(89.973189) translate(-962.125070, -231.075456) "></line>
                <line x1="750.12507" y1="230.575456" x2="1072.37521" y2="230.726369" id="直线备份" stroke="#0041BD" stroke-linecap="square" stroke-dasharray="3,3" transform="translate(911.125070, 231.075456) rotate(89.973189) translate(-911.125070, -231.075456) "></line>
                <line x1="698.12507" y1="230.575456" x2="1020.37521" y2="230.726369" id="直线备份" stroke="#0041BD" stroke-linecap="square" stroke-dasharray="3,3" transform="translate(859.125070, 231.075456) rotate(89.973189) translate(-859.125070, -231.075456) "></line>
                <line x1="644.12507" y1="230.575456" x2="966.37521" y2="230.726369" id="直线备份" stroke="#0041BD" stroke-linecap="square" stroke-dasharray="3,3" transform="translate(805.125070, 231.075456) rotate(89.973189) translate(-805.125070, -231.075456) "></line>
                <line x1="592.12507" y1="230.575456" x2="914.37521" y2="230.726369" id="直线备份" stroke="#0041BD" stroke-linecap="square" stroke-dasharray="3,3" transform="translate(753.125070, 231.075456) rotate(89.973189) translate(-753.125070, -231.075456) "></line>
                <line x1="536.12507" y1="230.575456" x2="858.37521" y2="230.726369" id="直线备份" stroke="#0041BD" stroke-linecap="square" stroke-dasharray="3,3" transform="translate(697.125070, 231.075456) rotate(89.973189) translate(-697.125070, -231.075456) "></line>
                <line x1="478.12507" y1="230.575456" x2="800.37521" y2="230.726369" id="直线备份" stroke="#0041BD" stroke-linecap="square" stroke-dasharray="3,3" transform="translate(639.125070, 231.075456) rotate(89.973189) translate(-639.125070, -231.075456) "></line>
                <line x1="423.12507" y1="230.575456" x2="745.37521" y2="230.726369" id="直线备份" stroke="#0041BD" stroke-linecap="square" stroke-dasharray="3,3" transform="translate(584.125070, 231.075456) rotate(89.973189) translate(-584.125070, -231.075456) "></line>
                <line x1="365.12507" y1="230.575456" x2="687.37521" y2="230.726369" id="直线备份" stroke="#0041BD" stroke-linecap="square" stroke-dasharray="3,3" transform="translate(526.125070, 231.075456) rotate(89.973189) translate(-526.125070, -231.075456) "></line>
                <line x1="310.12507" y1="230.575456" x2="632.37521" y2="230.726369" id="直线备份" stroke="#0041BD" stroke-linecap="square" stroke-dasharray="3,3" transform="translate(471.125070, 231.075456) rotate(89.973189) translate(-471.125070, -231.075456) "></line>
                <line x1="199.12507" y1="230.575456" x2="521.37521" y2="230.726369" id="直线" stroke="#0041BD" stroke-linecap="square" stroke-dasharray="3,3" transform="translate(360.125070, 231.075456) rotate(89.973189) translate(-360.125070, -231.075456) "></line>
                <line x1="254.12507" y1="230.575456" x2="576.37521" y2="230.726369" id="直线备份" stroke="#0041BD" stroke-linecap="square" stroke-dasharray="3,3" transform="translate(415.125070, 231.075456) rotate(89.973189) translate(-415.125070, -231.075456) "></line>
                <line x1="146.075456" y1="230.750041" x2="468.325596" y2="230.900953" id="直线" stroke="#0041BD" stroke-linecap="square" stroke-dasharray="3,3" transform="translate(307.075456, 231.250041) rotate(89.973189) translate(-307.075456, -231.250041) "></line>
                <rect id="矩形" fill="#A7CDE3" x="971" y="411" width="131" height="40"></rect>
                <rect id="矩形" fill="#FFCA6E" x="828" y="411" width="135" height="40"></rect>
                <rect id="矩形" fill="#88B563" x="701" y="411" width="119" height="40"></rect>
                <text id="开发阶段-Develop-phase" font-family="FZLTXIHJW--GB1-0, FZLanTingHeiS-L-GB" font-size="12" font-weight="normal" line-spacing="18" fill="#000000" fill-opacity="0.957905376">
                    <tspan x="736.5" y="424">开发阶段</tspan>
                    <tspan x="716.015625" y="442">Develop phase</tspan>
                </text>
                <text id="全面/维护支持-Maintenance" font-family="FZLTXIHJW--GB1-0, FZLanTingHeiS-L-GB" font-size="12" font-weight="normal" line-spacing="18" fill="#000000" fill-opacity="0.957905376">
                    <tspan x="858.21875" y="424">全面/维护支持</tspan>
                    <tspan x="833.210938" y="442">Maintenance support</tspan>
                </text>
                <text id="扩展支持-Extended-suppor" font-family="FZLTXIHJW--GB1-0, FZLanTingHeiS-L-GB" font-size="12" font-weight="normal" line-spacing="18" fill="#000000" fill-opacity="0.957905376">
                    <tspan x="1013" y="424">扩展支持</tspan>
                    <tspan x="984.242188" y="442">Extended support</tspan>
                </text>
                <rect id="矩形" fill="#A7CDE3" x="639" y="288" width="59" height="32"></rect>
                <rect id="矩形" fill="#88B563" x="582" y="288" width="57" height="32"></rect>
                <rect id="矩形" fill="#A7CDE3" x="806" y="250" width="219" height="32"></rect>
                <rect id="矩形" stroke="#979797" fill="#FFCA6E" x="585" y="250" width="221" height="32"></rect>
                <rect id="矩形" fill="#88B563" x="528" y="250" width="57" height="32"></rect>
                <rect id="矩形" fill="#A7CDE3" x="529" y="212" width="57" height="32"></rect>
                <rect id="矩形" fill="#88B563" x="473" y="212" width="55" height="32"></rect>
                <rect id="矩形" fill="#A7CDE3" x="472" y="174" width="57" height="32"></rect>
                <rect id="矩形" fill="#88B563" x="415" y="174" width="57" height="32"></rect>
                <rect id="矩形" fill="#A7CDE3" x="419" y="136" width="57" height="32"></rect>
                <rect id="矩形" fill="#88B563" x="362" y="136" width="57" height="32"></rect>
                <rect id="矩形" fill="#A7CDE3" x="583" y="98" width="227" height="32"></rect>
                <rect id="矩形" fill="#FFCA6E" x="365" y="98" width="218" height="32"></rect>
                <text id="openEuler社区版本" font-family="FZLTXIHJW--GB1-0, FZLanTingHeiS-L-GB" font-size="18" font-weight="normal" line-spacing="18" fill="#000000" fill-opacity="0.957905376">
                    <tspan x="30" y="73">openEuler社区版本</tspan>
                </text>
                <g id="编组" transform="translate(346.000000, 30.000000)">
                    <rect id="矩形" stroke="#0041BD" stroke-width="0.5" fill="#E1E6EE" x="0.25" y="0.25" width="98.5" height="31.5"></rect>
                    <text id="2020" font-family="FZLTXIHJW--GB1-0, FZLanTingHeiS-L-GB" font-size="14" font-weight="normal" line-spacing="32" fill="#000000">
                        <tspan x="32.1640625" y="13">2020</tspan>
                    </text>
                </g>
                <g id="编组备份" transform="translate(453.000000, 30.000000)">
                    <rect id="矩形" stroke="#0041BD" stroke-width="0.5" fill="#E1E6EE" x="0.25" y="0.25" width="98.5" height="31.5"></rect>
                    <text id="2021" font-family="FZLTXIHJW--GB1-0, FZLanTingHeiS-L-GB" font-size="14" font-weight="normal" line-spacing="32" fill="#000000">
                        <tspan x="33.09375" y="13">2021</tspan>
                    </text>
                </g>
                <g id="编组备份-2" transform="translate(560.000000, 30.000000)">
                    <rect id="矩形" stroke="#0041BD" stroke-width="0.5" fill="#E1E6EE" x="0.25" y="0.25" width="99.5" height="31.5"></rect>
                    <text id="2022" font-family="FZLTXIHJW--GB1-0, FZLanTingHeiS-L-GB" font-size="14" font-weight="normal" line-spacing="32" fill="#000000">
                        <tspan x="33.2460938" y="13">2022</tspan>
                    </text>
                </g>
                <g id="编组备份-3" transform="translate(668.000000, 30.000000)">
                    <rect id="矩形" stroke="#0041BD" stroke-width="0.5" fill="#E1E6EE" x="0.25" y="0.25" width="98.5" height="31.5"></rect>
                    <text id="2023" font-family="FZLTXIHJW--GB1-0, FZLanTingHeiS-L-GB" font-size="14" font-weight="normal" line-spacing="32" fill="#000000">
                        <tspan x="32.21875" y="13">2023</tspan>
                    </text>
                </g>
                <g id="编组备份-4" transform="translate(775.000000, 30.000000)">
                    <rect id="矩形" stroke="#0041BD" stroke-width="0.5" fill="#E1E6EE" x="0.25" y="0.25" width="98.5" height="31.5"></rect>
                    <text id="2024" font-family="FZLTXIHJW--GB1-0, FZLanTingHeiS-L-GB" font-size="14" font-weight="normal" line-spacing="32" fill="#000000">
                        <tspan x="32.1640625" y="13">2024</tspan>
                    </text>
                </g>
                <g id="编组备份-5" transform="translate(882.000000, 30.000000)">
                    <rect id="矩形" stroke="#0041BD" stroke-width="0.5" fill="#E1E6EE" x="0.25" y="0.25" width="98.5" height="31.5"></rect>
                    <text id="2025" font-family="FZLTXIHJW--GB1-0, FZLanTingHeiS-L-GB" font-size="14" font-weight="normal" line-spacing="32" fill="#000000">
                        <tspan x="32.328125" y="13">2025</tspan>
                    </text>
                </g>
                <g id="编组备份-6" transform="translate(990.000000, 30.000000)">
                    <rect id="矩形" stroke="#0041BD" stroke-width="0.5" fill="#E1E6EE" x="0.25" y="0.25" width="98.5" height="31.5"></rect>
                    <text id="2026" font-family="FZLTXIHJW--GB1-0, FZLanTingHeiS-L-GB" font-size="14" font-weight="normal" line-spacing="32" fill="#000000">
                        <tspan x="32.2734375" y="13">2026</tspan>
                    </text>
                </g>
                <g id="编组" transform="translate(239.000000, 30.000000)">
                    <rect id="矩形" stroke="#0041BD" stroke-width="0.5" fill="#E1E6EE" x="0.25" y="0.25" width="98.5" height="31.5"></rect>
                    <text id="2019" font-family="FZLTXIHJW--GB1-0, FZLanTingHeiS-L-GB" font-size="14" font-weight="normal" line-spacing="32" fill="#000000">
                        <tspan x="33.484375" y="13">2019</tspan>
                    </text>
                </g>
                <g id="编组备份-7" transform="translate(32.000000, 98.000000)">
                    <rect id="矩形" stroke="#0041BD" stroke-width="0.5" fill="#E1E6EE" x="0.25" y="0.25" width="271.5" height="31.5"></rect>
                    <text id="openEuler-20.03-LTS" font-family="FZLTXIHJW--GB1-0, FZLanTingHeiS-L-GB" font-size="14" font-weight="normal" line-spacing="32" fill="#000000">
                        <tspan x="12.2460938" y="13">openEuler 20.03 LTS</tspan>
                    </text>
                </g>
                <g id="编组备份-8" transform="translate(32.000000, 136.000000)">
                    <rect id="矩形" stroke="#0041BD" stroke-width="0.5" fill="#E1E6EE" x="0.25" y="0.25" width="329.5" height="31.5"></rect>
                    <text id="openEuler-20.09" font-family="FZLTXIHJW--GB1-0, FZLanTingHeiS-L-GB" font-size="14" font-weight="normal" line-spacing="32" fill="#000000">
                        <tspan x="13.4335938" y="13">openEuler 20.09</tspan>
                    </text>
                </g>
                <g id="编组备份-9" transform="translate(32.000000, 174.000000)">
                    <rect id="矩形" stroke="#0041BD" stroke-width="0.5" fill="#E1E6EE" x="0.25" y="0.25" width="382.5" height="31.5"></rect>
                    <text id="openEuler-21.03" font-family="FZLTXIHJW--GB1-0, FZLanTingHeiS-L-GB" font-size="14" font-weight="normal" line-spacing="32" fill="#000000">
                        <tspan x="16.4453125" y="13">openEuler 21.03</tspan>
                    </text>
                </g>
                <g id="编组备份-10" transform="translate(32.000000, 212.000000)">
                    <rect id="矩形" stroke="#0041BD" stroke-width="0.5" fill="#E1E6EE" x="0.25" y="0.25" width="440.5" height="31.5"></rect>
                    <text id="openEuler-21.09" font-family="FZLTXIHJW--GB1-0, FZLanTingHeiS-L-GB" font-size="14" font-weight="normal" line-spacing="32" fill="#000000">
                        <tspan x="12.3632812" y="13">openEuler 21.09</tspan>
                    </text>
                </g>
                <g id="编组备份-11" transform="translate(32.000000, 250.000000)">
                    <rect id="矩形" stroke="#0041BD" stroke-width="0.5" fill="#E1E6EE" x="0.25" y="0.25" width="495.5" height="31.5"></rect>
                    <text id="openEuler-22.03-LTS" font-family="FZLTXIHJW--GB1-0, FZLanTingHeiS-L-GB" font-size="14" font-weight="normal" line-spacing="32" fill="#000000">
                        <tspan x="12.328125" y="13">openEuler 22.03 LTS</tspan>
                    </text>
                </g>
                <g id="编组备份-12" transform="translate(32.000000, 288.000000)">
                    <rect id="矩形" stroke="#0041BD" stroke-width="0.5" fill="#E1E6EE" x="0.25" y="0.25" width="549.5" height="31.5"></rect>
                    <text id="openEuler-22.09" font-family="FZLTXIHJW--GB1-0, FZLanTingHeiS-L-GB" font-size="14" font-weight="normal" line-spacing="32" fill="#000000">
                        <tspan x="12.015625" y="13">openEuler 22.09</tspan>
                    </text>
                </g>
                <g id="编组备份-13" transform="translate(32.000000, 326.000000)">
                    <rect id="矩形" stroke="#0041BD" stroke-width="0.5" fill="#E1E6EE" x="0.25" y="0.25" width="150.5" height="31.5"></rect>
                    <text id="…" font-family="FZLTXIHJW--GB1-0, FZLanTingHeiS-L-GB" font-size="14" font-weight="normal" line-spacing="32" fill="#000000">
                        <tspan x="12" y="13">…</tspan>
                    </text>
                </g>
                <rect id="矩形" fill="#88B563" x="304" y="98" width="61" height="32"></rect>
            </g>
            <text id="Wangxun" font-family="FZLTXIHJW--GB1-0, FZLanTingHeiS-L-GB" font-size="16" font-weight="normal" fill="#000000">
                <tspan x="430" y="855">Wangxun</tspan>
            </text>
        </g>
    </g>
</svg>