<?xml version="1.0" encoding="UTF-8"?>
<svg width="28px" height="28px" viewBox="0 0 28 28" version="1.1" xmlns="http://www.w3.org/2000/svg" xmlns:xlink="http://www.w3.org/1999/xlink">
    <title>形状结合</title>
    <g id="控件" stroke="none" stroke-width="1" fill="none" fill-rule="evenodd">
        <g id="icon选中态" transform="translate(-43.000000, -393.000000)" fill="#002FA7">
            <path d="M57,393 C60.7130309,393 64.2739857,394.474996 66.899495,397.100505 C69.5250043,399.726014 71,403.286969 71,407 C71,414.731987 64.7319866,421 57,421 C49.2680135,421 43,414.731987 43,407 C43,399.268014 49.2680135,393 57,393 Z M57,395 C50.372583,395 45,400.372583 45,407 C45,413.627417 50.372583,419 57,419 C60.1825979,419 63.2348449,417.735718 65.4852814,415.485281 C67.735718,413.234845 69,410.182598 69,407 C69,400.372583 63.6274171,395 57,395 Z M54,401 C54.3104902,401 54.6167163,401.07229 54.8944272,401.211146 L63.4222912,405.475078 C64.4102482,405.969056 64.8106969,407.170402 64.3167184,408.158359 C64.123191,408.545414 63.809346,408.859259 63.4222912,409.052786 L54.8944272,413.316718 C53.9064702,413.810697 52.7051241,413.410248 52.2111456,412.422291 C52.0722902,412.14458 52,411.838354 52,411.527864 L52,403 C52,401.895431 52.8954305,401 54,401 Z M55,403.381966 C54.4871642,403.381966 54.0644928,403.768006 54.0067277,404.265345 L54,404.381966 L54,410.145898 C54,410.301143 54.0361451,410.454256 54.1055728,410.593112 C54.33492,411.051806 54.8692292,411.257212 55.3398958,411.086462 L55.4472136,411.040325 L61.2111456,408.158359 C61.404673,408.061596 61.5615955,407.904673 61.6583592,407.711146 C61.8877064,407.252451 61.7314459,406.70176 61.312446,406.427677 L61.2111456,406.369505 L55.4472136,403.487539 C55.3083582,403.418111 55.1552451,403.381966 55,403.381966 Z" id="形状结合"></path>
        </g>
    </g>
</svg>