<?xml version="1.0" encoding="UTF-8"?>
<svg width="500px" height="360px" viewBox="0 0 500 360" version="1.1" xmlns="http://www.w3.org/2000/svg" xmlns:xlink="http://www.w3.org/1999/xlink">
    <title>openEuler/illustrator/none备份 15</title>
    <defs>
        <rect id="path-1" x="0" y="0" width="500" height="360"></rect>
        <polygon id="path-3" points="0.436805472 0.047412844 77.934312 0.047412844 77.934312 49.9467352 0.436805472 49.9467352"></polygon>
        <polygon id="path-5" points="0 304 279.59633 304 279.59633 0.697247706 0 0.697247706"></polygon>
    </defs>
    <g id="控件" stroke="none" stroke-width="1" fill="none" fill-rule="evenodd">
        <g id="网页版banner图" transform="translate(-954.000000, -2745.000000)">
            <g id="编组" transform="translate(954.000000, 2745.000000)">
                <g id="插画">
                    <mask id="mask-2" fill="white">
                        <use xlink:href="#path-1"></use>
                    </mask>
                    <use id="矩形" fill="#FFFFFF" xlink:href="#path-1"></use>
                </g>
                <g transform="translate(110.000000, 28.000000)">
                    <g transform="translate(125.504587, 0.000000)">
                        <mask id="mask-4" fill="white">
                            <use xlink:href="#path-3"></use>
                        </mask>
                        <g id="Clip-2"></g>
                        <path d="M77.934312,49.9467352 C67.9515072,20.9054385 40.5343741,0.0470409786 8.27047009,0.0470409786 C5.62413037,0.0470409786 3.01106051,0.190674006 0.436805472,0.464459939 C9.92934203,25.6109309 38.9591389,43.2963865 77.934312,49.9467352" id="Fill-1" fill="#002FA7" mask="url(#mask-4)"></path>
                    </g>
                    <path d="M76.1874516,28.587156 C66.4589496,41.1284788 60.6605505,56.9070198 60.6605505,74.049625 C60.6605505,75.4062708 60.6997133,76.7531798 60.7711278,78.0917431 L88.5504587,50.1367734 L76.1874516,28.587156 Z" id="Fill-3" fill="#002FA7"></path>
                    <path d="M121.168066,1.39449541 C106.118385,4.06000623 92.6557635,11.2975193 82.2752294,21.6146789 L133.174312,21.6146789 C127.581643,15.4237411 123.485844,8.6251292 121.168066,1.39449541" id="Fill-5" fill="#002FA7"></path>
                    <path d="M62.0550459,89.9449541 C66.6691745,110.990287 80.1424483,128.661742 98.3119266,138.752294 C85.3682482,120.196663 81.3621226,89.9449541 81.3621226,89.9449541 L62.0550459,89.9449541 Z" id="Fill-7" fill="#002FA7"></path>
                    <path d="M176.297257,68.3719517 C176.164001,68.192251 176.030745,68.0120835 175.902148,67.8146461 C175.711117,67.521524 175.570872,67.1957289 175.483277,66.8568648 C175.067201,65.2470266 174.494106,60.8128537 180.774849,59.0293826 C180.774849,59.0293826 183.9073,58.4515399 184.363912,61.0042232 C184.861526,63.7879503 182.010497,64.1520193 181.565533,64.2533051 C181.172754,64.3424553 180.277702,64.7597344 180.740836,65.5018749 C181.314863,66.4204488 182.638571,66.3322321 184.491577,65.8019984 C186.345048,65.2712979 192.213909,60.8511276 188.375108,55.9441318 C188.375108,55.9441318 184.712428,48.7388341 172.092235,54.5737389 C160.963951,59.7187798 157.352523,69.8809707 158.468427,78.7889908 C163.68778,73.6845576 168.463568,71.4347983 168.463568,71.4347983 C171.127758,70.1866953 173.749083,69.1817717 176.297257,68.3719517" id="Fill-9" fill="#002FA7"></path>
                    <path d="M193.137615,65.0411847 C201.638451,64.6731668 207.234531,66.1053893 207.234531,66.1053893 L207.779817,66.2385321 C207.385713,62.5016269 206.723882,58.8444198 205.801811,55.2926955 C201.47978,54.6715189 197.258849,53.9003221 193.151656,52.9908257 C194.262354,54.8360721 196.674247,59.9465982 193.137615,65.0411847" id="Fill-11" fill="#002FA7"></path>
                    <path d="M172.178775,137.049795 C145.594681,132.274804 145.52453,110.488129 145.52453,110.488129 C145.413765,98.491271 149.485768,89.6076533 154.232054,83.345128 C152.88072,78.0918526 150.346506,62.0690855 166.034541,51.9114284 C169.068582,49.9469955 171.823865,48.65632 174.311927,47.8651864 C160.012148,42.6987878 147.791985,35.6340382 138.506636,27.1926606 L81.2701383,27.1926606 L94.0427427,49.3430167 C94.4788804,50.0990299 94.4904184,50.9788888 94.1631998,51.7210387 C94.0362814,52.0666976 93.8401348,52.3924857 93.5627604,52.6702143 L61.6342495,84.6395003 C61.5484065,84.7254529 61.4519485,84.7938453 61.3577982,84.8654725 C61.3577982,84.8700936 61.3591827,84.8751768 61.3596443,84.8793358 L95.0797812,84.8793358 L93.2161579,81.647333 C92.4901847,80.3885432 92.9207842,78.7785493 94.17843,78.051649 C95.4356142,77.3252108 97.0435547,77.7558981 97.7690663,79.01515 L101.909375,86.1949652 C101.934297,86.2384036 101.947219,86.2846147 101.969372,86.3280531 C102.012755,86.4144678 102.053831,86.5008825 102.087983,86.5928426 C102.117521,86.6704772 102.140135,86.7494981 102.161365,86.8289812 C102.18398,86.9130854 102.204748,86.9967274 102.219056,87.0831421 C102.233824,87.1751022 102.241209,87.2670622 102.246747,87.3594844 C102.249516,87.4107787 102.261977,87.4593003 102.261977,87.5119809 C102.261977,87.5424802 102.254131,87.570669 102.253208,87.6007062 C102.249516,87.6922041 102.238439,87.7818536 102.225978,87.8719652 C102.213979,87.9565315 102.203364,88.0401736 102.183518,88.1224293 C102.165058,88.200526 102.138289,88.2758501 102.112444,88.3520983 C102.083368,88.4380509 102.055677,88.5230793 102.018294,88.6048729 C101.985526,88.6765001 101.944912,88.7439683 101.905683,88.8123607 C101.861376,88.8899953 101.817993,88.9676299 101.766303,89.0401813 C101.720151,89.1053389 101.666153,89.1649512 101.613539,89.2259498 C101.554465,89.2943422 101.496313,89.3622725 101.430777,89.4237332 C101.375394,89.4759518 101.314474,89.5217007 101.254014,89.5697602 C101.176479,89.631221 101.09802,89.6908333 101.013562,89.7430518 C100.990024,89.7578393 100.971102,89.7767859 100.947103,89.7906492 C100.906027,89.814679 100.861721,89.8271559 100.820184,89.8479509 C100.731572,89.8932378 100.642498,89.935752 100.548348,89.9708724 C100.471736,89.9995233 100.395123,90.0212425 100.317126,90.0424996 C100.232206,90.0656051 100.147748,90.0864001 100.059597,90.1007255 C99.9682158,90.1164373 99.8777576,90.123369 99.7859148,90.1284522 C99.7346859,90.131687 99.6857647,90.1441639 99.6331512,90.1441639 L87.1222295,90.1441639 C88.6512499,100.615132 90.942242,109.306974 93.542915,116.478009 L124.228549,116.478009 C125.452965,116.478009 126.445698,117.472009 126.445698,118.697989 L126.445698,119.522857 C126.445698,120.748837 125.452965,121.742375 124.228549,121.742375 L95.6156076,121.742375 C100.553425,133.311781 106.124911,140.113127 109.674472,143.62748 C117.341265,146.338221 125.589114,147.816514 134.183104,147.816514 C148.225353,147.816514 161.347791,143.877481 172.512455,137.045636 C172.302001,137.050719 172.178775,137.049795 172.178775,137.049795" id="Fill-13" fill="#002FA7"></path>
                    <path d="M206.752474,71.464908 C194.544056,68.8401294 181.495464,71.9974118 181.495464,71.9974118 C181.495464,71.9974118 153.133781,79.4078204 150.769922,104.078806 C148.406525,128.750253 172.303912,131.714232 172.303912,131.714232 C172.303912,131.714232 182.020458,133.022249 186.397409,123.955418 C190.77436,114.889047 183.596363,111.925067 183.596363,111.925067 C183.596363,111.925067 179.919558,109.658359 177.81912,112.012514 C176.794551,113.159905 176.914708,114.349179 177.307067,115.266448 C177.783073,116.379781 177.425837,117.67307 176.466429,118.416826 C175.160877,119.427525 173.215257,119.070835 172.446252,117.612318 C171.607464,116.02171 171.159185,113.595758 172.742023,110.269105 C175.893373,103.642954 184.034012,106.258528 184.034012,106.258528 C184.034012,106.258528 192.738466,109.028744 192.984788,118.419588 C202.272465,106.138864 207.779817,90.862404 207.779817,74.3037007 C207.779817,73.4195696 207.760407,72.5400409 207.729443,71.6632737 L206.752474,71.464908 Z" id="Fill-15" fill="#002FA7"></path>
                    <path d="M142.93578,301.908257 L142.93578,297.311592 L159.803901,259.165717 C161.490666,255.35113 163.177431,250.46107 163.177431,244.494617 C163.177431,239.017308 160.101538,236.376298 156.23179,236.376298 C152.362041,236.376298 149.187091,239.017308 149.187091,244.494617 L149.187091,249.482782 L143.63011,249.482782 L143.63011,244.592262 C143.63011,239.995136 145.019706,237.061192 147.202689,234.909326 C149.286148,232.855105 152.758735,231.486239 156.23179,231.486239 C159.704844,231.486239 162.978851,232.757461 165.06231,234.811221 C167.245293,236.963087 168.733945,239.995136 168.733945,244.787551 C168.733945,250.069571 166.749543,256.133669 164.665616,260.926084 L148.888987,297.017737 L168.733945,297.017737 L168.733945,301.908257 L142.93578,301.908257 Z" id="Fill-17" fill="#231815"></path>
                    <path d="M198.040462,243.909083 C198.040462,238.384736 194.865414,235.721046 190.996583,235.721046 C187.127284,235.721046 184.051748,238.384736 184.051748,243.909083 L184.051748,289.484483 C184.051748,295.009295 187.127284,297.672521 190.996583,297.672521 C194.865414,297.672521 198.040462,295.009295 198.040462,289.484483 L198.040462,243.909083 Z M200.024634,299.152555 C197.94095,301.223953 194.468299,302.605505 190.996583,302.605505 C187.523932,302.605505 184.150793,301.223953 182.067576,299.152555 C179.884847,296.98221 178.495413,294.022605 178.495413,289.189034 L178.495413,244.204997 C178.495413,239.370961 179.884847,236.411821 182.067576,234.241476 C184.150793,232.169613 187.523932,230.788991 190.996583,230.788991 C194.468299,230.788991 197.94095,232.169613 200.024634,234.241476 C202.207363,236.411821 203.59633,239.370961 203.59633,244.204997 L203.59633,289.189034 C203.59633,294.022605 202.207363,296.98221 200.024634,299.152555 L200.024634,299.152555 Z" id="Fill-19" fill="#231815"></path>
                    <path d="M214.055046,301.908257 L214.055046,297.311592 L230.923167,259.165717 C232.609932,255.35113 234.296698,250.46107 234.296698,244.494617 C234.296698,239.017308 231.220337,236.376298 227.351056,236.376298 C223.481308,236.376298 220.306357,239.017308 220.306357,244.494617 L220.306357,249.482782 L214.749376,249.482782 L214.749376,244.592262 C214.749376,239.995136 216.138972,237.061192 218.321955,234.909326 C220.405414,232.855105 223.878001,231.486239 227.351056,231.486239 C230.82411,231.486239 234.098117,232.757461 236.181576,234.811221 C238.364559,236.963087 239.853211,239.995136 239.853211,244.787551 C239.853211,250.069571 237.868809,256.133669 235.784882,260.926084 L220.008253,297.017737 L239.853211,297.017737 L239.853211,301.908257 L214.055046,301.908257 Z" id="Fill-21" fill="#231815"></path>
                    <path d="M269.159729,243.909083 C269.159729,238.384736 265.98468,235.721046 262.115849,235.721046 C258.24655,235.721046 255.171014,238.384736 255.171014,243.909083 L255.171014,289.484483 C255.171014,295.009295 258.24655,297.672521 262.115849,297.672521 C265.98468,297.672521 269.159729,295.009295 269.159729,289.484483 L269.159729,243.909083 Z M271.1439,299.152555 C269.060216,301.223953 265.587565,302.605505 262.115849,302.605505 C258.643198,302.605505 255.270059,301.223953 253.186842,299.152555 C251.004113,296.98221 249.614679,294.022605 249.614679,289.189034 L249.614679,244.204997 C249.614679,239.370961 251.004113,236.411821 253.186842,234.241476 C255.270059,232.169613 258.643198,230.788991 262.115849,230.788991 C265.587565,230.788991 269.060216,232.169613 271.1439,234.241476 C273.326629,236.411821 274.715596,239.370961 274.715596,244.204997 L274.715596,289.189034 C274.715596,294.022605 273.326629,296.98221 271.1439,299.152555 L271.1439,299.152555 Z" id="Fill-23" fill="#231815"></path>
                    <polygon id="Fill-25" fill="#002FA7" points="0 303.302752 121.103735 303.302752 134.568807 271.353986 134.568807 231.486239 0 231.486239"></polygon>
                    <polygon id="Fill-27" fill="#231815" points="190.89852 167.33945 190.89852 170.470579 171.521541 170.470579 171.521541 183.624172 189.684379 183.624172 189.684379 186.75622 171.521541 186.75622 171.521541 201.161529 191.743119 201.161529 191.743119 204.293578 168.036697 204.293578 168.036697 167.33945"></polygon>
                    <path d="M48.4589441,199.138199 C44.1822532,199.138199 40.715469,195.670958 40.715469,191.394724 C40.715469,187.117576 44.1822532,183.650792 48.4589441,183.650792 C52.735635,183.650792 56.2024193,187.117576 56.2024193,191.394724 C56.2024193,195.670958 52.735635,199.138199 48.4589441,199.138199 M48.4589441,177.798165 C40.9499397,177.798165 34.8623853,183.885262 34.8623853,191.394724 C34.8623853,198.903271 40.9499397,204.990826 48.4589441,204.990826 C55.9679486,204.990826 62.0550459,198.903271 62.0550459,191.394724 C62.0550459,183.885262 55.9679486,177.798165 48.4589441,177.798165" id="Fill-29" fill="#231815"></path>
                    <path d="M81.1494009,199.269578 C76.7742166,199.269578 73.2275913,195.78099 73.2275913,191.47843 C73.2275913,187.17495 76.7742166,183.686823 81.1494009,183.686823 C85.5245852,183.686823 89.0712105,187.17495 89.0712105,191.47843 C89.0712105,195.78099 85.5245852,199.269578 81.1494009,199.269578 M81.6137119,177.798165 C78.4635979,177.798165 75.5589656,178.829657 73.2275913,180.565214 L73.2275913,178.416693 L66.9357798,178.416693 L66.9357798,216.844037 L67.295352,216.844037 L73.2275913,216.844037 L73.5866959,216.844037 L73.5866959,202.647336 C75.8549463,204.226535 78.6230441,205.158235 81.6137119,205.158235 C89.2956509,205.158235 95.5229358,199.033203 95.5229358,191.47843 C95.5229358,183.922737 89.2956509,177.798165 81.6137119,177.798165" id="Fill-31" fill="#231815"></path>
                    <path d="M115.386862,182.052235 C119.376426,182.052235 121.834427,184.241777 122.598819,187.954882 L107.552649,187.954882 C108.483254,184.241777 111.397298,182.052235 115.386862,182.052235 M128.782018,192.575552 C128.917211,191.74435 128.990826,191.571722 128.990826,190.697479 C128.990826,182.803372 123.297005,176.40367 115.399826,176.40367 C107.502647,176.40367 101.100917,182.929718 101.100917,190.824288 C101.100917,197.566931 106.083127,204.990826 115.399826,204.990826 C123.049769,204.990826 126.690703,201.643802 128.776925,196.806538 L122.088144,196.806538 C120.8478,198.785966 118.144879,199.372343 115.386862,199.372343 C111.208399,199.372343 108.210555,196.471465 107.434587,192.575552" id="Fill-33" fill="#231815"></path>
                    <path d="M141.805837,189.599082 C141.805837,186.579184 144.548178,183.096234 147.513492,183.096234 C150.478346,183.096234 152.543492,185.544459 152.543492,188.563889 L152.546251,188.563889 L152.546251,204.293578 L152.786694,204.293578 L158.729735,204.293578 L158.972477,204.293578 L158.972477,187.766074 L158.972477,187.764201 C158.972477,181.875166 154.284982,177.100917 148.50239,177.100917 C145.786714,177.100917 143.31286,178.153902 141.452298,179.880628 L141.452298,177.730648 L135.266055,177.730648 L135.266055,204.293578 L135.619594,204.293578 L141.452298,204.293578 L141.805837,204.293578" id="Fill-35" fill="#231815"></path>
                    <polygon id="Fill-37" fill="#231815" points="171.472558 201.176461 171.472558 186.723416 189.734847 186.723416 189.734847 183.606299 171.472558 183.606299 171.472558 170.457025 190.921258 170.457025 190.921258 167.33945 168.036697 167.33945 168.036697 168.92647 168.036697 170.457025 168.036697 183.606299 168.036697 186.723416 168.036697 201.176461 168.036697 204.293578 171.472558 204.293578 191.743119 204.293578 191.743119 201.176461"></polygon>
                    <mask id="mask-6" fill="white">
                        <use xlink:href="#path-5"></use>
                    </mask>
                    <g id="Clip-40"></g>
                    <polygon id="Fill-39" fill="#231815" mask="url(#mask-6)" points="228 204.293578 231.486239 204.293578 231.486239 167.33945 228 167.33945"></polygon>
                    <path d="M272.290746,182.184421 L272.290746,179.759275 L269.137615,179.759275 L269.137615,204.293578 L272.290746,204.293578 L272.290746,189.700228 L272.295392,189.700228 C272.295392,185.651316 275.560489,182.369247 279.589362,182.36598 L279.59633,179.192661 C276.752611,179.192661 274.176028,180.33429 272.290746,182.184421" id="Fill-41" fill="#231815" mask="url(#mask-6)"></path>
                    <path d="M201.177655,179.889908 L198.018349,179.889908 L198.018349,194.519369 C198.020676,200.302816 202.703079,204.990826 208.478926,204.990826 C211.318439,204.990826 213.891689,203.855765 215.776939,202.016828 L215.776939,204.392763 L218.93578,204.392763 L218.93578,179.889908 L215.780663,179.889908 L215.780663,194.773417 C215.780663,198.811622 212.511499,202.084885 208.479392,202.084885 C204.446353,202.084885 201.177655,198.811622 201.177655,194.773417" id="Fill-42" fill="#231815" mask="url(#mask-6)"></path>
                    <path d="M250.877274,182.112467 C255.514428,182.112467 258.333255,185.32818 259.081542,189.668622 L242.830637,189.668622 C243.542298,185.32818 246.240583,182.112467 250.877274,182.112467 M262.770124,192.52532 C262.774297,192.38134 262.778933,192.236892 262.778933,192.091977 C262.778933,184.967762 258.014746,179.192661 250.949135,179.192661 C243.883988,179.192661 239.155963,184.967762 239.155963,192.091977 C239.155963,199.215724 243.522362,204.990826 250.949135,204.990826 C258.195559,204.990826 261.434891,201.259027 262.862385,196.096309 L259.317062,196.096309 C258.209931,199.613539 254.930264,202.07102 250.877274,202.07102 C246.405632,202.07102 242.78752,197.835291 242.645188,192.52532" id="Fill-43" fill="#231815" mask="url(#mask-6)"></path>
                    <path d="M23.7743534,302.415896 C22.7164518,303.456878 21.2445887,304 19.1287855,304 C17.1505002,304 15.5406499,303.547399 14.4362833,302.415896 C13.0104159,300.96711 12.5504587,299.473525 12.5504587,295.897975 L14.3907569,295.897975 C14.3907569,298.658843 14.712727,300.061907 15.8166243,301.148612 C16.5525558,301.872312 17.6564531,302.325375 19.1287855,302.325375 C20.7386358,302.325375 21.7505417,301.872312 22.4864732,301.148612 C23.7283577,299.926127 23.9583363,298.342022 23.9583363,295.535894 C23.9583363,291.28098 23.2684005,289.651154 20.37067,288.47439 L17.012513,287.116587 C13.654356,285.758783 12.7804373,283.903117 12.7804373,279.105082 C12.7804373,276.389474 13.4703731,274.261786 14.8507141,272.903983 C15.9546114,271.817739 17.4264745,271.229358 19.3582948,271.229358 C21.2905845,271.229358 22.854439,271.817739 23.9583363,272.903983 C25.5226602,274.488087 25.7981651,276.207972 25.7981651,278.878781 L23.9583363,278.878781 C23.9583363,276.660573 23.682362,275.302769 22.5784646,274.126006 C21.8425331,273.311324 20.7846315,272.858722 19.3127684,272.858722 C17.9324275,272.858722 16.9665173,273.266064 16.2305858,273.945427 C15.0806927,275.031209 14.6207355,276.887336 14.6207355,279.059822 C14.6207355,283.133233 15.1726842,284.400979 18.4383804,285.713523 L21.7965374,287.071326 C25.2006901,288.429592 25.7981651,291.09994 25.7981651,295.490634 C25.7981651,298.930404 25.2006901,300.96711 23.7743534,302.415896" id="Fill-44" fill="#FFFFFF" mask="url(#mask-6)"></path>
                    <path d="M43.4619142,302.316072 C42.2999225,303.453861 40.6731342,304 39.0458716,304 C37.4190832,304 35.7922949,303.453861 34.6303032,302.316072 C33.4683115,301.223331 32.7706422,299.584915 32.7706422,297.354384 L32.7706422,271.229358 L34.6303032,271.229358 L34.6303032,297.536895 C34.6303032,300.495146 36.5824492,302.361584 39.0458716,302.361584 C41.5097682,302.361584 43.4619142,300.495146 43.4619142,297.536895 L43.4619142,271.229358 L45.3211009,271.229358 L45.3211009,297.354384 C45.3211009,299.584915 44.6239059,301.223331 43.4619142,302.316072" id="Fill-45" fill="#FFFFFF" mask="url(#mask-6)"></path>
                    <polygon id="Fill-46" fill="#FFFFFF" mask="url(#mask-6)" points="69.2974057 303.302752 69.2974057 275.418879 62.8293365 293.70753 61.1896622 293.70753 54.8126861 276.049491 54.8126861 303.302752 52.9908257 303.302752 52.9908257 271.229358 54.9948721 271.229358 62.0550459 290.824735 69.1152196 271.229358 71.1192661 271.229358 71.1192661 303.302752"></polygon>
                    <polygon id="Fill-47" fill="#FFFFFF" mask="url(#mask-6)" points="95.7928185 303.302752 95.7928185 275.418879 89.3247494 293.70753 87.685075 293.70753 81.3080989 276.049491 81.3080989 303.302752 79.4862385 303.302752 79.4862385 271.229358 81.490285 271.229358 88.5504587 290.824735 95.6106325 271.229358 97.6146789 271.229358 97.6146789 303.302752"></polygon>
                    <polygon id="Fill-48" fill="#FFFFFF" mask="url(#mask-6)" points="105.284404 303.302752 107.376147 303.302752 107.376147 271.229358 105.284404 271.229358"></polygon>
                    <polygon id="Fill-49" fill="#FFFFFF" mask="url(#mask-6)" points="120.82945 272.85093 120.82945 303.302752 119.023761 303.302752 119.023761 272.85093 113.651376 272.85093 113.651376 271.229358 126.201835 271.229358 126.201835 272.85093"></polygon>
                    <polygon id="Fill-50" fill="#FFFFFF" mask="url(#mask-6)" points="19.6879128 263.559633 17.9634634 263.559633 11.1559633 231.486239 13.1526942 231.486239 18.8256881 259.866052 24.498682 231.486239 26.4954128 231.486239"></polygon>
                    <polygon id="Fill-51" fill="#FFFFFF" mask="url(#mask-6)" points="31.3761468 263.559633 33.4678899 263.559633 33.4678899 231.486239 31.3761468 231.486239"></polygon>
                    <path d="M47.6675254,233.107811 L43.643297,233.107811 L43.643297,247.162357 L47.6675254,247.162357 C51.0588017,247.162357 52.2342842,244.819626 52.2342842,240.135084 C52.2342842,235.450542 51.0588017,233.107811 47.6675254,233.107811 L47.6675254,233.107811 Z M53.0932907,263.559633 L48.2552667,248.739345 L43.643297,248.739345 L43.643297,263.559633 L41.8348624,263.559633 L41.8348624,231.486239 L47.5318928,231.486239 C50.6971148,231.486239 54.0427189,232.342068 54.0427189,240.135084 C54.0427189,245.450697 52.5055494,247.70334 49.9737409,248.469083 L55.0825688,263.559633 L53.0932907,263.559633 Z" id="Fill-52" fill="#FFFFFF" mask="url(#mask-6)"></path>
                    <polygon id="Fill-53" fill="#FFFFFF" mask="url(#mask-6)" points="67.1413765 233.107811 67.1413765 263.559633 65.3356877 263.559633 65.3356877 233.107811 59.9633028 233.107811 59.9633028 231.486239 72.5137615 231.486239 72.5137615 233.107811"></polygon>
                    <path d="M88.7830151,262.572953 C87.6210235,263.710742 85.9942351,264.256881 84.3669725,264.256881 C82.7401841,264.256881 81.1133958,263.710742 79.9514041,262.572953 C78.7894124,261.480211 78.0917431,259.841795 78.0917431,257.611265 L78.0917431,231.486239 L79.9514041,231.486239 L79.9514041,257.793775 C79.9514041,260.752027 81.9035501,262.618465 84.3669725,262.618465 C86.8308691,262.618465 88.7830151,260.752027 88.7830151,257.793775 L88.7830151,231.486239 L90.6422018,231.486239 L90.6422018,257.611265 C90.6422018,259.841795 89.9450068,261.480211 88.7830151,262.572953" id="Fill-54" fill="#FFFFFF" mask="url(#mask-6)"></path>
                    <path d="M103.170037,235.180279 L99.7760964,252.297795 L106.608763,252.297795 L103.170037,235.180279 Z M108.871544,263.559633 L106.925949,253.919827 L99.414587,253.919827 L97.5137769,263.559633 L95.5229358,263.559633 L102.446095,231.486239 L104.074965,231.486239 L110.862385,263.559633 L108.871544,263.559633 Z" id="Fill-55" fill="#FFFFFF" mask="url(#mask-6)"></path>
                    <path d="M117.215251,262.117796 C116.322774,261.216936 115.743119,259.955731 115.743119,257.838249 L115.743119,231.486239 L117.43837,231.486239 L117.43837,257.928795 C117.43837,260.586333 118.687838,262.02817 121.321101,262.02817 L121.321101,263.559633 C119.80389,263.559633 118.330847,263.243872 117.215251,262.117796" id="Fill-56" fill="#FFFFFF" mask="url(#mask-6)"></path>
                </g>
            </g>
        </g>
    </g>
</svg>