<?xml version="1.0" encoding="UTF-8"?>
<svg width="28px" height="28px" viewBox="0 0 28 28" version="1.1" xmlns="http://www.w3.org/2000/svg" xmlns:xlink="http://www.w3.org/1999/xlink">
    <title>Style</title>
    <g id="控件" stroke="none" stroke-width="1" fill="none" fill-rule="evenodd">
        <g id="白色icon" transform="translate(-103.000000, -283.000000)" fill="#FFFFFF">
            <path d="M117,283 C120.713031,283 124.273986,284.474996 126.899495,287.100505 C129.525004,289.726014 131,293.286969 131,297 C131,304.731987 124.731987,311 117,311 C109.268014,311 103,304.731987 103,297 C103,289.268014 109.268014,283 117,283 Z M117,285 C110.372583,285 105,290.372583 105,297 C105,303.627417 110.372583,309 117,309 C120.182598,309 123.234845,307.735718 125.485281,305.485281 C127.735718,303.234845 129,300.182598 129,297 C129,290.372583 123.627417,285 117,285 Z M118,288 L118,296.52 L122.62,300.22 L121.38,301.78 L116.75,298.08 C116.276274,297.700715 116.000379,297.126855 116,296.52 L116,296.52 L116,288 L118,288 Z" id="Style"></path>
        </g>
    </g>
</svg>