<?xml version="1.0" encoding="UTF-8"?>
<svg width="28px" height="20px" viewBox="0 0 28 20" version="1.1" xmlns="http://www.w3.org/2000/svg" xmlns:xlink="http://www.w3.org/1999/xlink">
    <title>Style</title>
    <g id="控件" stroke="none" stroke-width="1" fill="none" fill-rule="evenodd">
        <g id="icon可点击" transform="translate(-170.000000, -398.000000)" fill="#252C32">
            <path d="M198,398 L198,417.6 L190,412.6 L190,413.8 C190,415.456854 188.656854,416.8 187,416.8 L187,416.8 L173,416.8 C171.343146,416.8 170,415.456854 170,413.8 L170,413.8 L170,401.8 C170,400.143146 171.343146,398.8 173,398.8 L173,398.8 L187,398.8 C188.656854,398.8 190,400.143146 190,401.8 L190,401.8 L190,403 L198,398 Z M187,400.8 L173,400.8 C172.447715,400.8 172,401.247715 172,401.8 L172,401.8 L172,413.8 C172,414.352285 172.447715,414.8 173,414.8 L173,414.8 L187,414.8 C187.552285,414.8 188,414.352285 188,413.8 L188,413.8 L188,401.8 C188,401.247715 187.552285,400.8 187,400.8 L187,400.8 Z M196,401.6 L190,405.35 L190,410.25 L196,414 L196,401.6 Z M179,403.8 L179,405.8 L175,405.8 L175,403.8 L179,403.8 Z" id="Style"></path>
        </g>
    </g>
</svg>