<?xml version="1.0" encoding="UTF-8"?>
<svg width="18px" height="18px" viewBox="0 0 18 18" version="1.1" xmlns="http://www.w3.org/2000/svg" xmlns:xlink="http://www.w3.org/1999/xlink">
    <title>Outlined/UI/time</title>
    <defs>
        <rect id="path-1" x="0" y="0" width="336" height="280" rx="4"></rect>
        <filter x="-9.8%" y="-9.6%" width="119.6%" height="123.6%" filterUnits="objectBoundingBox" id="filter-2">
            <feOffset dx="0" dy="6" in="SourceAlpha" result="shadowOffsetOuter1"></feOffset>
            <feGaussianBlur stdDeviation="10" in="shadowOffsetOuter1" result="shadowBlurOuter1"></feGaussianBlur>
            <feColorMatrix values="0 0 0 0 0   0 0 0 0 0   0 0 0 0 0  0 0 0 0.1 0" type="matrix" in="shadowBlurOuter1"></feColorMatrix>
        </filter>
    </defs>
    <g id="页面-1" stroke="none" stroke-width="1" fill="none" fill-rule="evenodd">
        <g id="上午议程" transform="translate(-1577.000000, -1803.000000)">
            <rect fill="#FFFFFF" x="0" y="0" width="1920" height="2160"></rect>
            <g id="Article-Big备份-12" transform="translate(1551.000000, 1776.000000)">
                <g id="Base">
                    <use fill="black" fill-opacity="1" filter="url(#filter-2)" xlink:href="#path-1"></use>
                    <use fill="#FFFFFF" fill-rule="evenodd" xlink:href="#path-1"></use>
                </g>
                <g id="Content" transform="translate(26.000000, 26.000000)" fill="#0B162B" opacity="0.5">
                    <path d="M9,2 C11.1217319,2 13.1565632,2.84285472 14.6568542,4.34314575 C16.1571453,5.84343678 17,7.87826808 17,10 C17,14.418278 13.418278,18 9,18 C4.581722,18 1,14.418278 1,10 C1,5.581722 4.581722,2 9,2 Z M9,3.14285714 C5.21290457,3.14285714 2.14285714,6.21290457 2.14285714,10 C2.14285714,13.7870954 5.21290457,16.8571429 9,16.8571429 C10.8186274,16.8571429 12.5627685,16.134696 13.8487322,14.8487322 C15.134696,13.5627685 15.8571429,11.8186274 15.8571429,10 C15.8571429,6.21290457 12.7870954,3.14285714 9,3.14285714 Z M10,9 L10,15 L9,15 L9,10.2 L8,10.2 L8,9 L10,9 Z M9,6 C9.55228475,6 10,6.44771525 10,7 C10,7.55228475 9.55228475,8 9,8 C8.44771525,8 8,7.55228475 8,7 C8,6.44771525 8.44771525,6 9,6 Z" id="Style"></path>
                </g>
            </g>
        </g>
    </g>
</svg>