<?xml version="1.0" encoding="UTF-8"?>
<svg width="14px" height="14px" viewBox="0 0 14 14" version="1.1" xmlns="http://www.w3.org/2000/svg" xmlns:xlink="http://www.w3.org/1999/xlink">
    <title>Outlined/UI/time</title>
    <defs>
        <rect id="path-1" x="0" y="0" width="336" height="370" rx="4"></rect>
        <filter x="-9.8%" y="-7.3%" width="119.6%" height="117.8%" filterUnits="objectBoundingBox" id="filter-2">
            <feOffset dx="0" dy="6" in="SourceAlpha" result="shadowOffsetOuter1"></feOffset>
            <feGaussianBlur stdDeviation="10" in="shadowOffsetOuter1" result="shadowBlurOuter1"></feGaussianBlur>
            <feColorMatrix values="0 0 0 0 0   0 0 0 0 0   0 0 0 0 0  0 0 0 0.1 0" type="matrix" in="shadowBlurOuter1"></feColorMatrix>
        </filter>
        <filter x="-6.5%" y="-4.3%" width="113.1%" height="111.9%" filterUnits="objectBoundingBox" id="filter-3">
            <feGaussianBlur stdDeviation="1.5" in="SourceAlpha" result="shadowBlurInner1"></feGaussianBlur>
            <feOffset dx="0" dy="1" in="shadowBlurInner1" result="shadowOffsetInner1"></feOffset>
            <feComposite in="shadowOffsetInner1" in2="SourceAlpha" operator="arithmetic" k2="-1" k3="1" result="shadowInnerInner1"></feComposite>
            <feColorMatrix values="0 0 0 0 0   0 0 0 0 0   0 0 0 0 0  0 0 0 0.5 0" type="matrix" in="shadowInnerInner1"></feColorMatrix>
        </filter>
    </defs>
    <g id="页面-1" stroke="none" stroke-width="1" fill="none" fill-rule="evenodd">
        <g id="session点开后效果" transform="translate(-469.000000, -271.000000)">
            <rect id="矩形" fill-opacity="0.2" fill="#5481A3" x="178" y="84" width="870" height="696"></rect>
            <g id="Article-Big备份-12" transform="translate(442.000000, 242.000000)">
                <g id="Base">
                    <use fill="black" fill-opacity="1" filter="url(#filter-2)" xlink:href="#path-1"></use>
                    <use fill="#FFFFFF" fill-rule="evenodd" xlink:href="#path-1"></use>
                    <use fill="black" fill-opacity="1" filter="url(#filter-3)" xlink:href="#path-1"></use>
                </g>
                <g id="Content" transform="translate(26.000000, 26.000000)" fill="#0B162B" opacity="0.5">
                    <g id="Outlined/UI/time" transform="translate(0.000000, 2.000000)">
                        <path d="M7.99999998,0.999999978 C9.85651543,0.999999978 11.6369928,1.73749786 12.9497475,3.05025252 C14.2625021,4.36300717 15,6.14348457 15,7.99999998 C15,11.8659933 11.8659933,15 7.99999998,15 C4.13400674,15 0.999999978,11.8659933 0.999999978,7.99999998 C0.999999978,4.13400674 4.13400674,0.999999978 7.99999998,0.999999978 Z M7.99999998,1.99999998 C4.68629149,1.99999998 1.99999998,4.68629149 1.99999998,7.99999998 C1.99999998,11.3137085 4.68629149,14 7.99999998,14 C9.59129894,14 11.1174224,13.367859 12.2426407,12.2426407 C13.367859,11.1174224 14,9.59129894 14,7.99999998 C14,4.68629149 11.3137085,1.99999998 7.99999998,1.99999998 Z M8.5,3.49999999 L8.5,7.76 L10.81,9.61000001 L10.19,10.39 L7.875,8.54 C7.63813673,8.35035771 7.50018961,8.0634277 7.5,7.76 L7.5,7.76 L7.5,3.49999999 L8.5,3.49999999 Z" id="Style"></path>
                    </g>
                </g>
            </g>
        </g>
    </g>
</svg>