<?xml version="1.0" encoding="UTF-8"?>
<svg width="14px" height="14px" viewBox="0 0 14 14" version="1.1" xmlns="http://www.w3.org/2000/svg" xmlns:xlink="http://www.w3.org/1999/xlink">
    <title>Outlined/UI/account</title>
    <g id="Web" stroke="none" stroke-width="1" fill="none" fill-rule="evenodd">
        <g id="互动_博客列表" transform="translate(-401.000000, -657.000000)">
            <rect fill="#FFFFFF" x="0" y="0" width="1920" height="2168"></rect>
            <g id="博客" transform="translate(400.000000, 530.000000)">
                <g id="编组-4">
                    <g id="编组-14"></g>
                </g>
                <g id="Blog-01" fill="#252C32">
                    <g id="博客内容">
                        <g id="编组-8">
                            <g id="编组-7">
                                <g id="编组-6" transform="translate(0.000000, 125.000000)">
                                    <g id="openEuler/icons/account" transform="translate(0.000000, 1.000000)">
                                        <path d="M12,8.5 C13.3807119,8.5 14.5,9.61928813 14.5,11 L14.5,11 L14.5,14.5 L13.5,14.5 L13.5,11 C13.5,10.1715729 12.8284271,9.5 12,9.5 L12,9.5 L3.99999998,9.5 C3.17157286,9.5 2.49999998,10.1715729 2.49999998,11 L2.49999998,11 L2.49999998,14.5 L1.49999998,14.5 L1.49999998,11 C1.49999998,9.61928813 2.61928811,8.5 3.99999998,8.5 L3.99999998,8.5 Z M7.99999999,1.49999998 C9.65685425,1.49999998 11,2.84314573 11,4.49999998 C11,6.15685424 9.65685425,7.49999998 7.99999999,7.49999998 C6.34314575,7.49999998 4.99999999,6.15685424 4.99999999,4.49999998 C4.99999999,2.84314573 6.34314575,1.49999998 7.99999999,1.49999998 Z M7.99999999,2.49999998 C6.8954305,2.49999998 5.99999999,3.39543049 5.99999999,4.49999998 C5.99999999,5.60456949 6.8954305,6.49999998 7.99999999,6.49999998 C9.1045695,6.49999998 9.99999999,5.60456949 9.99999999,4.49999998 C9.99999999,3.39543049 9.1045695,2.49999998 7.99999999,2.49999998 Z" id="Style"></path>
                                    </g>
                                </g>
                            </g>
                        </g>
                    </g>
                </g>
            </g>
        </g>
    </g>
</svg>