<?xml version="1.0" encoding="UTF-8"?>
<svg width="16px" height="14px" viewBox="0 0 16 14" version="1.1" xmlns="http://www.w3.org/2000/svg" xmlns:xlink="http://www.w3.org/1999/xlink">
    <title>Outlined/UI/date</title>
    <g id="Web" stroke="none" stroke-width="1" fill="none" fill-rule="evenodd">
        <g id="互动_博客列表" transform="translate(-400.000000, -702.000000)" fill="#252C32">
            <g id="博客" transform="translate(400.000000, 530.000000)">
                <g id="Blog-01">
                    <g id="博客内容">
                        <g id="编组-8">
                            <g id="编组-7">
                                <g id="编组-5" transform="translate(0.000000, 171.000000)">
                                    <g id="-openEuler/icons/date">
                                        <path d="M4.5,1 L4.5,2 L4.5,2 L11.5,2 L11.5,1 L12.5,1 L12.5007613,2.12621352 C14.2256022,2.57052105 15.5,4.13643475 15.5,6 L15.5,11 C15.5,13.209139 13.709139,15 11.5,15 L4.5,15 C2.290861,15 0.5,13.209139 0.5,11 L0.5,6 C0.5,4.13607289 1.77489272,2.56991294 3.50024347,2.12595483 L3.5,1 L4.5,1 Z M14.5,5 L1.5,5 L1.5,12 C1.5,13.0543618 2.31587779,13.9181651 3.35073766,13.9945143 L3.5,14 L12.5,14 C13.5543618,14 14.4181651,13.1841222 14.4945143,12.1492623 L14.5,12 L14.5,5 Z M5.5,10 L5.5,13 L2.5,13 L2.5,10 L5.5,10 Z M9.5,10 L9.5,13 L6.5,13 L6.5,10 L9.5,10 Z M4.5,11 L3.5,11 L3.5,12 L4.5,12 L4.5,11 Z M8.5,11 L7.5,11 L7.5,12 L8.5,12 L8.5,11 Z M5.5,6 L5.5,9 L2.5,9 L2.5,6 L5.5,6 Z M9.5,6 L9.5,9 L6.5,9 L6.5,6 L9.5,6 Z M13.5,6 L13.5,9 L10.5,9 L10.5,6 L13.5,6 Z M4.5,7 L3.5,7 L3.5,8 L4.5,8 L4.5,7 Z M8.5,7 L7.5,7 L7.5,8 L8.5,8 L8.5,7 Z M12.5,7 L11.5,7 L11.5,8 L12.5,8 L12.5,7 Z M12.5,3 L3.5,3 C2.75974756,3 2.11342606,3.40216612 1.76760632,3.99992752 L14.2323937,3.99992752 C13.8865739,3.40216612 13.2402524,3 12.5,3 Z" id="形状结合"></path>
                                    </g>
                                </g>
                            </g>
                        </g>
                    </g>
                </g>
            </g>
        </g>
    </g>
</svg>