<?xml version="1.0" encoding="UTF-8"?>
<svg width="28px" height="28px" viewBox="0 0 28 28" version="1.1" xmlns="http://www.w3.org/2000/svg" xmlns:xlink="http://www.w3.org/1999/xlink">
    <title>Style</title>
    <g id="控件" stroke="none" stroke-width="1" fill="none" fill-rule="evenodd">
        <g id="白色icon" transform="translate(-231.000000, -390.000000)" fill="#FFFFFF">
            <path d="M258.04,394.04736 L254.92,390.87736 C253.74873,389.707547 251.85127,389.707547 250.68,390.87736 L235.21,406.28736 C234.883137,406.620627 234.636854,407.024258 234.49,407.46736 L231,417.91736 L241.46,414.42736 C241.898222,414.276363 242.297722,414.030517 242.63,413.70736 L258.04,398.28736 C259.209814,397.11609 259.209814,395.21863 258.04,394.04736 Z M237.04,407.32736 L245.79,398.58736 L250.198427,402.995787 L241.418427,411.745787 L237.04,407.32736 Z M247.16,397.16736 L248.75,395.58736 L253.33,400.16736 L251.75,401.75736 L247.16,397.16736 Z M236.02,409.18736 L239.74,412.89736 L234.17,414.74736 L236.02,409.18736 Z M256.59,396.91736 L254.71,398.79736 L250.16,394.16736 L252.04,392.28736 C252.228719,392.100174 252.484197,391.995823 252.75,391.997343 C253.015803,391.995823 253.271281,392.100174 253.46,392.28736 L256.63,395.46736 C256.814744,395.653621 256.918895,395.90502 256.920017,396.16736 C256.921537,396.433163 256.817187,396.688641 256.63,396.87736 L256.59,396.91736 Z" id="Style"></path>
        </g>
    </g>
</svg>