<?xml version="1.0" encoding="UTF-8"?>
<svg width="16px" height="16px" viewBox="0 0 16 16" version="1.1" xmlns="http://www.w3.org/2000/svg" xmlns:xlink="http://www.w3.org/1999/xlink">
    <title>openEuler/icons/tag</title>
    <g id="-" stroke="none" stroke-width="1" fill="none" fill-rule="evenodd">
        <g id="互动_博客列表" transform="translate(-401.000000, -677.000000)">
            <rect fill="#FFFFFF" x="0" y="0" width="1920" height="2199"></rect>
            <g id="编组-18" transform="translate(400.000000, 540.000000)" fill="#0B162B" opacity="0.5">
                <g id="编组-21" transform="translate(1.000000, 132.000000)">
                    <g id="openEuler/icons/tag" transform="translate(0.000000, 5.000000)">
                        <path d="M8.99999998,0.609999977 L15.39,7 L7.39,15 L2.91999998,15 C1.85961326,15 0.999999978,14.1403867 0.999999978,13.08 L0.999999978,13.08 L0.999999978,8.60999998 L8.99999998,0.609999977 Z M8.99999998,2.02499998 L1.99999998,9.02499998 L1.99999998,13.08 C2.00273301,13.5869656 2.41303439,13.997267 2.91999998,14 L2.91999998,14 L6.99999998,14 L14,7 L8.99999998,2.02499998 Z M9,4.99999999 C9.53043298,4.99999999 10.0391408,5.21071367 10.4142136,5.58578643 C10.7892863,5.96085919 11,6.46956702 11,6.99999999 C11,8.1045695 10.1045695,8.99999999 9,8.99999999 C7.8954305,8.99999999 7,8.1045695 7,6.99999999 C7,5.89543049 7.8954305,4.99999999 9,4.99999999 Z M9,5.99999999 C8.44771525,5.99999999 8,6.44771525 8,6.99999999 C8,7.55228475 8.44771525,7.99999999 9,7.99999999 C9.55228475,7.99999999 10,7.55228475 10,6.99999999 C10,6.44771525 9.55228475,5.99999999 9,5.99999999 Z" id="Style"></path>
                    </g>
                </g>
            </g>
        </g>
    </g>
</svg>