<?xml version="1.0" encoding="UTF-8"?>
<svg width="16px" height="10px" viewBox="0 0 16 10" version="1.1" xmlns="http://www.w3.org/2000/svg" xmlns:xlink="http://www.w3.org/1999/xlink">
    <title>Outlined/UI/visibility</title>
    <g id="Web" stroke="none" stroke-width="1" fill="none" fill-rule="evenodd">
        <g id="互动_博客列表" transform="translate(-400.000000, -730.000000)">
            <rect fill="#FFFFFF" x="0" y="0" width="1920" height="2168"></rect>
            <g id="博客" transform="translate(400.000000, 530.000000)">
                <g id="编组-4">
                    <g id="编组-14"></g>
                </g>
                <g id="Blog-01" fill="#252C32">
                    <g id="博客内容">
                        <g id="编组-8">
                            <g id="编组-7">
                                <g id="编组-2" transform="translate(0.000000, 197.000000)">
                                    <g id="openEuler/icons/visibility">
                                        <path d="M8,2.99999998 C11.1784409,3.07254458 14.0506899,4.91279008 15.445,7.77 L15.445,7.77 L15.565,7.99999998 L15.445,8.23 C14.0506899,11.0872099 11.1784409,12.9274554 8,13 C4.8215591,12.9274554 1.94931011,11.0872099 0.554999977,8.23 L0.554999977,8.23 L0.434999976,7.99999998 L0.554999977,7.77 C1.94931011,4.91279008 4.8215591,3.07254458 8,2.99999998 Z M7.99999999,3.99999999 C5.79086099,3.99999999 3.99999999,5.79086099 3.99999999,7.99999999 C3.99999999,10.209139 5.79086099,12 7.99999999,12 C10.209139,12 12,10.209139 12,7.99999999 C12,6.93913404 11.5785726,5.92171838 10.8284271,5.17157287 C10.0782816,4.42142735 9.06086596,3.99999999 7.99999999,3.99999999 Z M3.63999999,5.55499999 C2.79659869,6.22663596 2.09329299,7.05735211 1.56999998,8 C2.09329299,8.94264789 2.79659869,9.77336404 3.63999999,10.445 C2.78855854,8.92618904 2.78855854,7.07381096 3.63999999,5.55499999 Z M12.36,5.55499999 C13.2114415,7.07381096 13.2114415,8.92618904 12.36,10.445 C13.2034013,9.77336404 13.906707,8.94264789 14.43,8 C13.906707,7.05735211 13.2034013,6.22663596 12.36,5.55499999 Z M7.99999999,5.99999999 C9.1045695,5.99999999 9.99999999,6.8954305 9.99999999,7.99999999 C9.99999999,9.1045695 9.1045695,9.99999999 7.99999999,9.99999999 C6.8954305,9.99999999 5.99999999,9.1045695 5.99999999,7.99999999 C5.99999999,6.8954305 6.8954305,5.99999999 7.99999999,5.99999999 Z M8,7 C7.44771525,7 7,7.44771525 7,8 C7,8.55228475 7.44771525,9 8,9 C8.55228475,9 9,8.55228475 9,8 C9,7.44771525 8.55228475,7 8,7 Z" id="Style"></path>
                                    </g>
                                </g>
                            </g>
                        </g>
                    </g>
                </g>
            </g>
        </g>
    </g>
</svg>