<?xml version="1.0" encoding="UTF-8"?>
<svg width="134px" height="28px" viewBox="0 0 134 28" version="1.1" xmlns="http://www.w3.org/2000/svg" xmlns:xlink="http://www.w3.org/1999/xlink">
    <title>页尾logo（手机网页共用）</title>
    <defs>
        <polygon id="path-1" points="0.3084 0.4051 16.6199 0.4051 16.6199 21.5 0.3084 21.5"></polygon>
        <polygon id="path-3" points="0.0003 0.4045 18.6018 0.4045 18.6018 21.5453 0.0003 21.5453"></polygon>
    </defs>
    <g id="-" stroke="none" stroke-width="1" fill="none" fill-rule="evenodd">
        <g id="编组">
            <path d="M102.901,0.81025 L105.902,0.81025 C106.1165,0.81025 106.2895,0.98375 106.2895,1.19775 L106.2895,20.86575 C106.2895,21.07975 106.1165,21.25325 105.902,21.25325 L102.901,21.25325 C102.687,21.25325 102.514,21.07975 102.514,20.86575 L102.514,1.19775 C102.514,0.98375 102.687,0.81025 102.901,0.81025" id="Fill-1" fill="#FFFFFF"></path>
            <path d="M86.1144,4.2275 L86.1144,1.2005 C86.1144,0.985 85.9394,0.8105 85.7244,0.8105 L73.2709,0.8105 C73.0554,0.8105 72.8809,0.985 72.8809,1.2005 L72.8809,20.863 C72.8809,21.0785 73.0554,21.253 73.2709,21.253 L85.7244,21.253 C85.9394,21.253 86.1144,21.0785 86.1144,20.863 L86.1144,17.8215 C86.1144,17.606 85.9394,17.4315 85.7244,17.4315 L77.2969,17.4315 C77.0814,17.4315 76.9069,17.2565 76.9069,17.041 L76.9069,12.4435 C76.9069,12.228 77.0814,12.053 77.2969,12.053 L84.8919,12.053 C85.1069,12.053 85.2819,11.8785 85.2819,11.663 L85.2819,8.705 C85.2819,8.4895 85.1069,8.3145 84.8919,8.3145 L77.2969,8.3145 C77.0814,8.3145 76.9069,8.14 76.9069,7.9245 L76.9069,5.008 C76.9069,4.7925 77.0814,4.618 77.2969,4.618 L85.7244,4.618 C85.9394,4.618 86.1144,4.443 86.1144,4.2275" id="Fill-3" fill="#FFFFFF"></path>
            <path d="M132.7843,5.9299 C131.5878,6.1694 130.5548,6.7194 129.7593,7.4654 C129.7263,7.4964 129.6733,7.4739 129.6733,7.4289 L129.6733,5.8709 C129.6733,5.6564 129.4998,5.4824 129.2853,5.4824 L126.4938,5.4824 C126.2793,5.4824 126.1058,5.6564 126.1058,5.8709 L126.1058,20.9424 C126.1058,21.1569 126.2793,21.3309 126.4938,21.3309 L129.2853,21.3309 C129.4998,21.3309 129.6733,21.1569 129.6733,20.9424 L129.6733,17.2449 C129.6733,17.0574 129.6583,14.2719 129.6733,13.3364 C129.6908,12.2859 129.8883,11.6244 130.5238,10.9469 C131.2818,10.0324 132.3363,9.4809 133.6183,9.2239 C133.6923,9.2094 133.8408,9.1794 133.8408,8.9834 L133.8408,6.0169 C133.8408,5.9049 133.7473,5.8139 133.6353,5.8209 C133.3533,5.8389 133.0688,5.8729 132.7843,5.9299" id="Fill-5" fill="#FFFFFF"></path>
            <g transform="translate(21.000000, 5.095400)">
                <mask id="mask-2" fill="white">
                    <use xlink:href="#path-1"></use>
                </mask>
                <g id="Clip-8"></g>
                <path d="M11.6984,11.3611 C10.9029,12.1446 9.9059,12.5366 8.7084,12.5366 C7.5099,12.5366 6.5199,12.1496 5.7389,11.3736 C4.9574,10.5991 4.5664,9.5856 4.5664,8.3346 C4.5664,7.1191 4.9614,6.1216 5.7524,5.3421 C6.5429,4.5626 7.5329,4.1721 8.7219,4.1721 C9.9384,4.1721 10.9374,4.5576 11.7189,5.3286 C12.5004,6.0996 12.8914,7.1016 12.8914,8.3346 C12.8914,9.5686 12.4939,10.5771 11.6984,11.3611 M15.5679,4.3801 C14.8679,3.1571 13.8929,2.1891 12.6434,1.4751 C11.3934,0.7621 10.0589,0.4051 8.6394,0.4051 C7.0689,0.4051 5.6439,0.8456 4.3624,1.7226 C4.2324,1.8116 4.0559,1.7166 4.0559,1.5591 L4.0559,1.2336 C4.0559,1.0211 3.8834,0.8491 3.6709,0.8491 L0.6929,0.8491 C0.4799,0.8491 0.3084,1.0211 0.3084,1.2336 L0.3084,21.1151 C0.3084,21.3276 0.4799,21.5001 0.6929,21.5001 L3.6709,21.5001 C3.8834,21.5001 4.0559,21.3276 4.0559,21.1151 L4.0559,15.1616 C4.0559,15.0096 4.2254,14.9186 4.3504,15.0041 C5.6089,15.8656 7.0414,16.3036 8.6524,16.3036 C10.1189,16.3036 11.4609,15.9536 12.6779,15.2541 C13.8954,14.5546 14.8559,13.5841 15.5619,12.3426 C16.2669,11.1016 16.6199,9.7671 16.6199,8.3401 C16.6199,6.9231 16.2699,5.6031 15.5679,4.3801" id="Fill-7" fill="#FFFFFF" mask="url(#mask-2)"></path>
            </g>
            <path d="M44.48795,10.3691 C45.27845,9.5891 46.26845,9.1991 47.45695,9.1991 C48.67395,9.1991 49.67245,9.5846 50.45445,10.3556 C50.71745,10.6151 50.92795,10.9056 51.09895,11.2196 C51.16895,11.3491 51.07345,11.5071 50.92645,11.5071 L44.01895,11.5071 C43.87095,11.5071 43.77495,11.3476 43.84745,11.2181 C44.01795,10.9116 44.22745,10.6261 44.48795,10.3691 M50.43345,16.3881 C49.63795,17.1716 48.64145,17.5636 47.44295,17.5636 C46.24495,17.5636 45.25495,17.1766 44.47445,16.4006 C44.00045,15.9311 43.68195,15.3676 43.49795,14.7216 C43.46195,14.5956 43.55395,14.4696 43.68495,14.4696 L46.65195,14.4696 L51.48895,14.4696 L54.93195,14.4696 C55.13295,14.4696 55.30095,14.3156 55.31945,14.1151 C55.34245,13.8686 55.35445,13.6196 55.35445,13.3676 C55.35445,11.9496 55.00445,10.6296 54.30345,9.4071 C53.60295,8.1836 52.62795,7.2161 51.37845,6.5021 C50.12845,5.7891 48.79345,5.4321 47.37445,5.4321 C45.41045,5.4321 43.67195,6.1181 42.15995,7.4886 C40.43545,9.0636 39.57345,11.0326 39.57345,13.3956 C39.57345,15.5996 40.33595,17.4736 41.86195,19.0161 C43.38845,20.5586 45.22995,21.3306 47.38795,21.3306 C48.85345,21.3306 50.19645,20.9806 51.41345,20.2811 C52.39995,19.7136 53.20845,18.9576 53.85695,18.0326 C53.94395,17.9086 53.89345,17.7356 53.75545,17.6736 C53.75545,17.6736 50.86245,16.3686 50.73045,16.3091 C50.59245,16.2471 50.48245,16.3396 50.43345,16.3881" id="Fill-9" fill="#FFFFFF"></path>
            <path d="M64.20475,5.5095 C60.58925,5.5095 57.65725,8.455 57.65725,12.0885 L57.65725,20.858 C57.65725,21.076 57.83425,21.253 58.05275,21.253 L61.04725,21.253 C61.26525,21.253 61.44225,21.076 61.44225,20.858 L61.44225,18.0465 L61.44225,12.0885 C61.44225,10.555 62.67875,9.312 64.20475,9.312 C65.73075,9.312 66.96725,10.555 66.96725,12.0885 L66.96725,18.0465 L66.96725,20.858 C66.96725,21.076 67.14475,21.253 67.36275,21.253 L70.35725,21.253 C70.57525,21.253 70.75275,21.076 70.75275,20.858 L70.75275,12.0885 C70.75275,8.455 67.82075,5.5095 64.20475,5.5095" id="Fill-11" fill="#FFFFFF"></path>
            <path d="M93.89175,21.25315 C97.50775,21.25315 100.43975,18.30765 100.43975,14.67415 L100.43975,5.90965 C100.43975,5.68865 100.26025,5.50965 100.03975,5.50965 L97.05475,5.50965 C96.83375,5.50965 96.65475,5.68865 96.65475,5.90965 L96.65475,8.71615 L96.65475,14.67415 C96.65475,16.20765 95.41775,17.45065 93.89175,17.45065 C92.36625,17.45065 91.12925,16.20765 91.12925,14.67415 L91.12925,8.71615 L91.12925,5.90965 C91.12925,5.68865 90.95025,5.50965 90.72925,5.50965 L87.74425,5.50965 C87.52375,5.50965 87.34425,5.68865 87.34425,5.90965 L87.34425,14.67415 C87.34425,18.30765 90.27625,21.25315 93.89175,21.25315" id="Fill-13" fill="#FFFFFF"></path>
            <g transform="translate(0.000000, 0.095400)">
                <mask id="mask-4" fill="white">
                    <use xlink:href="#path-3"></use>
                </mask>
                <g id="Clip-16"></g>
                <path d="M14.5358,14.22855 L9.5013,17.13505 C9.3773,17.20705 9.2243,17.20705 9.1008,17.13505 L4.0663,14.22855 C3.9423,14.15705 3.8658,14.02505 3.8658,13.88205 L3.8658,8.06855 C3.8658,7.92555 3.9423,7.79305 4.0663,7.72155 L9.1008,4.81455 C9.2243,4.74355 9.3773,4.74355 9.5013,4.81455 L14.5358,7.72155 C14.6593,7.79305 14.7358,7.92555 14.7358,8.06855 L14.7358,13.88205 C14.7358,14.02505 14.6593,14.15705 14.5358,14.22855 M8.7543,0.55105 L0.5463,5.28955 C0.2083,5.48505 0.0003,5.84605 0.0003,6.23655 L0.0003,15.71355 C0.0003,16.10405 0.2083,16.46505 0.5463,16.66055 L8.7543,21.39905 C9.0923,21.59405 9.5088,21.59405 9.8473,21.39905 L18.0548,16.66055 C18.3933,16.46505 18.6018,16.10405 18.6018,15.71355 L18.6018,6.23655 C18.6018,5.84605 18.3933,5.48505 18.0548,5.28955 L9.8473,0.55105 C9.5088,0.35555 9.0923,0.35555 8.7543,0.55105" id="Fill-15" fill="#FFFFFF" mask="url(#mask-4)"></path>
            </g>
            <path d="M113.2145,10.3691 C114.005,9.5891 114.995,9.1991 116.1835,9.1991 C117.4005,9.1991 118.399,9.5846 119.181,10.3556 C119.444,10.6151 119.6545,10.9056 119.8255,11.2196 C119.8955,11.3491 119.8,11.5071 119.653,11.5071 L112.7455,11.5071 C112.5975,11.5071 112.5015,11.3476 112.574,11.2181 C112.7445,10.9116 112.954,10.6261 113.2145,10.3691 M119.1605,16.3881 C118.365,17.1716 117.368,17.5636 116.17,17.5636 C114.972,17.5636 113.9815,17.1766 113.201,16.4006 C112.727,15.9311 112.4085,15.3676 112.2245,14.7216 C112.1885,14.5956 112.2805,14.4696 112.4115,14.4696 L115.3785,14.4696 L120.2155,14.4696 L123.66,14.4696 C123.8605,14.4696 124.0275,14.3161 124.046,14.1166 C124.069,13.8696 124.0815,13.6201 124.0815,13.3676 C124.0815,11.9496 123.7315,10.6296 123.03,9.4071 C122.3295,8.1836 121.3545,7.2161 120.105,6.5021 C118.855,5.7891 117.5205,5.4321 116.101,5.4321 C114.1375,5.4321 112.399,6.1181 110.887,7.4886 C109.162,9.0636 108.3,11.0326 108.3,13.3956 C108.3,15.5996 109.063,17.4736 110.589,19.0161 C112.115,20.5586 113.957,21.3306 116.1145,21.3306 C117.5805,21.3306 118.923,20.9806 120.14,20.2811 C121.1265,19.7136 121.935,18.9576 122.584,18.0326 C122.6705,17.9086 122.62,17.7356 122.482,17.6736 C122.482,17.6736 119.589,16.3686 119.457,16.3091 C119.3195,16.2471 119.209,16.3396 119.1605,16.3881" id="Fill-17" fill="#FFFFFF"></path>
        </g>
    </g>
</svg>