<?xml version="1.0" standalone="no"?><!DOCTYPE svg PUBLIC "-//W3C//DTD SVG 1.1//EN" "http://www.w3.org/Graphics/SVG/1.1/DTD/svg11.dtd"><svg t="1649317322795" class="icon" viewBox="0 0 1024 1024" version="1.1" xmlns="http://www.w3.org/2000/svg" p-id="10419" width="16" height="16" xmlns:xlink="http://www.w3.org/1999/xlink"><defs><style type="text/css">@font-face { font-family: feedback-iconfont; src: url("//at.alicdn.com/t/font_1031158_u69w8yhxdu.woff2?t=1630033759944") format("woff2"), url("//at.alicdn.com/t/font_1031158_u69w8yhxdu.woff?t=1630033759944") format("woff"), url("//at.alicdn.com/t/font_1031158_u69w8yhxdu.ttf?t=1630033759944") format("truetype"); }
</style></defs><path d="M682.666667 785.066667c-6.468267 0-12.373333-3.652267-15.274667-9.437867l-74.752-149.486933-68.590933 68.590933a17.0496 17.0496 0 1 1-24.132267-24.132267l68.7616-68.7616-147.2512-75.502933a17.083733 17.083733 0 0 1 0.119467-30.446933l146.9952-73.8816-68.625067-68.625067a17.0496 17.0496 0 1 1 24.132267-24.132267l68.590933 68.590934 74.752-149.486934c5.802667-11.5712 24.7296-11.5712 30.532267 0l74.752 149.486934 68.590933-68.590934a17.0496 17.0496 0 1 1 24.132267 24.132267l-68.590934 68.590933 149.486934 74.734934a17.134933 17.134933 0 0 1 0 30.5664l-149.486934 74.752 68.590934 68.590933a17.0496 17.0496 0 1 1-24.132267 24.132267l-68.590933-68.590934-74.752 149.486934A17.066667 17.066667 0 0 1 682.666667 785.066667z m-69.888-195.0208L682.666667 729.838933l69.888-139.776a17.186133 17.186133 0 0 1 8.157866-8.157866L900.5056 512l-140.066133-70.0416-0.477867-0.256a17.015467 17.015467 0 0 1-7.287467-7.560533L682.666667 294.161067l-69.9904 139.9808a16.913067 16.913067 0 0 1-7.236267 7.5264l-0.529067 0.273066-137.984 69.341867 137.8304 70.673067a17.237333 17.237333 0 0 1 8.021334 8.0896zM341.333333 614.4H170.666667a17.066667 17.066667 0 1 1 0-34.133333h170.666666a17.066667 17.066667 0 1 1 0 34.133333z m-85.333333-85.333333H85.333333a17.066667 17.066667 0 1 1 0-34.133334h170.666667a17.066667 17.066667 0 0 1 0 34.133334z m85.333333-85.333334H170.666667a17.066667 17.066667 0 0 1 0-34.133333h170.666666a17.066667 17.066667 0 0 1 0 34.133333z" p-id="10420" fill="#ffffff"></path></svg>