<svg xmlns="http://www.w3.org/2000/svg" viewBox="0 0 358.63 86.26"><defs><style>.cls-1{fill:none;stroke:#b2b2b2;stroke-miterlimit:10;stroke-width:0.61px;}.cls-2{fill:#fff;}</style></defs><g id="图层_2" data-name="图层 2"><g id="图层_1-2" data-name="图层 1"><rect class="cls-1" x="0.31" y="0.31" width="358.02" height="85.65"/><path d="M72.43,9.41,45,25.24a2.39,2.39,0,0,0-1.18,2.06V59A2.39,2.39,0,0,0,45,61L72.43,76.85a2.41,2.41,0,0,0,2.38,0L102.23,61A2.39,2.39,0,0,0,103.41,59V27.3a2.39,2.39,0,0,0-1.18-2.06L74.81,9.41A2.41,2.41,0,0,0,72.43,9.41Z"/><path class="cls-2" d="M94.72,31.61c-2.49-.64-5.48,0-6.81,1.4s-.57,3.35,2,4.17,6.06.18,7.38-1.48S97.33,32.28,94.72,31.61Z"/><path class="cls-2" d="M78.74,50.51a7.53,7.53,0,0,0-8.42,1.61c-2.16,2.32-1.92,5.58.77,7.26a7.35,7.35,0,0,0,9.28-1.73A4.52,4.52,0,0,0,78.74,50.51Z"/><path class="cls-2" d="M83.92,28.82a7.57,7.57,0,0,0-3.75.08,7.07,7.07,0,0,1-2.91-.09,2.27,2.27,0,0,1-1.62-1.18,1.22,1.22,0,0,0-.06-.26s0,0,0,0h0a2,2,0,0,0-1.49-1.06H74a6.1,6.1,0,0,0-2.92-.1c-2.17.4-3.76,1.65-3.55,2.79a5.1,5.1,0,0,1,0,.64,2.7,2.7,0,0,1-1.09,1.52,5.11,5.11,0,0,1-2,1,7.29,7.29,0,0,1-1.2.16,13.86,13.86,0,0,0-1.72.1,3.56,3.56,0,0,0-1.94,1A2.34,2.34,0,0,0,59,35.23a4.66,4.66,0,0,1,.05.76h0a3.36,3.36,0,0,1-1.44,2.24,7.76,7.76,0,0,1-3.31,1.52h0a8.19,8.19,0,0,0-3.58,1.58c-2.07,1.61-2.55,3.74-.94,4.75a5.05,5.05,0,0,0,3.85.25,4.85,4.85,0,0,1,3.14.44,2.68,2.68,0,0,1,1.09,1.1,2.31,2.31,0,0,1,.2.59,2.73,2.73,0,0,1,0,.48h0a3,3,0,0,0,1.37,3.18c2.19,1.36,5.87.65,8-1.56s1.81-4.66-.39-5.73a6.11,6.11,0,0,0-4.22-.23,5.4,5.4,0,0,1-3.2-.4,2.19,2.19,0,0,1-1.31-2,4.3,4.3,0,0,1,.26-1A6,6,0,0,1,60,39.32a5.81,5.81,0,0,1,2.71-1.44,12.25,12.25,0,0,1,1.24-.26,6.58,6.58,0,0,1,3,.24c.86.36,1.49.92,1.54,1.63a2.74,2.74,0,0,0,1.72,2.42,7.06,7.06,0,0,0,7.23-1.45c1.65-1.68,1.1-3.65-1.08-4.42a7,7,0,0,0-4,0,6,6,0,0,1-3-.22c-.9-.33-1.48-.87-1.51-1.51A3.42,3.42,0,0,1,68.9,31.9a7.27,7.27,0,0,1,2.39-1.21,7.45,7.45,0,0,1,1.13-.26,7.34,7.34,0,0,1,2.86.11c.86.26,1.64.73,1.67,1.25a2.44,2.44,0,0,0,1.91,1.86,7.15,7.15,0,0,0,6.58-1.35C86.79,30.92,86.05,29.38,83.92,28.82Z"/><path d="M269.66,28.15H274a.57.57,0,0,1,.57.56v28.7A.57.57,0,0,1,274,58h-4.38a.56.56,0,0,1-.56-.57V28.71A.56.56,0,0,1,269.66,28.15Z"/><path d="M245.17,33.14V28.72a.57.57,0,0,0-.57-.57H226.43a.56.56,0,0,0-.57.57V57.41a.57.57,0,0,0,.57.57H244.6a.58.58,0,0,0,.57-.57V53a.58.58,0,0,0-.57-.57H232.3a.57.57,0,0,1-.57-.57V45.12a.58.58,0,0,1,.57-.57h11.08A.56.56,0,0,0,244,44V39.67a.56.56,0,0,0-.57-.57H232.3a.58.58,0,0,1-.57-.57V34.27a.58.58,0,0,1,.57-.57h12.3A.57.57,0,0,0,245.17,33.14Z"/><path d="M313.27,35.62a9,9,0,0,0-4.42,2.24.07.07,0,0,1-.12,0V35.53a.57.57,0,0,0-.57-.56h-4.07a.56.56,0,0,0-.57.56v22a.56.56,0,0,0,.57.56h4.07a.57.57,0,0,0,.57-.56v-5.4c0-.27,0-4.34,0-5.7A4.58,4.58,0,0,1,310,42.94a7.54,7.54,0,0,1,4.51-2.51c.11,0,.33-.07.33-.36V35.75a.29.29,0,0,0-.3-.29A10.52,10.52,0,0,0,313.27,35.62Z"/><path d="M172.87,40.79a11.29,11.29,0,0,0-4.27-4.24A11.59,11.59,0,0,0,162.76,35a10.81,10.81,0,0,0-6.24,1.93.29.29,0,0,1-.45-.24V36.2a.56.56,0,0,0-.56-.56h-4.34a.56.56,0,0,0-.56.56v29a.56.56,0,0,0,.56.56h4.34a.56.56,0,0,0,.56-.56V56.52a.27.27,0,0,1,.43-.22,10.92,10.92,0,0,0,6.28,1.89,11.62,11.62,0,0,0,5.88-1.53,11.21,11.21,0,0,0,4.2-4.25,11.63,11.63,0,0,0,1.55-5.84A11.37,11.37,0,0,0,172.87,40.79ZM167.23,51a6,6,0,0,1-4.37,1.71A5.89,5.89,0,0,1,158.53,51a6,6,0,0,1-1.71-4.44,5.88,5.88,0,0,1,6.06-6.07,6,6,0,0,1,4.38,1.69A5.87,5.87,0,0,1,169,46.56,5.94,5.94,0,0,1,167.23,51Z"/><path d="M193.1,50.88a6,6,0,0,1-4.36,1.71,5.89,5.89,0,0,1-4.33-1.69A5.58,5.58,0,0,1,183,48.45a.29.29,0,0,1,.28-.37h16.41a.56.56,0,0,0,.56-.52,9.82,9.82,0,0,0,.06-1.09,11.47,11.47,0,0,0-1.54-5.78,11.29,11.29,0,0,0-4.27-4.24,11.59,11.59,0,0,0-5.84-1.56,11,11,0,0,0-7.61,3,11.74,11.74,0,0,0-.43,16.82,10.88,10.88,0,0,0,8.06,3.38,11.55,11.55,0,0,0,5.87-1.53,11.1,11.1,0,0,0,3.57-3.28.35.35,0,0,0-.15-.52l-4.41-2A.4.4,0,0,0,193.1,50.88Zm-8.67-8.78a6.42,6.42,0,0,1,8.7,0,4.93,4.93,0,0,1,.94,1.26.28.28,0,0,1-.25.42H183.74a.29.29,0,0,1-.25-.42A5.34,5.34,0,0,1,184.43,42.1Z"/><path d="M213.2,35a9.57,9.57,0,0,0-9.56,9.6V57.4a.58.58,0,0,0,.58.58h4.37a.58.58,0,0,0,.58-.58V44.61a4,4,0,1,1,8.06,0V57.4a.58.58,0,0,0,.58.58h4.37a.58.58,0,0,0,.57-.58V44.61A9.57,9.57,0,0,0,213.2,35Z"/><path d="M256.52,58a9.58,9.58,0,0,0,9.55-9.6V35.59a.58.58,0,0,0-.58-.58h-4.36a.58.58,0,0,0-.58.58V48.38a4,4,0,1,1-8.06,0V35.59a.59.59,0,0,0-.59-.58h-4.35a.58.58,0,0,0-.59.58V48.38A9.58,9.58,0,0,0,256.52,58Z"/><path d="M132.29,27.91l-12,6.91a1.63,1.63,0,0,0-.8,1.39V50a1.63,1.63,0,0,0,.8,1.39l12,6.91a1.56,1.56,0,0,0,1.59,0l12-6.91a1.63,1.63,0,0,0,.8-1.39V36.21a1.63,1.63,0,0,0-.8-1.39l-12-6.91A1.61,1.61,0,0,0,132.29,27.91Zm8.43,20-7.34,4.24a.62.62,0,0,1-.59,0l-7.34-4.24a.61.61,0,0,1-.3-.51V38.88a.61.61,0,0,1,.3-.51l7.34-4.24a.62.62,0,0,1,.59,0l7.34,4.24a.61.61,0,0,1,.3.51v8.48A.61.61,0,0,1,140.72,47.87Z"/><path d="M293.39,50.88A6,6,0,0,1,289,52.59a5.89,5.89,0,0,1-4.33-1.69,5.47,5.47,0,0,1-1.42-2.45.28.28,0,0,1,.27-.37H300a.57.57,0,0,0,.57-.52c0-.36.05-.72.05-1.09a11.5,11.5,0,0,0-5.8-10,11.65,11.65,0,0,0-5.85-1.56,11,11,0,0,0-7.61,3,11.74,11.74,0,0,0-.43,16.82,10.89,10.89,0,0,0,8.06,3.38,11.62,11.62,0,0,0,5.88-1.53,11,11,0,0,0,3.56-3.28.35.35,0,0,0-.15-.52l-4.41-2A.38.38,0,0,0,293.39,50.88Zm-8.68-8.78a6.43,6.43,0,0,1,8.71,0,5.45,5.45,0,0,1,.94,1.26.29.29,0,0,1-.25.42H284a.28.28,0,0,1-.25-.42A5.3,5.3,0,0,1,284.71,42.1Z"/></g></g></svg>