<svg xmlns="http://www.w3.org/2000/svg" viewBox="0 0 358.02 85.65"><defs><style>.cls-1{fill:#fff;}</style></defs><g id="图层_2" data-name="图层 2"><g id="图层_1-2" data-name="图层 1"><rect width="358.02" height="85.65"/><path class="cls-1" d="M72.13,9.11,44.71,24.94a2.36,2.36,0,0,0-1.19,2V58.66a2.36,2.36,0,0,0,1.19,2.05L72.13,76.54a2.34,2.34,0,0,0,2.37,0l27.42-15.83a2.36,2.36,0,0,0,1.19-2.05V27a2.36,2.36,0,0,0-1.19-2L74.5,9.11A2.34,2.34,0,0,0,72.13,9.11Z"/><path d="M94.42,31.31c-2.49-.65-5.48,0-6.82,1.39s-.56,3.35,2,4.17,6.06.18,7.37-1.48S97,32,94.42,31.31Z"/><path d="M78.43,50.2A7.53,7.53,0,0,0,70,51.82c-2.17,2.31-1.93,5.57.76,7.25a7.36,7.36,0,0,0,9.28-1.72A4.52,4.52,0,0,0,78.43,50.2Z"/><path d="M83.61,28.52a7.65,7.65,0,0,0-3.74.07A6.89,6.89,0,0,1,77,28.5a2.19,2.19,0,0,1-1.62-1.17,2,2,0,0,0-.07-.26v0h0A2,2,0,0,0,73.77,26l-.09,0a6.23,6.23,0,0,0-2.92-.1c-2.17.4-3.76,1.65-3.55,2.79,0,.06,0,.54,0,.64a2.74,2.74,0,0,1-1.1,1.53,5.23,5.23,0,0,1-2,1,7.14,7.14,0,0,1-1.2.16,12.16,12.16,0,0,0-1.71.11,3.52,3.52,0,0,0-1.94,1,2.32,2.32,0,0,0-.54,1.85,3.6,3.6,0,0,1,.05.75h0a3.44,3.44,0,0,1-1.45,2.24A8,8,0,0,1,54,39.45h0A8.25,8.25,0,0,0,50.43,41c-2.06,1.61-2.54,3.74-.93,4.74a5,5,0,0,0,3.84.25,4.88,4.88,0,0,1,3.15.44,2.67,2.67,0,0,1,1.08,1.11,1.91,1.91,0,0,1,.2.59,2.67,2.67,0,0,1,0,.48h0a3,3,0,0,0,1.37,3.18c2.18,1.36,5.86.66,8-1.55s1.81-4.67-.39-5.74a6.2,6.2,0,0,0-4.23-.23,5.26,5.26,0,0,1-3.2-.4,2.14,2.14,0,0,1-1.3-2,3.75,3.75,0,0,1,.25-1A6.11,6.11,0,0,1,59.67,39a5.93,5.93,0,0,1,2.72-1.44,12.19,12.19,0,0,1,1.23-.26,6.44,6.44,0,0,1,3,.25c.86.35,1.5.92,1.55,1.62a2.73,2.73,0,0,0,1.71,2.43,7.1,7.1,0,0,0,7.23-1.45c1.66-1.69,1.11-3.66-1.08-4.43a7,7,0,0,0-4,0A6.19,6.19,0,0,1,69,35.47c-.89-.34-1.48-.88-1.51-1.52a3.4,3.4,0,0,1,1.09-2.36A7,7,0,0,1,71,30.39a6.62,6.62,0,0,1,1.13-.26,7,7,0,0,1,2.87.11c.86.25,1.64.73,1.66,1.24,0,.68.71,1.48,1.91,1.87A7.15,7.15,0,0,0,85.13,32C86.48,30.61,85.75,29.07,83.61,28.52Z"/><path class="cls-1" d="M269.36,27.84h4.37a.57.57,0,0,1,.57.57v28.7a.56.56,0,0,1-.57.56h-4.37a.56.56,0,0,1-.57-.56V28.41A.57.57,0,0,1,269.36,27.84Z"/><path class="cls-1" d="M244.86,32.83V28.41a.57.57,0,0,0-.57-.57H226.12a.58.58,0,0,0-.57.57V57.1a.57.57,0,0,0,.57.57h18.17a.56.56,0,0,0,.57-.57V52.66a.56.56,0,0,0-.57-.56H232a.57.57,0,0,1-.57-.57V44.82a.56.56,0,0,1,.57-.57h11.08a.58.58,0,0,0,.57-.57V39.36a.58.58,0,0,0-.57-.57H232a.56.56,0,0,1-.57-.57V34a.56.56,0,0,1,.57-.57h12.29A.57.57,0,0,0,244.86,32.83Z"/><path class="cls-1" d="M313,35.31a9,9,0,0,0-4.41,2.24.07.07,0,0,1-.13,0V35.23a.56.56,0,0,0-.57-.57h-4.07a.57.57,0,0,0-.57.57v22a.58.58,0,0,0,.57.57h4.07a.57.57,0,0,0,.57-.57v-5.4c0-.27,0-4.33,0-5.7a4.63,4.63,0,0,1,1.24-3.49,7.6,7.6,0,0,1,4.52-2.51.33.33,0,0,0,.32-.35V35.44a.29.29,0,0,0-.3-.29A10.79,10.79,0,0,0,313,35.31Z"/><path class="cls-1" d="M172.57,40.49a11.29,11.29,0,0,0-4.27-4.24,11.62,11.62,0,0,0-5.84-1.56,10.78,10.78,0,0,0-6.24,1.92.29.29,0,0,1-.45-.24V35.9a.57.57,0,0,0-.56-.57h-4.35a.57.57,0,0,0-.56.57v29a.56.56,0,0,0,.56.56h4.35a.56.56,0,0,0,.56-.56V56.22a.28.28,0,0,1,.43-.23,10.81,10.81,0,0,0,6.28,1.9,11.62,11.62,0,0,0,5.87-1.54,11.2,11.2,0,0,0,4.21-4.24,11.65,11.65,0,0,0,1.54-5.84A11.44,11.44,0,0,0,172.57,40.49Zm-5.65,10.18a6.05,6.05,0,0,1-10.41-4.41,5.88,5.88,0,0,1,6.07-6.08A6,6,0,0,1,167,41.87a6.47,6.47,0,0,1,0,8.8Z"/><path class="cls-1" d="M192.8,50.57a6.39,6.39,0,0,1-8.7,0,5.51,5.51,0,0,1-1.42-2.45.29.29,0,0,1,.27-.37h16.41a.57.57,0,0,0,.57-.51c0-.36,0-.73,0-1.09a11.35,11.35,0,0,0-1.54-5.78,11.19,11.19,0,0,0-4.26-4.24,11.63,11.63,0,0,0-5.85-1.56,11,11,0,0,0-7.6,3,11.73,11.73,0,0,0-.44,16.82,11,11,0,0,0,8.06,3.38,11.63,11.63,0,0,0,5.88-1.54A10.86,10.86,0,0,0,197.79,53a.35.35,0,0,0-.14-.52l-4.42-2A.38.38,0,0,0,192.8,50.57Zm-8.68-8.78a5.93,5.93,0,0,1,4.33-1.71,6,6,0,0,1,4.38,1.69,5.45,5.45,0,0,1,.94,1.26.29.29,0,0,1-.25.42H183.44a.28.28,0,0,1-.25-.42A5.51,5.51,0,0,1,184.12,41.79Z"/><path class="cls-1" d="M212.89,34.7a9.58,9.58,0,0,0-9.55,9.6V57.1a.58.58,0,0,0,.58.57h4.36a.58.58,0,0,0,.58-.57V44.3a4,4,0,1,1,8.06,0V57.1a.58.58,0,0,0,.58.57h4.37a.58.58,0,0,0,.58-.57V44.3A9.58,9.58,0,0,0,212.89,34.7Z"/><path class="cls-1" d="M256.21,57.67a9.57,9.57,0,0,0,9.55-9.6V35.28a.58.58,0,0,0-.58-.58h-4.35a.58.58,0,0,0-.59.58V48.07a4,4,0,1,1-8.06,0V35.28a.58.58,0,0,0-.58-.58h-4.36a.58.58,0,0,0-.58.58V48.07A9.57,9.57,0,0,0,256.21,57.67Z"/><path class="cls-1" d="M132,27.6l-12,6.92a1.58,1.58,0,0,0-.8,1.38V49.73a1.59,1.59,0,0,0,.8,1.38L132,58a1.58,1.58,0,0,0,1.6,0l12-6.91a1.59,1.59,0,0,0,.8-1.38V35.9a1.58,1.58,0,0,0-.8-1.38l-12-6.92A1.63,1.63,0,0,0,132,27.6Zm8.44,20-7.35,4.24a.55.55,0,0,1-.58,0l-7.35-4.24a.58.58,0,0,1-.29-.5V38.57a.57.57,0,0,1,.29-.5l7.35-4.24a.55.55,0,0,1,.58,0l7.35,4.24a.57.57,0,0,1,.29.5v8.49A.58.58,0,0,1,140.42,47.56Z"/><path class="cls-1" d="M293.08,50.57a6.39,6.39,0,0,1-8.7,0A5.51,5.51,0,0,1,283,48.14a.29.29,0,0,1,.27-.37h16.42a.56.56,0,0,0,.56-.51c0-.36.05-.73.05-1.09a11.44,11.44,0,0,0-1.53-5.78,11.22,11.22,0,0,0-4.27-4.24,11.59,11.59,0,0,0-5.84-1.56,11,11,0,0,0-7.61,3,11.73,11.73,0,0,0-.44,16.82,11,11,0,0,0,8.07,3.38,11.59,11.59,0,0,0,5.87-1.54A11,11,0,0,0,298.08,53a.36.36,0,0,0-.15-.52s-4.22-1.91-4.42-2A.38.38,0,0,0,293.08,50.57Zm-8.68-8.78a6.43,6.43,0,0,1,8.71,0,5.45,5.45,0,0,1,.94,1.26.29.29,0,0,1-.25.42H283.72a.28.28,0,0,1-.25-.42A5.51,5.51,0,0,1,284.4,41.79Z"/></g></g></svg>