<svg xmlns="http://www.w3.org/2000/svg" viewBox="0 0 199.99 78.71"><defs><style>.cls-1{fill:#3f3f3f;}.cls-2{fill:#fff;}</style></defs><g id="图层_2" data-name="图层 2"><g id="Layer_1" data-name="Layer 1"><rect class="cls-1" width="199.99" height="78.71"/><path class="cls-2" d="M76.44,53.78a5.36,5.36,0,0,1-2.21-2.19,7.26,7.26,0,0,1-.8-3.54,7.83,7.83,0,0,1,.8-3.65,5.65,5.65,0,0,1,2.24-2.35,6.56,6.56,0,0,1,3.3-.81A6.42,6.42,0,0,1,83,42a5.51,5.51,0,0,1,2.18,2.3A7.72,7.72,0,0,1,86,47.92a7.41,7.41,0,0,1-.81,3.59,5.46,5.46,0,0,1-2.25,2.24,6.84,6.84,0,0,1-3.28.76A6.74,6.74,0,0,1,76.44,53.78Zm6-5.73a6,6,0,0,0-.69-3.16,2.54,2.54,0,0,0-4.2,0,5.94,5.94,0,0,0-.69,3.1,5,5,0,0,0,.75,2.94,2.5,2.5,0,0,0,2.16,1Q82.47,52,82.47,48.05Z"/><path class="cls-2" d="M87.47,44.64c0-1,0-2-.1-3.15h3.24a9.94,9.94,0,0,1,.23,1.65,6.12,6.12,0,0,1,1.71-1.39,4.47,4.47,0,0,1,2.13-.51,4.38,4.38,0,0,1,4.12,2.67,8.12,8.12,0,0,1,.67,3.5,8.7,8.7,0,0,1-.8,3.89,5.54,5.54,0,0,1-2.21,2.42,6.21,6.21,0,0,1-3.21.82,8.2,8.2,0,0,1-2.38-.39v5.21l-3.4.25Zm7.7,6.28a5.47,5.47,0,0,0,.83-3.3,4.74,4.74,0,0,0-.66-2.83,2.12,2.12,0,0,0-1.78-.88,2.78,2.78,0,0,0-1.4.36,5.93,5.93,0,0,0-1.29,1v6.37a3.66,3.66,0,0,0,.9.29,4.6,4.6,0,0,0,1,.11A2.76,2.76,0,0,0,95.17,50.92Z"/><path class="cls-2" d="M111.82,48.45h-8.25a3.93,3.93,0,0,0,1.07,2.67,3.63,3.63,0,0,0,2.52.83,8.68,8.68,0,0,0,1.85-.21,12.57,12.57,0,0,0,1.83-.58l.74,2.29a11.55,11.55,0,0,1-5,1.06,6.44,6.44,0,0,1-4.82-1.68,6.55,6.55,0,0,1-1.64-4.76,8.18,8.18,0,0,1,.77-3.67A5.46,5.46,0,0,1,103,42.05a6.1,6.1,0,0,1,3.17-.81,5.4,5.4,0,0,1,3.14.87,5.24,5.24,0,0,1,1.87,2.33,8.51,8.51,0,0,1,.6,3.25Zm-3.28-2.07a3.3,3.3,0,0,0-.69-2.06,2.14,2.14,0,0,0-1.66-.69,2.25,2.25,0,0,0-1.68.68,3.75,3.75,0,0,0-.88,2.07Z"/><path class="cls-2" d="M113.33,44.73q0-1.78-.09-3.24h3.21c0,.26.1.59.14,1s.07.73.09,1a11.14,11.14,0,0,1,1.15-1.14A4.76,4.76,0,0,1,121,41.24a4,4,0,0,1,2.14.55,3.51,3.51,0,0,1,1.38,1.64,6.48,6.48,0,0,1,.49,2.64v8.21h-3.37v-8a3,3,0,0,0-.46-1.82,1.69,1.69,0,0,0-1.4-.59,3.16,3.16,0,0,0-1.59.43,7.08,7.08,0,0,0-1.43,1.17v8.77h-3.4Z"/><path class="cls-2" d="M127.81,37.16h9.39l-.28,1.3h-7.67v6.3h7.28v1.29h-7.28V53h8L137,54.28h-9.23Z"/><path class="cls-2" d="M141.39,53.31a5.85,5.85,0,0,1-.93-3.62v-8h1.38v8a4.44,4.44,0,0,0,.7,2.78,2.46,2.46,0,0,0,2,.88,4.54,4.54,0,0,0,2.31-.65,8.23,8.23,0,0,0,2-1.6V41.64h1.4v9.45c0,.88,0,1.94.1,3.19h-1.21c-.06-.31-.14-1-.24-1.94a10.2,10.2,0,0,1-2.13,1.58,5.27,5.27,0,0,1-2.5.59A3.42,3.42,0,0,1,141.39,53.31Z"/><path class="cls-2" d="M155.19,53.8a3.14,3.14,0,0,1-.59-2.09V36.15l1.41-.24V51.49a2.71,2.71,0,0,0,.26,1.37,1.07,1.07,0,0,0,1,.4,2.24,2.24,0,0,0,.61-.11l.21,1.16a2.44,2.44,0,0,1-.56.13,4.26,4.26,0,0,1-.58.05A2.15,2.15,0,0,1,155.19,53.8Z"/><path class="cls-2" d="M161.35,47.72V48a6,6,0,0,0,1.17,4,4.27,4.27,0,0,0,3.41,1.37,7.84,7.84,0,0,0,1.87-.22,8.16,8.16,0,0,0,1.7-.62l.36,1.07a8.72,8.72,0,0,1-1.87.71,9.59,9.59,0,0,1-2.34.25,6,6,0,0,1-3.13-.76,4.93,4.93,0,0,1-1.94-2.23,8.38,8.38,0,0,1-.66-3.48,8.65,8.65,0,0,1,.67-3.57,5.19,5.19,0,0,1,1.88-2.29,5.1,5.1,0,0,1,2.81-.79,4.48,4.48,0,0,1,2.7.8,4.61,4.61,0,0,1,1.6,2.06A7.26,7.26,0,0,1,170.1,47v.7Zm1.33-4.15a5.25,5.25,0,0,0-1.25,3h7.22a5,5,0,0,0-1-3,3,3,0,0,0-2.42-1A3.33,3.33,0,0,0,162.68,43.57Z"/><path class="cls-2" d="M173.57,44.86q0-.72,0-1.59c0-.57,0-1,0-1.13l0-.5h1.26c.05.34.09.75.13,1.22s.06.88.07,1.22a13.87,13.87,0,0,1,1.1-1.45,4.13,4.13,0,0,1,1.15-.89,3.2,3.2,0,0,1,1.51-.35,4,4,0,0,1,1.15.17l-.23,1.26a4.11,4.11,0,0,0-1-.13,2.84,2.84,0,0,0-1.31.3,4.12,4.12,0,0,0-1.14.87A13.8,13.8,0,0,0,175,45.4v8.88h-1.4Z"/><path class="cls-2" d="M51.67,20.67a5.83,5.83,0,0,0-1.59-.18,8.2,8.2,0,0,0-1.7.19,9.06,9.06,0,0,0-1.65.52,6.9,6.9,0,0,0-1.4.83,4.19,4.19,0,0,0-.57.53,2.89,2.89,0,0,0-.37.54,1.67,1.67,0,0,0-.19.54,1.3,1.3,0,0,0,0,.52h0a1.46,1.46,0,0,1,0,.51,1.91,1.91,0,0,1-.18.54,4.08,4.08,0,0,1-.37.55,5,5,0,0,1-.57.54,5.41,5.41,0,0,1-.72.5,9.19,9.19,0,0,1-.83.42q-.43.18-.9.33c-.31.09-.63.17-1,.23h0a8.24,8.24,0,0,0-1,.24,9.94,9.94,0,0,0-1,.35,8.6,8.6,0,0,0-.91.46,8,8,0,0,0-.83.56,5.54,5.54,0,0,0-.7.65,4.1,4.1,0,0,0-.5.66,3.36,3.36,0,0,0-.3.68,2.48,2.48,0,0,0-.09.65,2,2,0,0,1-.11.63,2.65,2.65,0,0,1-.29.65,4.17,4.17,0,0,1-.49.66,6.06,6.06,0,0,1-.68.65,7.34,7.34,0,0,1-.86.6,8.67,8.67,0,0,1-1,.49,7.35,7.35,0,0,1-1,.38,9.3,9.3,0,0,1-1,.26h0a8.61,8.61,0,0,0-1.09.26A9,9,0,0,0,26.8,37a10.56,10.56,0,0,0-1.06.54,9.86,9.86,0,0,0-1,.69,7.5,7.5,0,0,0-1.45,1.49,4.52,4.52,0,0,0-.73,1.55,2.62,2.62,0,0,0,.07,1.45,2.42,2.42,0,0,0,1,1.14,3.78,3.78,0,0,0,.84.38,5.21,5.21,0,0,0,1,.18,6.73,6.73,0,0,0,1.1,0,9.5,9.5,0,0,0,1.17-.19l0,0a7.88,7.88,0,0,1,1.15-.19,6.65,6.65,0,0,1,1.09,0,4.45,4.45,0,0,1,1,.17,4.06,4.06,0,0,1,.88.36,3.21,3.21,0,0,1,.69.55,3,3,0,0,1,.46.71,3.07,3.07,0,0,1,.23.83,4.15,4.15,0,0,1,0,.93l0,0a3.74,3.74,0,0,0,0,1,3.43,3.43,0,0,0,.26.95,3.38,3.38,0,0,0,.54.85,3.94,3.94,0,0,0,.84.71,5.24,5.24,0,0,0,2.15.74,7.51,7.51,0,0,0,2.53-.11A9.08,9.08,0,0,0,42,50.83a8.56,8.56,0,0,0,2.15-1.62,6.21,6.21,0,0,0,1.32-2,4.24,4.24,0,0,0,.32-1.94,3.36,3.36,0,0,0-.61-1.67,3.9,3.9,0,0,0-1.46-1.2,5.27,5.27,0,0,0-1-.39,7.12,7.12,0,0,0-1.14-.17,8,8,0,0,0-1.2,0,8.41,8.41,0,0,0-1.22.21l0,0a8.37,8.37,0,0,1-1.17.19,7.08,7.08,0,0,1-1.12,0,6.4,6.4,0,0,1-1-.16,4.11,4.11,0,0,1-.89-.34,2.7,2.7,0,0,1-.6-.43,2,2,0,0,1-.43-.51,2.41,2.41,0,0,1-.26-.59,3.19,3.19,0,0,1-.09-.64,1.66,1.66,0,0,0,.06-.21c0-.07,0-.14,0-.21s0-.14,0-.21,0-.14,0-.21l0,0a3.3,3.3,0,0,1,.44-1.52,4.9,4.9,0,0,1,.51-.74,5.24,5.24,0,0,1,.71-.7,6.61,6.61,0,0,1,.85-.62,9.49,9.49,0,0,1,.95-.5c.32-.14.66-.27,1-.38a10,10,0,0,1,1.05-.25h0l.17,0,.17,0,.17,0,.18,0a8.62,8.62,0,0,1,1-.15,7.6,7.6,0,0,1,1,0,6.56,6.56,0,0,1,.89.11,5.41,5.41,0,0,1,.81.24,3.23,3.23,0,0,1,.71.41,2.38,2.38,0,0,1,.53.52,2.71,2.71,0,0,1,.33.63,2.47,2.47,0,0,1,.12.72l0,0a2.21,2.21,0,0,0,.13.76,2.5,2.5,0,0,0,.36.71,3.08,3.08,0,0,0,.62.63,4.53,4.53,0,0,0,.87.51,6.29,6.29,0,0,0,2.07.5,8.52,8.52,0,0,0,2.3-.16,8.7,8.7,0,0,0,2.2-.77,6.51,6.51,0,0,0,1.77-1.29,4,4,0,0,0,1-1.56,2.63,2.63,0,0,0,.06-1.49,2.74,2.74,0,0,0-.77-1.26,4.07,4.07,0,0,0-1.5-.89,5.89,5.89,0,0,0-1-.27,7.75,7.75,0,0,0-1.09-.1,8.17,8.17,0,0,0-1.1.05,9.89,9.89,0,0,0-1.11.2l0,0A9.83,9.83,0,0,1,49,32.1a9.16,9.16,0,0,1-1,0,6.13,6.13,0,0,1-1-.1,4.62,4.62,0,0,1-.87-.23,3.4,3.4,0,0,1-.66-.34,2.49,2.49,0,0,1-.48-.42,1.88,1.88,0,0,1-.32-.49,1.67,1.67,0,0,1-.15-.54,2.17,2.17,0,0,0,0-.36s0-.07,0-.11h0a2.08,2.08,0,0,1,0-.61,2.32,2.32,0,0,1,.19-.6,2.75,2.75,0,0,1,.38-.6,3.84,3.84,0,0,1,.57-.57,4.66,4.66,0,0,1,.72-.51,5.26,5.26,0,0,1,.82-.42,6.27,6.27,0,0,1,.89-.33,7.73,7.73,0,0,1,1-.23h0l.17,0,.16,0,.17,0,.16-.05c.3-.06.6-.11.9-.14a6.7,6.7,0,0,1,.89,0,6,6,0,0,1,.85.06,4.11,4.11,0,0,1,.79.17,3.71,3.71,0,0,1,.73.3,2.6,2.6,0,0,1,.55.4,2,2,0,0,1,.39.49,1.8,1.8,0,0,1,.21.56l0,0a2.19,2.19,0,0,0,.21.59,2.27,2.27,0,0,0,.44.55,3.43,3.43,0,0,0,.65.48,4.38,4.38,0,0,0,.87.37,7,7,0,0,0,2,.33,8.82,8.82,0,0,0,2.11-.19,8,8,0,0,0,2-.66,5.45,5.45,0,0,0,1.5-1.06,2.65,2.65,0,0,0,.72-1.25,1.83,1.83,0,0,0-.11-1.18,2.52,2.52,0,0,0-.86-1,4.63,4.63,0,0,0-1.5-.67,7.87,7.87,0,0,0-1-.18,6.9,6.9,0,0,0-1-.05,8.91,8.91,0,0,0-1,.07,8.36,8.36,0,0,0-1,.19l0,0c-.32.07-.64.13-1,.17a6.29,6.29,0,0,1-1,.07,7.08,7.08,0,0,1-.93,0,5.81,5.81,0,0,1-.85-.17,3.94,3.94,0,0,1-.66-.25,3.17,3.17,0,0,1-.51-.32,2.55,2.55,0,0,1-.36-.38,1.9,1.9,0,0,1-.21-.43,1.39,1.39,0,0,0-.14-.53,1.41,1.41,0,0,0-.36-.46,2.32,2.32,0,0,0-.55-.38,3.66,3.66,0,0,0-.75-.28"/><path class="cls-2" d="M75.53,27a8.87,8.87,0,0,0-2.23-.3,9.14,9.14,0,0,0-2.17.2,8,8,0,0,0-1.92.65,5,5,0,0,0-1.47,1.08A2.76,2.76,0,0,0,67,30a2.17,2.17,0,0,0,.16,1.37,3.36,3.36,0,0,0,1,1.25,6.05,6.05,0,0,0,1.85,1,9.08,9.08,0,0,0,2.38.42,9.7,9.7,0,0,0,2.42-.19A7.59,7.59,0,0,0,77,33a4.51,4.51,0,0,0,1.5-1.23A2.56,2.56,0,0,0,79,30.32a2.42,2.42,0,0,0-.41-1.38,4,4,0,0,0-1.22-1.16A6.61,6.61,0,0,0,75.53,27"/><path class="cls-2" d="M57.14,49a7.36,7.36,0,0,0-2.51-.71,8.24,8.24,0,0,0-2.62.13,9,9,0,0,0-2.49.9,8.2,8.2,0,0,0-2.11,1.65,6.63,6.63,0,0,0-1.35,2.17,5.47,5.47,0,0,0-.34,2.34,5.13,5.13,0,0,0,.72,2.26,5.79,5.79,0,0,0,1.84,1.85,7.09,7.09,0,0,0,2.7,1,8.54,8.54,0,0,0,3-.06,9,9,0,0,0,2.83-1.09,7.93,7.93,0,0,0,2.23-2A6.28,6.28,0,0,0,60.18,55a5.22,5.22,0,0,0-1.08-4.48,6.28,6.28,0,0,0-2-1.52"/></g></g></svg>