<svg xmlns="http://www.w3.org/2000/svg" viewBox="0 0 157.35 40.16"><defs><style>.cls-1{fill:#3f3f3f;}</style></defs><g id="图层_2" data-name="图层 2"><g id="Layer_1" data-name="Layer 1"><path class="cls-1" d="M54,33.3a5.3,5.3,0,0,1-2.21-2.19,7.31,7.31,0,0,1-.8-3.55,7.83,7.83,0,0,1,.8-3.65A5.65,5.65,0,0,1,54,21.56a6.56,6.56,0,0,1,3.3-.8,6.44,6.44,0,0,1,3.23.79,5.47,5.47,0,0,1,2.18,2.31,7.64,7.64,0,0,1,.78,3.57A7.38,7.38,0,0,1,62.66,31a5.42,5.42,0,0,1-2.25,2.25,7,7,0,0,1-3.28.76A6.84,6.84,0,0,1,54,33.3Zm6-5.74a5.88,5.88,0,0,0-.7-3.15,2.53,2.53,0,0,0-4.19,0,5.91,5.91,0,0,0-.69,3.1,4.94,4.94,0,0,0,.75,2.93,2.5,2.5,0,0,0,2.16,1Q60,31.49,60,27.56Z"/><path class="cls-1" d="M65,24.16c0-1,0-2-.1-3.16h3.24a10.07,10.07,0,0,1,.23,1.66,5.79,5.79,0,0,1,1.71-1.39,4.47,4.47,0,0,1,2.13-.51,4.53,4.53,0,0,1,2.37.64,4.6,4.6,0,0,1,1.75,2,8.09,8.09,0,0,1,.66,3.5,8.66,8.66,0,0,1-.79,3.88A5.69,5.69,0,0,1,74,33.24a6.33,6.33,0,0,1-3.21.81,8.15,8.15,0,0,1-2.38-.39v5.22l-3.4.24Zm7.7,6.28a5.54,5.54,0,0,0,.83-3.3,4.69,4.69,0,0,0-.67-2.84,2.13,2.13,0,0,0-1.78-.87,2.83,2.83,0,0,0-1.4.36,5.88,5.88,0,0,0-1.28,1v6.37a4.9,4.9,0,0,0,.89.29,5.35,5.35,0,0,0,1,.11A2.79,2.79,0,0,0,72.68,30.44Z"/><path class="cls-1" d="M89.33,28H81.08a3.91,3.91,0,0,0,1.07,2.67,3.61,3.61,0,0,0,2.51.82,8.54,8.54,0,0,0,1.85-.21,10.37,10.37,0,0,0,1.84-.58l.73,2.3a11.63,11.63,0,0,1-5,1.06,6.38,6.38,0,0,1-4.81-1.69,6.53,6.53,0,0,1-1.64-4.75,8.18,8.18,0,0,1,.77-3.67,5.52,5.52,0,0,1,2.14-2.36,6.16,6.16,0,0,1,3.18-.8,5.4,5.4,0,0,1,3.14.86A5.13,5.13,0,0,1,88.72,24a8.29,8.29,0,0,1,.61,3.25ZM86.05,25.9a3.33,3.33,0,0,0-.69-2.07,2.14,2.14,0,0,0-1.67-.69,2.22,2.22,0,0,0-1.67.69,3.71,3.71,0,0,0-.88,2.07Z"/><path class="cls-1" d="M90.84,24.24q0-1.78-.09-3.24H94c.05.26.1.59.14,1s.07.73.09,1a11.14,11.14,0,0,1,1.15-1.14,4.76,4.76,0,0,1,3.14-1.09,4.07,4.07,0,0,1,2.14.54A3.56,3.56,0,0,1,102,22.94a6.57,6.57,0,0,1,.48,2.65v8.2H99.12V25.84A2.92,2.92,0,0,0,98.65,24a1.63,1.63,0,0,0-1.39-.59,3,3,0,0,0-1.59.43A7.33,7.33,0,0,0,94.23,25v8.77H90.84Z"/><path class="cls-1" d="M105.32,16.68h9.39l-.28,1.3h-7.67v6.3H114v1.29h-7.28v6.91h8l-.25,1.31h-9.23Z"/><path class="cls-1" d="M118.9,32.83a5.87,5.87,0,0,1-.93-3.62v-8h1.38v8a4.42,4.42,0,0,0,.7,2.77,2.42,2.42,0,0,0,2,.88,4.53,4.53,0,0,0,2.31-.64,8.48,8.48,0,0,0,2-1.6V21.16h1.4V30.6c0,.88,0,1.95.1,3.19h-1.21c-.06-.31-.14-.95-.24-1.94a10.11,10.11,0,0,1-2.13,1.58,5.16,5.16,0,0,1-2.5.6A3.42,3.42,0,0,1,118.9,32.83Z"/><path class="cls-1" d="M132.7,33.32a3.16,3.16,0,0,1-.59-2.09V15.66l1.41-.24V31a2.66,2.66,0,0,0,.26,1.37,1.06,1.06,0,0,0,.95.41,2.7,2.7,0,0,0,.62-.11l.21,1.16A3.32,3.32,0,0,1,135,34a4.4,4.4,0,0,1-.58,0A2.15,2.15,0,0,1,132.7,33.32Z"/><path class="cls-1" d="M138.85,27.23v.26a5.94,5.94,0,0,0,1.18,4,4.23,4.23,0,0,0,3.41,1.38,7.91,7.91,0,0,0,1.87-.23A8.14,8.14,0,0,0,147,32l.35,1.06a8,8,0,0,1-1.86.71,9.56,9.56,0,0,1-2.34.26,6,6,0,0,1-3.13-.77A4.85,4.85,0,0,1,138.09,31a8.23,8.23,0,0,1-.67-3.49A8.65,8.65,0,0,1,138.1,24,5.25,5.25,0,0,1,140,21.69a5.09,5.09,0,0,1,2.81-.78,4.42,4.42,0,0,1,2.69.79,4.64,4.64,0,0,1,1.61,2.07,7.18,7.18,0,0,1,.52,2.76v.7Zm1.34-4.15a5.28,5.28,0,0,0-1.25,3h7.22a5,5,0,0,0-1-3,3,3,0,0,0-2.42-1A3.32,3.32,0,0,0,140.19,23.08Z"/><path class="cls-1" d="M151.08,24.37c0-.48,0-1,0-1.58s0-1-.05-1.14l0-.49h1.26c0,.34.09.74.12,1.21s.07.88.08,1.22a14,14,0,0,1,1.09-1.44,4.37,4.37,0,0,1,1.16-.9,3.2,3.2,0,0,1,1.51-.34,4,4,0,0,1,1.15.16l-.23,1.27a3.65,3.65,0,0,0-1-.13,3,3,0,0,0-1.32.29,4.27,4.27,0,0,0-1.14.88,14.1,14.1,0,0,0-1.21,1.54v8.87h-1.4Z"/><path class="cls-1" d="M29.18.18A6.25,6.25,0,0,0,27.59,0a8.37,8.37,0,0,0-1.71.19,8.49,8.49,0,0,0-1.64.53,6,6,0,0,0-1.4.82,4.94,4.94,0,0,0-.57.53,3,3,0,0,0-.38.54,2.7,2.7,0,0,0-.19.54,1.51,1.51,0,0,0,0,.52h0a1.46,1.46,0,0,1,0,.51,1.67,1.67,0,0,1-.19.54,2.31,2.31,0,0,1-.37.55,3.66,3.66,0,0,1-.56.55,6.53,6.53,0,0,1-.72.5,7.12,7.12,0,0,1-.83.41,6.54,6.54,0,0,1-.91.33c-.31.09-.62.17-.94.23h0a8.9,8.9,0,0,0-1,.24,6.79,6.79,0,0,0-1,.35,7,7,0,0,0-.91.45,6.89,6.89,0,0,0-.84.57,6.14,6.14,0,0,0-.69.64,3.76,3.76,0,0,0-.5.67,3.29,3.29,0,0,0-.3.67,2.5,2.5,0,0,0-.09.66,2.31,2.31,0,0,1-.11.62,3.22,3.22,0,0,1-.3.66,4.58,4.58,0,0,1-.48.66,6.19,6.19,0,0,1-.69.65,9.16,9.16,0,0,1-.85.6c-.31.18-.63.34-1,.49s-.67.27-1,.38a9.26,9.26,0,0,1-1,.25l0,0a8.76,8.76,0,0,0-1.1.26,9.58,9.58,0,0,0-1.09.4,8.75,8.75,0,0,0-1,.55,7.72,7.72,0,0,0-1,.69A7.46,7.46,0,0,0,.8,19.26a4.48,4.48,0,0,0-.73,1.56,2.59,2.59,0,0,0,.07,1.44,2.33,2.33,0,0,0,1,1.14,3.37,3.37,0,0,0,.84.38,5.07,5.07,0,0,0,1,.19A6.76,6.76,0,0,0,4,24a7,7,0,0,0,1.17-.19l0,0a7.92,7.92,0,0,1,1.15-.2,6.63,6.63,0,0,1,1.09,0,5.12,5.12,0,0,1,1,.16,3.64,3.64,0,0,1,.88.37,2.93,2.93,0,0,1,.69.55,2.82,2.82,0,0,1,.68,1.53,3.69,3.69,0,0,1,0,.94l0,0a4.19,4.19,0,0,0,0,1,3.46,3.46,0,0,0,.26.94,3.21,3.21,0,0,0,.54.85,3.94,3.94,0,0,0,.84.71,5.25,5.25,0,0,0,2.15.75A8,8,0,0,0,17,31.26a9.38,9.38,0,0,0,2.53-.92,8.33,8.33,0,0,0,2.15-1.62,6.27,6.27,0,0,0,1.32-2,4.22,4.22,0,0,0,.32-1.94,3.42,3.42,0,0,0-.61-1.66,3.92,3.92,0,0,0-1.46-1.21,5.25,5.25,0,0,0-1-.38A6.13,6.13,0,0,0,19,21.37a6.78,6.78,0,0,0-1.19,0,8.79,8.79,0,0,0-1.23.21l0,0a8,8,0,0,1-1.17.2,6.9,6.9,0,0,1-1.11,0,5.45,5.45,0,0,1-1-.15,4.7,4.7,0,0,1-.89-.34,3.07,3.07,0,0,1-.6-.43,2.09,2.09,0,0,1-.43-.52,2.15,2.15,0,0,1-.26-.58,3.4,3.4,0,0,1-.09-.64l.06-.22,0-.21,0-.21v-.2l0,0a3.43,3.43,0,0,1,.12-.77,3.52,3.52,0,0,1,.32-.76,4.9,4.9,0,0,1,.51-.74,5.89,5.89,0,0,1,.71-.7,6.55,6.55,0,0,1,.85-.61,7.07,7.07,0,0,1,.94-.5,9.48,9.48,0,0,1,1-.38,10.05,10.05,0,0,1,1.05-.26h0l.18,0,.17,0,.17,0,.17,0a9.15,9.15,0,0,1,1-.15,7.45,7.45,0,0,1,.94,0,6.21,6.21,0,0,1,.89.1,4.34,4.34,0,0,1,.82.25,3.21,3.21,0,0,1,.71.4,2.42,2.42,0,0,1,.53.53,2.36,2.36,0,0,1,.33.63,2.71,2.71,0,0,1,.12.72l0,0a2.42,2.42,0,0,0,.12.76,3.07,3.07,0,0,0,.37.72,3.31,3.31,0,0,0,.62.62,4.09,4.09,0,0,0,.87.52,6,6,0,0,0,2.07.49,8.14,8.14,0,0,0,2.3-.16,8.7,8.7,0,0,0,2.2-.77,6.46,6.46,0,0,0,1.77-1.29,3.84,3.84,0,0,0,1-1.56,2.62,2.62,0,0,0,.06-1.49,2.84,2.84,0,0,0-.77-1.26,4.21,4.21,0,0,0-1.5-.89,5.87,5.87,0,0,0-1-.26,6.59,6.59,0,0,0-1.09-.1,8.32,8.32,0,0,0-1.11.05,8.18,8.18,0,0,0-1.1.2l0,0a7.86,7.86,0,0,1-1.06.19,7.38,7.38,0,0,1-1,.05,7.6,7.6,0,0,1-1-.09,4,4,0,0,1-.87-.24A3.39,3.39,0,0,1,23,11a2.92,2.92,0,0,1-.49-.42,2.36,2.36,0,0,1-.31-.49A1.67,1.67,0,0,1,22,9.55s0-.08,0-.12a.49.49,0,0,0,0-.12.49.49,0,0,0,0-.12s0-.08,0-.12h0a2,2,0,0,1,0-.6,2.38,2.38,0,0,1,.19-.61,3.32,3.32,0,0,1,.38-.6,5.11,5.11,0,0,1,.57-.57,7.55,7.55,0,0,1,.71-.51c.26-.15.54-.29.82-.42s.59-.23.9-.33.63-.17.95-.23h0l.16,0,.17,0,.16,0,.17,0c.3-.06.6-.11.9-.14a6.73,6.73,0,0,1,.89,0,6,6,0,0,1,.85.06,6.5,6.5,0,0,1,.79.17,4,4,0,0,1,.72.3,2.67,2.67,0,0,1,.56.4,2.21,2.21,0,0,1,.39.49,1.9,1.9,0,0,1,.21.56l0,0a1.87,1.87,0,0,0,.21.6,2.74,2.74,0,0,0,.43.55,3.37,3.37,0,0,0,.66.47,5.29,5.29,0,0,0,.86.38,7.15,7.15,0,0,0,2,.33A9.37,9.37,0,0,0,38.77,9a8.44,8.44,0,0,0,1.95-.66,5.27,5.27,0,0,0,1.49-1.07A2.65,2.65,0,0,0,42.94,6a1.77,1.77,0,0,0-.12-1.18,2.44,2.44,0,0,0-.85-1,4.72,4.72,0,0,0-1.5-.66,6.42,6.42,0,0,0-1-.19c-.33,0-.68-.05-1-.05a9.1,9.1,0,0,0-1,.08,8.54,8.54,0,0,0-1,.18l0,0a8.26,8.26,0,0,1-1,.18c-.33,0-.65.06-1,.07a7,7,0,0,1-.92-.05,5.81,5.81,0,0,1-.85-.16A5.05,5.05,0,0,1,32.06,3a3.2,3.2,0,0,1-.51-.33,1.85,1.85,0,0,1-.36-.38A1.72,1.72,0,0,1,31,1.83a1.44,1.44,0,0,0-.14-.53,1.52,1.52,0,0,0-.36-.46,2.54,2.54,0,0,0-.55-.38,4.35,4.35,0,0,0-.75-.28"/><path class="cls-1" d="M53,6.5a9.35,9.35,0,0,0-2.23-.3,10.31,10.31,0,0,0-2.17.2,8,8,0,0,0-1.92.66,5.12,5.12,0,0,0-1.47,1.07,2.9,2.9,0,0,0-.72,1.34,2.25,2.25,0,0,0,.17,1.37,3.3,3.3,0,0,0,1,1.24,6,6,0,0,0,1.86.95,8.55,8.55,0,0,0,2.38.42,9.7,9.7,0,0,0,2.42-.19,7.59,7.59,0,0,0,2.12-.75A4.59,4.59,0,0,0,56,11.29a2.51,2.51,0,0,0,.55-1.46,2.33,2.33,0,0,0-.4-1.38A3.87,3.87,0,0,0,54.92,7.3,6.91,6.91,0,0,0,53,6.5"/><path class="cls-1" d="M34.64,28.48a7.32,7.32,0,0,0-2.51-.72,8.81,8.81,0,0,0-2.61.13,9.17,9.17,0,0,0-2.49.9,8.2,8.2,0,0,0-2.11,1.65,6.67,6.67,0,0,0-1.35,2.18A5.44,5.44,0,0,0,23.23,35,5.09,5.09,0,0,0,24,37.21a5.7,5.7,0,0,0,1.84,1.85,7.29,7.29,0,0,0,2.69,1,8.6,8.6,0,0,0,3-.07,9,9,0,0,0,2.82-1.08,7.87,7.87,0,0,0,2.24-2,6.35,6.35,0,0,0,1.16-2.46,5.25,5.25,0,0,0,0-2.4A5,5,0,0,0,36.6,30a5.79,5.79,0,0,0-2-1.52"/></g></g></svg>