<svg xmlns="http://www.w3.org/2000/svg" viewBox="0 0 252.21 252.21"><defs><style>.cls-1{fill:#fff;}</style></defs><g id="图层_2" data-name="图层 2"><g id="图层_1-2" data-name="图层 1"><rect width="252.21" height="252.21"/><path class="cls-1" d="M124.3,45.14,82,69.55a3.65,3.65,0,0,0-1.84,3.17v48.81A3.65,3.65,0,0,0,82,124.7l42.27,24.41a3.63,3.63,0,0,0,3.66,0l42.28-24.41a3.66,3.66,0,0,0,1.83-3.17V72.72a3.66,3.66,0,0,0-1.83-3.17L128,45.14A3.68,3.68,0,0,0,124.3,45.14Z"/><path d="M158.67,79.37c-3.84-1-8.45-.05-10.51,2.15s-.87,5.17,3.08,6.43c4.13,1.32,9.34.28,11.37-2.29S162.68,80.4,158.67,79.37Z"/><path d="M134,108.5a11.6,11.6,0,0,0-13,2.49c-3.34,3.57-3,8.59,1.18,11.19,4.41,2.75,11,1.54,14.3-2.67A7,7,0,0,0,134,108.5Z"/><path d="M142,75.07a11.68,11.68,0,0,0-5.78.11,10.64,10.64,0,0,1-4.48-.14,3.42,3.42,0,0,1-2.5-1.81,1.8,1.8,0,0,0-.1-.4s0,0,0,0h0a3.16,3.16,0,0,0-2.3-1.62l-.13,0a9.52,9.52,0,0,0-4.5-.15c-3.35.62-5.8,2.55-5.47,4.31,0,.08,0,.82-.06,1A4.19,4.19,0,0,1,115,78.61a7.86,7.86,0,0,1-3,1.58,10.76,10.76,0,0,1-1.86.25,20.25,20.25,0,0,0-2.64.16,5.48,5.48,0,0,0-3,1.5,3.57,3.57,0,0,0-.82,2.85,5.15,5.15,0,0,1,.07,1.16h0a5.24,5.24,0,0,1-2.23,3.45,12.06,12.06,0,0,1-5.1,2.34h0a12.75,12.75,0,0,0-5.53,2.45c-3.18,2.48-3.92,5.77-1.44,7.31a7.73,7.73,0,0,0,5.93.39,7.5,7.5,0,0,1,4.84.68,4,4,0,0,1,1.68,1.7,3.19,3.19,0,0,1,.3.91,3.74,3.74,0,0,1,.07.74h0a4.6,4.6,0,0,0,2.11,4.9c3.36,2.1,9.05,1,12.38-2.39s2.79-7.19-.6-8.85a9.53,9.53,0,0,0-6.51-.35,8.24,8.24,0,0,1-4.94-.62,3.33,3.33,0,0,1-2-3,6.28,6.28,0,0,1,.39-1.55,9.32,9.32,0,0,1,2-3A9.08,9.08,0,0,1,109.28,89a16.49,16.49,0,0,1,1.91-.39,10.17,10.17,0,0,1,4.65.37c1.33.55,2.31,1.42,2.39,2.51a4.22,4.22,0,0,0,2.64,3.74A10.91,10.91,0,0,0,132,93c2.55-2.6,1.7-5.63-1.67-6.82a10.72,10.72,0,0,0-6.13-.07,9.53,9.53,0,0,1-4.71-.34c-1.38-.51-2.28-1.35-2.32-2.33a5.21,5.21,0,0,1,1.67-3.64A10.76,10.76,0,0,1,122.53,78a10.17,10.17,0,0,1,1.75-.4,11,11,0,0,1,4.42.17c1.32.39,2.52,1.12,2.57,1.92,0,1,1.08,2.27,2.94,2.87,3.35,1.07,8,.12,10.14-2.09S145.3,75.92,142,75.07Z"/><path class="cls-1" d="M185.27,165.16h4.93a.64.64,0,0,1,.64.64v32.34a.64.64,0,0,1-.64.64h-4.93a.64.64,0,0,1-.64-.64V165.8A.64.64,0,0,1,185.27,165.16Z"/><path class="cls-1" d="M157.67,170.78v-5a.65.65,0,0,0-.65-.65H136.55a.64.64,0,0,0-.64.65v32.33a.64.64,0,0,0,.64.64H157a.65.65,0,0,0,.65-.64v-5a.65.65,0,0,0-.65-.65H143.17a.63.63,0,0,1-.64-.64v-7.56a.64.64,0,0,1,.64-.64h12.49a.64.64,0,0,0,.64-.64v-4.87a.64.64,0,0,0-.64-.64H143.17a.63.63,0,0,1-.64-.64v-4.79a.64.64,0,0,1,.64-.65H157A.64.64,0,0,0,157.67,170.78Z"/><path class="cls-1" d="M234.41,173.58a10.2,10.2,0,0,0-5,2.53.08.08,0,0,1-.14-.06v-2.57a.63.63,0,0,0-.64-.63h-4.59a.64.64,0,0,0-.64.63v24.79a.64.64,0,0,0,.64.64h4.59a.64.64,0,0,0,.64-.64v-6.08c0-.31,0-4.89,0-6.43a5.17,5.17,0,0,1,1.4-3.93,8.55,8.55,0,0,1,5.09-2.83.39.39,0,0,0,.36-.4v-4.88a.32.32,0,0,0-.33-.32A11.17,11.17,0,0,0,234.41,173.58Z"/><path class="cls-1" d="M76.2,179.41a12.73,12.73,0,0,0-4.81-4.77,13,13,0,0,0-6.59-1.76,12.19,12.19,0,0,0-7,2.16.32.32,0,0,1-.5-.27v-.53a.64.64,0,0,0-.64-.63H51.74a.64.64,0,0,0-.64.63v32.69a.64.64,0,0,0,.64.63h4.89a.64.64,0,0,0,.64-.63v-9.79a.31.31,0,0,1,.48-.26A12.22,12.22,0,0,0,64.82,199a13,13,0,0,0,6.62-1.73,12.49,12.49,0,0,0,4.75-4.79,13.09,13.09,0,0,0,1.74-6.58A12.89,12.89,0,0,0,76.2,179.41Zm-6.37,11.48a6.82,6.82,0,0,1-11.72-5,6.62,6.62,0,0,1,6.83-6.84,7,7,0,0,1,4.89,11.82Z"/><path class="cls-1" d="M99,190.78a6.72,6.72,0,0,1-4.92,1.93,6.65,6.65,0,0,1-4.88-1.91A6.17,6.17,0,0,1,87.59,188a.33.33,0,0,1,.31-.42h18.49A.64.64,0,0,0,107,187q.06-.6.06-1.23a12.89,12.89,0,0,0-1.73-6.51,12.76,12.76,0,0,0-4.81-4.78A13.11,13.11,0,0,0,94,172.76a12.43,12.43,0,0,0-8.58,3.38,13.24,13.24,0,0,0-.49,19A12.31,12.31,0,0,0,94,198.91a13.06,13.06,0,0,0,6.62-1.73,12.49,12.49,0,0,0,4-3.7.41.41,0,0,0-.17-.59l-5-2.24A.43.43,0,0,0,99,190.78Zm-9.78-9.9a7.25,7.25,0,0,1,9.81,0,6,6,0,0,1,1.06,1.42.32.32,0,0,1-.28.47H88.45a.31.31,0,0,1-.28-.47A5.9,5.9,0,0,1,89.22,180.88Z"/><path class="cls-1" d="M121.64,172.89a10.79,10.79,0,0,0-10.77,10.82v14.42a.65.65,0,0,0,.65.65h4.93a.65.65,0,0,0,.65-.65V183.71a4.54,4.54,0,1,1,9.08,0v14.42a.65.65,0,0,0,.65.65h4.93a.65.65,0,0,0,.65-.65V183.71A10.79,10.79,0,0,0,121.64,172.89Z"/><path class="cls-1" d="M170.46,198.78A10.8,10.8,0,0,0,181.22,188V173.55a.65.65,0,0,0-.66-.66h-4.9a.65.65,0,0,0-.66.66V188a4.55,4.55,0,1,1-9.09,0V173.55a.65.65,0,0,0-.66-.66h-4.9a.65.65,0,0,0-.66.66V188A10.8,10.8,0,0,0,170.46,198.78Z"/><path class="cls-1" d="M30.46,164.89,17,172.69a1.78,1.78,0,0,0-.9,1.55v15.59a1.78,1.78,0,0,0,.9,1.55l13.49,7.79a1.76,1.76,0,0,0,1.8,0l13.49-7.79a1.78,1.78,0,0,0,.9-1.55V174.24a1.78,1.78,0,0,0-.9-1.55l-13.49-7.8A1.81,1.81,0,0,0,30.46,164.89ZM40,187.38l-8.28,4.78a.65.65,0,0,1-.66,0l-8.28-4.78a.65.65,0,0,1-.33-.57v-9.56a.68.68,0,0,1,.33-.57L31,171.9a.7.7,0,0,1,.66,0L40,176.68a.68.68,0,0,1,.33.57v9.56A.65.65,0,0,1,40,187.38Z"/><path class="cls-1" d="M212,190.78a7.2,7.2,0,0,1-9.79,0A6.17,6.17,0,0,1,200.6,188a.33.33,0,0,1,.31-.42H219.4A.64.64,0,0,0,220,187q.06-.6.06-1.23a12.89,12.89,0,0,0-1.73-6.51,12.76,12.76,0,0,0-4.81-4.78,13.12,13.12,0,0,0-6.59-1.76,12.41,12.41,0,0,0-8.57,3.38,13.24,13.24,0,0,0-.49,19,12.31,12.31,0,0,0,9.09,3.81,13.08,13.08,0,0,0,6.62-1.73,12.35,12.35,0,0,0,4-3.7.4.4,0,0,0-.16-.59l-5-2.24A.44.44,0,0,0,212,190.78Zm-9.77-9.9a7.25,7.25,0,0,1,9.81,0,6,6,0,0,1,1.06,1.42.32.32,0,0,1-.29.47H201.46a.32.32,0,0,1-.29-.47A5.94,5.94,0,0,1,202.23,180.88Z"/></g></g></svg>