<?xml version="1.0" encoding="UTF-8"?>
<svg width="23px" height="24px" viewBox="0 0 23 24" version="1.1" xmlns="http://www.w3.org/2000/svg" xmlns:xlink="http://www.w3.org/1999/xlink">
    <title>会议室</title>
    <g id="页面-1" stroke="none" stroke-width="1" fill="none" fill-rule="evenodd">
        <g id="切图" transform="translate(-814.000000, -109.000000)" fill="#FFFFFF">
            <path d="M834.346154,116.880336 L832.576923,116.880336 L832.576923,111.626779 C832.576923,110.176049 831.388756,109 829.923077,109 L816.653846,109 C815.188167,109 814,110.176049 814,111.626779 L814,127.746443 L818.529231,123.263408 C818.698753,123.103407 818.923091,123.012711 819.157308,123.009486 L821.961538,123.009486 L821.961538,125.636264 C821.961538,127.086994 823.149706,128.263043 824.615385,128.263043 L831.842692,128.263043 C832.076909,128.266268 832.301247,128.356964 832.470769,128.516965 L837,133 L837,119.507114 C837,118.056384 835.811833,116.880336 834.346154,116.880336 Z M821.961538,119.507114 L821.961538,121.2583 L819.157308,121.2583 C818.453701,121.258913 817.779138,121.536064 817.281923,122.028822 L815.769231,123.526085 L815.769231,111.626779 C815.769231,111.143202 816.165287,110.751186 816.653846,110.751186 L829.923077,110.751186 C830.411637,110.751186 830.807692,111.143202 830.807692,111.626779 L830.807692,116.880336 L824.615385,116.880336 C823.149706,116.880336 821.961538,118.056384 821.961538,119.507114 Z M835.230769,128.779642 L833.718077,127.282379 C833.220862,126.789621 832.546299,126.51247 831.842692,126.511857 L824.615385,126.511857 C824.126825,126.511857 823.730769,126.119841 823.730769,125.636264 L823.730769,119.507114 C823.730769,119.023538 824.126825,118.631521 824.615385,118.631521 L834.346154,118.631521 C834.834713,118.631521 835.230769,119.023538 835.230769,119.507114 L835.230769,128.779642 Z" id="会议室"></path>
        </g>
    </g>
</svg>