<?xml version="1.0" encoding="UTF-8"?>
<svg width="80px" height="80px" viewBox="0 0 80 80" version="1.1" xmlns="http://www.w3.org/2000/svg" xmlns:xlink="http://www.w3.org/1999/xlink">
    <title>插画/light/未选中/三级插画/21</title>
    <g id="插画/light/未选中/三级插画/21" stroke="none" stroke-width="1" fill="none" fill-rule="evenodd">
        <g id="编组-2" transform="translate(10.000000, 12.000000)">
            <g id="编组" transform="translate(51.217665, 8.782335) scale(-1, 1) rotate(-45.000000) translate(-51.217665, -8.782335) translate(47.077633, 0.502270)" stroke="#000000" stroke-width="2">
                <circle id="椭圆形" cx="4.14003226" cy="4.14003226" r="4.14003226"></circle>
                <line x1="4.14003226" y1="8.28006452" x2="4.14003226" y2="16.560129" id="路径-12" stroke-linecap="round" stroke-linejoin="round"></line>
            </g>
            <g id="编组" transform="translate(15.525121, 11.385089)">
                <path d="M27.97996,7.5415278 L15.4906695,0.2703117 C14.8715197,-0.0901038999 14.1087061,-0.0901038999 13.4899925,0.2703117 L1.0004112,7.5415278 C0.381261363,7.9019434 0,8.56808175 0,9.28876632 L0,23.8313451 C0,24.5521763 0.381261363,25.2181681 1.0004112,25.5785837 L13.4899925,32.8499464 C14.1087061,33.210362 14.8715197,33.210362 15.4906695,32.8499464 L27.97996,25.5785837 C28.5991099,25.2181681 28.9802258,24.5521763 28.9802258,23.8313451 L28.9802258,9.28876632 C28.9802258,8.56808175 28.5991099,7.9019434 27.97996,7.5415278 Z" id="Stroke-1" stroke="#000000" stroke-width="2"></path>
                <path d="M25.9955688,12.9134362 C25.3567888,13.7291358 23.7143986,14.0600785 22.4095018,13.6401317 C21.1645133,13.2392468 20.7631856,12.3195869 21.4375907,11.5947975 C22.0875671,10.8968413 23.5415078,10.5955177 24.7533431,10.9109177 C26.0192704,11.2402475 26.6086115,12.1305815 25.9955688,12.9134362 M16.9779087,20.1784858 C18.3521655,20.8545942 18.759455,22.4132653 17.7714035,23.6819034 C16.7305687,25.0184308 14.6516619,25.4045062 13.2598107,24.5283952 C11.9492429,23.7031646 11.8334977,22.1068097 12.886983,20.9708714 C13.8917565,19.8869864 15.6775196,19.5384482 16.9779087,20.1784858 Z M14.6695471,8.2884499 L14.7096799,8.29724766 L14.7096799,8.29724766 C15.0960306,8.39768884 15.3416257,8.58493465 15.434978,8.81411649 L15.4390495,8.81528953 C15.4396311,8.82100808 15.4407944,8.82643337 15.4415214,8.83215191 C15.4566439,8.87350142 15.4679858,8.9157307 15.4730751,8.95957291 C15.5646825,9.20517725 15.8301986,9.41588378 16.2611897,9.53553341 C16.6844742,9.6529836 17.1886058,9.66134148 17.6764517,9.57908236 C18.2641933,9.42086918 18.9285652,9.39520902 19.4979853,9.54330477 C20.5372206,9.81368949 20.8955074,10.5714705 20.2384059,11.2478722 C19.5568758,11.9493475 18.0946468,12.2511109 17.0385441,11.9110772 C16.450948,11.7219252 16.1268322,11.3277852 16.1095286,10.9986021 C16.096151,10.7450798 15.7169253,10.5126721 15.2993118,10.3870107 C14.8789355,10.2601762 14.3931254,10.2720532 13.9060065,10.331878 C13.781973,10.3472741 13.5214008,10.4040197 13.3544717,10.4601788 C12.9066132,10.6106206 12.5183722,10.7804175 12.1952743,11.0512421 C11.7932195,11.3883432 11.6594436,11.9868846 11.6686043,12.2093215 C11.6818365,12.5210557 11.9672736,12.7877747 12.4013183,12.9524396 C12.8280926,13.1141719 13.3589794,13.1436444 13.8876851,13.0593325 C14.5337355,12.8844035 15.241003,12.8770721 15.8210379,13.0829398 C16.8832477,13.4599241 17.151672,14.4245993 16.3478533,15.2515895 C15.5110267,16.1131841 13.9003356,16.4366487 12.8301283,15.9621558 C12.2370066,15.6992492 12.0281998,15.2185978 11.9966462,14.7744572 C11.9717813,14.4278252 11.6633696,14.150109 11.2440112,13.976793 C10.8223263,13.8024506 10.3292457,13.808609 9.77785625,13.8562636 C9.70529735,13.8625686 9.37754636,13.9289918 9.17528299,13.9828048 C8.89900664,14.0561195 8.33147685,14.2168254 7.85468203,14.689852 C7.47807375,15.0637571 7.31012681,15.4165476 7.21386631,15.6290137 C7.15890186,15.7508628 7.09172308,16.0271126 7.08881491,16.1216886 C7.07645518,16.5120163 7.29616758,16.8653932 7.72483215,17.092229 C8.14709874,17.3156923 8.70459533,17.3753705 9.28157668,17.2903254 C9.99931355,17.0945751 10.7525301,17.1149566 11.335037,17.4014705 C12.4055352,17.9283102 12.5305866,19.1803791 11.5252315,20.2149965 C10.4729094,21.2980017 8.6804575,21.6455135 7.61999255,20.9779096 C7.03893976,20.6122157 6.87026578,20.0607423 6.95227623,19.4182121 L6.95154919,19.4145463 C6.95154919,19.4111738 6.94965888,19.2608787 6.92988331,19.1803791 C6.92988331,19.1802325 6.91417918,19.0529581 6.83391363,18.8897595 C6.72616585,18.6709884 6.54760408,18.4893145 6.30549876,18.3485502 C5.89239291,18.1079312 5.346529,18.045907 4.77667268,18.1318318 C4.06286184,18.3265558 3.3643189,18.2988428 2.90584557,18.010276 C2.1241289,17.5178943 2.35765512,16.4730128 3.36141073,15.6838531 C3.87935618,15.2765165 4.51042952,15.0090643 5.10544154,14.9046642 L5.10791348,14.9026114 C5.67515245,14.7870673 6.25925882,14.5279731 6.71642347,14.1584669 C7.16529984,13.7954123 7.39926228,13.4003926 7.41961949,13.0584527 L7.4215098,13.0569864 L7.42250774,13.0438475 L7.42250774,13.0438475 L7.42281466,12.9666528 C7.42134955,12.8962536 7.41531955,12.7929068 7.39737197,12.6861605 C7.37730558,12.3909954 7.39199185,12.0992028 7.6580896,11.7807236 C7.82821767,11.5776418 8.1971193,11.3802786 8.600919,11.303738 C8.87734076,11.2512447 9.23344643,11.2631217 9.43469194,11.2522711 C9.60903686,11.2428868 9.91337707,11.2071092 10.0205432,11.1747041 C10.4275419,11.0518286 10.6702289,10.9144368 10.9719517,10.670592 C11.2800725,10.4214686 11.4711395,10.1600283 11.5045834,9.9217554 C11.5117085,9.87131486 11.5284304,9.6380274 11.5233411,9.61002117 C11.4205373,9.05106969 12.1928024,8.43771868 13.2486142,8.23991555 C13.7835725,8.13991426 14.287995,8.1660143 14.6695471,8.2884499 Z" id="形状结合" fill="#002FA7"></path>
            </g>
            <g id="编组" transform="translate(51.217665, 47.077633) scale(-1, -1) rotate(-45.000000) translate(-51.217665, -47.077633) translate(47.077633, 38.797569)" stroke="#000000" stroke-width="2">
                <circle id="椭圆形" cx="4.14003226" cy="4.14003226" r="4.14003226"></circle>
                <line x1="4.14003226" y1="8.28006452" x2="4.14003226" y2="16.560129" id="路径-12" stroke-linecap="round" stroke-linejoin="round"></line>
            </g>
            <g id="编组" transform="translate(8.782335, 8.782335) rotate(-45.000000) translate(-8.782335, -8.782335) translate(4.642302, 0.502270)" stroke="#000000" stroke-width="2">
                <circle id="椭圆形" cx="4.14003226" cy="4.14003226" r="4.14003226"></circle>
                <line x1="4.14003226" y1="8.28006452" x2="4.14003226" y2="16.560129" id="路径-12" stroke-linecap="round" stroke-linejoin="round"></line>
            </g>
            <g id="编组" transform="translate(8.782335, 47.077633) scale(1, -1) rotate(-45.000000) translate(-8.782335, -47.077633) translate(4.642302, 38.797569)" stroke="#000000" stroke-width="2">
                <circle id="椭圆形" cx="4.14003226" cy="4.14003226" r="4.14003226"></circle>
                <line x1="4.14003226" y1="8.28006452" x2="4.14003226" y2="16.560129" id="路径-12" stroke-linecap="round" stroke-linejoin="round"></line>
            </g>
        </g>
    </g>
</svg>