<?xml version="1.0" encoding="UTF-8"?>
<svg width="80px" height="80px" viewBox="0 0 80 80" version="1.1" xmlns="http://www.w3.org/2000/svg" xmlns:xlink="http://www.w3.org/1999/xlink">
    <title>插画/light/未选中/三级插画/22</title>
    <g id="插画/light/未选中/三级插画/22" stroke="none" stroke-width="1" fill="none" fill-rule="evenodd">
        <g id="编组-2" transform="translate(16.500000, 13.000000)" stroke="#000000" stroke-width="2">
            <line x1="0.5" y1="0" x2="0.5" y2="55" id="路径-16" stroke-linecap="round" stroke-linejoin="round"></line>
            <line x1="17.5" y1="32" x2="17.5" y2="8" id="路径-18"></line>
            <path d="M0.5,4 L15.5,4 C16.6045695,4 17.5,4.8954305 17.5,6 L17.5,8.02783203 C17.5,9.13240153 18.3954305,10.027832 19.5,10.027832 L40.5,10.027832 C41.6045695,10.027832 42.5,10.9232625 42.5,12.027832 L42.5,22 L42.5,22" id="路径-19" stroke-linecap="round" stroke-linejoin="round"></path>
            <path d="M0.5,29.9018113 L15.5,29.9018113 C16.6045695,29.9018113 17.5,30.7972418 17.5,31.9018113 L17.5,33 C17.5,34.1045695 18.3954305,35 19.5,35 L20.5,35 L20.5,35" id="路径-20" stroke-linecap="round" stroke-linejoin="round"></path>
        </g>
        <g id="编组" transform="translate(40.000000, 36.000000)">
            <path d="M27.0335671,7.28644351 L14.9667138,0.261168689 C14.3685061,-0.0870562297 13.6314939,-0.0870562297 13.0337076,0.261168689 L0.966573341,7.28644351 C0.368365596,7.63466843 0,8.27827534 0,8.97458351 L0,23.0252748 C0,23.7217247 0.368365596,24.3651899 0.966573341,24.7134148 L13.0337076,31.7388313 C13.6314939,32.0870562 14.3685061,32.0870562 14.9667138,31.7388313 L27.0335671,24.7134148 C27.6317749,24.3651899 28,23.7217247 28,23.0252748 L28,8.97458351 C28,8.27827534 27.6317749,7.63466843 27.0335671,7.28644351 Z" id="Stroke-1" stroke="#000000" stroke-width="2"></path>
            <path d="M25.1162959,12.4766527 C24.4991219,13.2647622 22.9122839,13.5845111 21.6515238,13.1787686 C20.4486458,12.7914431 20.0608925,11.9028897 20.7124866,11.2026156 C21.3404783,10.528267 22.7452409,10.2371354 23.9160871,10.5418673 C25.1391958,10.8600578 25.708603,11.7202773 25.1162959,12.4766527 M16.4036487,19.4959696 C17.7314227,20.1492094 18.124936,21.65516 17.1703044,22.8808877 C16.1646747,24.1722086 14.1560847,24.5452253 12.8113115,23.6987479 C11.5450723,22.9014299 11.433242,21.35907 12.4510943,20.2615536 C13.4218824,19.2143299 15.1472439,18.8775806 16.4036487,19.4959696 Z M14.173365,8.00810175 C14.1860092,8.01107681 14.1994962,8.0134852 14.2121404,8.01660194 C14.5854231,8.1136458 14.8227113,8.29455822 14.912906,8.51598822 L14.9168398,8.51712158 C14.9174017,8.5226467 14.9185257,8.52788849 14.9192281,8.53341361 C14.9338391,8.57336452 14.9447973,8.61416544 14.9497145,8.65652473 C15.0382234,8.89382175 15.2947587,9.09740135 15.711172,9.21300397 C16.1201393,9.32648153 16.6072192,9.33455671 17.0785642,9.25507992 C17.646426,9.10221813 18.2883263,9.0774259 18.8384863,9.22051247 C19.8425706,9.4817517 20.1887387,10.2139016 19.553863,10.8674247 C18.8953849,11.5451733 17.4826143,11.8367299 16.4622332,11.5081975 C15.8945118,11.3254434 15.5813589,10.9446348 15.5646406,10.6265859 C15.5517155,10.3816387 15.1853168,10.157092 14.7818286,10.0356809 C14.3756711,9.91313645 13.906293,9.92461171 13.4356504,9.98241301 C13.3158122,9.99728835 13.0640535,10.0521146 12.9027707,10.1063741 C12.4700605,10.2517274 12.0949514,10.4157811 11.7827819,10.6774454 C11.3943262,11.0031444 11.2650751,11.5814408 11.273926,11.796354 C11.2867106,12.0975441 11.5624931,12.3552416 11.9818567,12.5143369 C12.3941957,12.6705987 12.9071259,12.6990744 13.4179486,12.6176142 C14.0421471,12.4486021 14.725492,12.4415186 15.2859078,12.6404231 C16.3121895,13.0046563 16.5715347,13.9367023 15.7949042,14.7357204 C14.9863825,15.5681725 13.4301713,15.8806963 12.3961626,15.4222526 C11.8231026,15.1682385 11.6213585,14.7038447 11.5908721,14.2747266 C11.5668483,13.9398191 11.2688684,13.6714964 10.8636943,13.5040426 C10.4562724,13.3355971 9.97986975,13.3415472 9.44713049,13.3875899 C9.37702582,13.3936817 9.06036066,13.4578582 8.86493864,13.509851 C8.59800704,13.580686 8.04967336,13.7359561 7.58900563,14.1929831 C7.22513572,14.5542413 7.06286941,14.895099 6.96986483,15.1003786 C6.91675949,15.2181063 6.85185297,15.4850123 6.84904316,15.5763894 C6.83710148,15.9535146 7.04938234,16.294939 7.46354778,16.5141022 C7.87153165,16.7300071 8.4101715,16.7876668 8.96763705,16.7054982 C9.66109723,16.516369 10.388837,16.5360611 10.9516412,16.812884 C11.9859309,17.3219038 12.1067526,18.5316228 11.1354026,19.5312454 C10.1186742,20.577619 8.38685011,20.9133766 7.36225427,20.2683537 C6.80085498,19.9150291 6.63788622,19.3822087 6.71712276,18.7614113 L6.71677153,18.7596936 C6.71642031,18.7546112 6.71459393,18.6093996 6.69548725,18.5316228 C6.69548725,18.5314811 6.6803143,18.4085117 6.60276365,18.2508331 C6.49866032,18.0394617 6.32613822,17.8639327 6.09222185,17.7279297 C5.69308888,17.4954494 5.16568825,17.4355231 4.61510672,17.5185416 C3.92543978,17.7066792 3.25052433,17.6799036 2.80755838,17.4010973 C2.05228247,16.9253699 2.27790991,15.9158304 3.24771452,15.1533632 C3.74814101,14.7598043 4.35786896,14.5013984 4.93275532,14.4005295 L4.93514365,14.3985461 C5.48319636,14.2869103 6.04754594,14.0365796 6.48924747,13.6795715 C6.92294106,13.3287969 7.14898998,12.9471383 7.16865862,12.6167642 L7.17048499,12.6153475 C7.17259235,12.6079807 7.17750951,12.4375518 7.1471636,12.2570644 C7.12777594,11.971883 7.14196546,11.6899599 7.39906273,11.382253 C7.56343639,11.1860402 7.91986031,10.9953526 8.31000191,10.9214009 C8.57707399,10.8706831 8.92113476,10.8821583 9.11557335,10.8716748 C9.28402123,10.8626079 9.57806746,10.8280405 9.68160881,10.7967314 C10.0748412,10.6780121 10.3093195,10.5452674 10.6008369,10.3096704 C10.8985359,10.0689733 11.0831402,9.81637593 11.1154529,9.5861624 C11.122337,9.53742796 11.1384933,9.3120312 11.1335762,9.28497226 C11.0342495,8.74492672 11.7803936,8.15232167 12.8004937,7.96120902 C13.3173576,7.86459017 13.8047185,7.88980741 14.173365,8.00810175 Z" id="形状结合" fill="#002FA7"></path>
        </g>
    </g>
</svg>