<?xml version="1.0" encoding="UTF-8"?>
<svg width="20px" height="22px" viewBox="0 0 20 22" version="1.1" xmlns="http://www.w3.org/2000/svg" xmlns:xlink="http://www.w3.org/1999/xlink">
    <title>Outlined/UI/globe</title>
    <defs>
        <rect id="path-1" x="0" y="0" width="380" height="316" rx="8"></rect>
        <filter x="-12.6%" y="-13.3%" width="125.3%" height="130.4%" filterUnits="objectBoundingBox" id="filter-2">
            <feOffset dx="0" dy="6" in="SourceAlpha" result="shadowOffsetOuter1"></feOffset>
            <feGaussianBlur stdDeviation="15" in="shadowOffsetOuter1" result="shadowBlurOuter1"></feGaussianBlur>
            <feColorMatrix values="0 0 0 0 0   0 0 0 0 0   0 0 0 0 0  0 0 0 0.1 0" type="matrix" in="shadowBlurOuter1"></feColorMatrix>
        </filter>
    </defs>
    <g id="下载" stroke="none" stroke-width="1" fill="none" fill-rule="evenodd">
        <g id="openEuler-下载" transform="translate(-392.000000, -1073.000000)">
            <rect fill="#FFFFFF" x="0" y="0" width="1920" height="2972"></rect>
            <g id="Article-Big" transform="translate(360.000000, 816.000000)">
                <g id="Base">
                    <use fill="black" fill-opacity="1" filter="url(#filter-2)" xlink:href="#path-1"></use>
                    <use fill="#FFFFFF" fill-rule="evenodd" xlink:href="#path-1"></use>
                </g>
                <g id="Content" transform="translate(30.000000, 36.000000)" fill="#252C32">
                    <g id="编组-2" transform="translate(0.000000, 176.000000)">
                        <g id="Outlined/UI/globe" transform="translate(0.000000, 44.000000)">
                            <path d="M18.75,16.5 C17.7777633,16.5013528 16.8664663,16.9737736 16.305,17.7675 L8.05499999,12.9675 C8.17296689,12.6579769 8.23885837,12.3310538 8.24999999,12 C8.24813872,11.7804601 8.22299811,11.5617368 8.17499999,11.3475 L16.5,6.48749998 C17.4581723,7.57396338 19.0558384,7.82055685 20.2969993,7.07355188 C21.5381602,6.3265469 22.0682489,4.7993432 21.5568035,3.44401282 C21.0453581,2.08868243 19.638485,1.29240768 18.2132413,1.55159315 C16.7879975,1.81077863 15.7515378,3.05138184 15.75,4.49999998 C15.7518613,4.71953985 15.7770019,4.93826319 15.825,5.15249998 L7.49999999,10.0125 C6.58556751,8.97858946 5.0836769,8.70203983 3.86094896,9.34242576 C2.63822102,9.98281169 2.01023159,11.3748549 2.33934308,12.7153188 C2.66845458,14.0557827 3.86972606,14.9987047 5.24999998,15 C5.98438272,15.0026108 6.69421409,14.7357569 7.24499999,14.25 L15.75,19.2 C15.75,19.2975 15.75,19.395 15.75,19.5 C15.75,21.1568543 17.0931458,22.5 18.75,22.5 C20.4068543,22.5 21.75,21.1568543 21.75,19.5 C21.75,17.8431458 20.4068543,16.5 18.75,16.5 Z M18.75,2.99999997 C19.5784271,2.99999997 20.25,3.67157285 20.25,4.49999997 C20.25,5.3284271 19.5784271,5.99999997 18.75,5.99999997 C17.9215729,5.99999997 17.25,5.3284271 17.25,4.49999997 C17.25,3.67157285 17.9215729,2.99999997 18.75,2.99999997 Z M5.24999997,13.5 C4.42157285,13.5 3.74999997,12.8284271 3.74999997,12 C3.74999997,11.1715729 4.42157285,10.5 5.24999997,10.5 C6.07842711,10.5 6.74999997,11.1715729 6.74999997,12 C6.74999997,12.8284271 6.07842711,13.5 5.24999997,13.5 Z M18.75,21 C17.9215729,21 17.25,20.3284272 17.25,19.5 C17.25,18.6715729 17.9215729,18 18.75,18 C19.5784271,18 20.25,18.6715729 20.25,19.5 C20.25,20.3284272 19.5784271,21 18.75,21 Z" id="Style"></path>
                        </g>
                    </g>
                </g>
            </g>
        </g>
    </g>
</svg>