<?xml version="1.0" encoding="UTF-8"?>
<svg width="20px" height="22px" viewBox="0 0 20 22" version="1.1" xmlns="http://www.w3.org/2000/svg" xmlns:xlink="http://www.w3.org/1999/xlink">
    <title>Outlined/UI/account</title>
    <defs>
        <rect id="path-1" x="0" y="0" width="380" height="316" rx="8"></rect>
        <filter x="-12.6%" y="-13.3%" width="125.3%" height="130.4%" filterUnits="objectBoundingBox" id="filter-2">
            <feOffset dx="0" dy="6" in="SourceAlpha" result="shadowOffsetOuter1"></feOffset>
            <feGaussianBlur stdDeviation="15" in="shadowOffsetOuter1" result="shadowBlurOuter1"></feGaussianBlur>
            <feColorMatrix values="0 0 0 0 0   0 0 0 0 0   0 0 0 0 0  0 0 0 0.1 0" type="matrix" in="shadowBlurOuter1"></feColorMatrix>
        </filter>
    </defs>
    <g id="下载" stroke="none" stroke-width="1" fill="none" fill-rule="evenodd">
        <g id="openEuler-下载" transform="translate(-506.000000, -1029.000000)">
            <rect fill="#FFFFFF" x="0" y="0" width="1920" height="2972"></rect>
            <g id="Article-Big" transform="translate(360.000000, 816.000000)">
                <g id="Base">
                    <use fill="black" fill-opacity="1" filter="url(#filter-2)" xlink:href="#path-1"></use>
                    <use fill="#FFFFFF" fill-rule="evenodd" xlink:href="#path-1"></use>
                </g>
                <g id="Content" transform="translate(30.000000, 36.000000)" fill="#252C32">
                    <g id="编组-2" transform="translate(0.000000, 176.000000)">
                        <g id="Outlined/UI/account" transform="translate(114.000000, 0.000000)">
                            <path d="M12.6975,1.49999997 C13.8734193,1.49999997 14.8301652,2.44664533 14.8425,3.62249997 L14.8425,3.62249997 L14.8425,4.85999998 C15.5486012,5.1394287 16.2085223,5.52375059 16.8,5.99999997 L16.8,5.99999997 L17.835,5.39999998 C18.8535086,4.80877044 20.1579054,5.14237577 20.7675,6.14999998 L20.7675,6.14999998 L21.465,7.35749999 C21.7500019,7.85067462 21.8271435,8.43695562 21.6794151,8.98706798 C21.5316867,9.53718035 21.1712208,10.0059452 20.6775,10.29 L20.6775,10.29 L19.6425,10.8825 C19.7609112,11.6278263 19.7609112,12.3871737 19.6425,13.1325 L19.6425,13.1325 L20.6775,13.725 C21.6986734,14.3219788 22.0497354,15.6292669 21.465,16.6575 L21.465,16.6575 L20.7675,17.865 C20.4834453,18.3587208 20.0146804,18.7191867 19.464568,18.8669151 C18.9144557,19.0146435 18.3281747,18.9375019 17.835,18.6525 L17.835,18.6525 L16.8,18.0525 C16.2085223,18.5287494 15.5486012,18.9130713 14.8425,19.1925 L14.8425,19.1925 L14.8425,20.355 C14.8425,21.5396508 13.8821508,22.5 12.6975,22.5 L12.6975,22.5 L11.3025,22.5 C10.120772,22.5 9.16163191,21.5442208 9.15749999,20.3625 L9.15749999,20.3625 L9.15749999,19.1775 C8.4513988,18.8980713 7.79147765,18.5137494 7.19999998,18.0375 L7.19999998,18.0375 L6.16499998,18.6375 C5.13676689,19.2222354 3.82947878,18.8711734 3.23249997,17.85 L3.23249997,17.85 L2.53499997,16.6425 C1.93506989,15.6252131 2.27033009,14.3143457 3.28499997,13.71 L3.28499997,13.71 L4.31999998,13.1175 C4.20158882,12.3721737 4.20158882,11.6128263 4.31999998,10.8675 L4.31999998,10.8675 L3.28499997,10.275 C2.27737577,9.66540541 1.94377043,8.36100857 2.53499997,7.34249999 L2.53499997,7.34249999 L3.23249997,6.09749998 C3.8368457,5.0828301 5.14771309,4.7475699 6.16499998,5.34749998 L6.16499998,5.34749998 L7.19999998,5.94749998 C7.79147765,5.47125059 8.4513988,5.0869287 9.15749999,4.80749998 L9.15749999,4.80749998 L9.15749999,3.64499997 C9.15749999,2.46034918 10.1178492,1.49999997 11.3025,1.49999997 L11.3025,1.49999997 Z M12.6975,2.99999995 L11.3025,2.99999995 C11.1288044,2.99999995 10.9624314,3.06996336 10.8410298,3.1941882 C10.7196283,3.31841304 10.6534606,3.48635139 10.6575,3.65999997 L10.6575,3.65999997 L10.6575,5.90999998 L10.1325,6.07499998 C9.26175276,6.35270282 8.46283711,6.81873695 7.79249999,7.43999999 L7.79249999,7.43999999 L7.38749999,7.80749999 L5.41499998,6.66749998 C5.1062829,6.49247723 4.71416901,6.59972205 4.53749998,6.90749998 L4.53749998,6.90749998 L3.83999997,8.11499999 C3.75292361,8.26305989 3.72850074,8.43973646 3.77214508,8.60586653 C3.81578942,8.7719966 3.92389553,8.91385623 4.07249998,8.99999995 L4.07249998,8.99999995 L6.03749998,10.0875 L5.92499998,10.6275 C5.82153656,11.070082 5.76869763,11.522987 5.76749998,11.9775 C5.76962113,12.4315382 5.81990248,12.8840703 5.91749998,13.3275 L5.91749998,13.3275 L6.03749998,13.8675 L4.07249998,14.9999999 C3.91761189,15.0860697 3.8049543,15.2320697 3.76097739,15.4037215 C3.71700048,15.5753733 3.74557785,15.7575574 3.83999997,15.9075 L3.83999997,15.9075 L4.53749998,17.115 C4.62146076,17.2637303 4.76220938,17.3719985 4.92749998,17.415 C5.09161214,17.4592601 5.26651777,17.4377333 5.41499998,17.355 L5.41499998,17.355 L7.38749999,16.215 L7.79249999,16.5825 C8.46283711,17.2037631 9.26175276,17.6697972 10.1325,17.9475 L10.1325,17.9475 L10.6575,18.1125 L10.6575,20.3625 C10.6575,20.7187237 10.9462763,21.0075 11.3025,21.0075 L11.3025,21.0075 L12.735,21.0075 C13.0912237,21.0075 13.38,20.7187237 13.38,20.3625 L13.38,20.3625 L13.38,18.1125 L13.905,17.9475 C14.7757472,17.6697972 15.5746629,17.2037631 16.245,16.5825 L16.245,16.5825 L16.65,16.215 L18.6225,17.355 C18.9312171,17.5300228 19.323331,17.4227779 19.5,17.115 L19.5,17.115 L20.16,15.9075 C20.2544222,15.7575574 20.2829995,15.5753733 20.2390226,15.4037215 C20.1950457,15.2320697 20.0823881,15.0860697 19.9275,14.9999999 L19.9275,14.9999999 L18,13.89 L18.1125,13.35 C18.2159634,12.907418 18.2688024,12.454513 18.27,11.9999999 C18.2678789,11.5459618 18.2175975,11.0934297 18.12,10.65 L18.12,10.65 L18,10.11 L19.9275,8.99999995 C20.0802641,8.9138762 20.1913743,8.76926209 20.2352378,8.59946767 C20.2791014,8.42967324 20.2519364,8.24933806 20.16,8.09999999 L20.16,8.09999999 L19.4625,6.89249998 C19.3785392,6.74376969 19.2377906,6.63550152 19.0725,6.59249998 C18.9083879,6.54823987 18.7334822,6.56976671 18.585,6.65249998 L18.585,6.65249998 L16.6125,7.79249999 L16.2075,7.42499999 C15.5371629,6.80373695 14.7382472,6.33770282 13.8675,6.05999998 L13.8675,6.05999998 L13.3425,5.89499998 L13.3425,3.64499997 C13.3425,3.28877631 13.0537237,2.99999995 12.6975,2.99999995 L12.6975,2.99999995 Z M12,8.99999999 C13.6568543,8.99999999 15,10.3431457 15,12 C15,13.6568543 13.6568543,15 12,15 C10.3431457,15 8.99999999,13.6568543 8.99999999,12 C8.99999999,10.3431457 10.3431457,8.99999999 12,8.99999999 Z M12,10.5 C11.1715729,10.5 10.5,11.1715729 10.5,12 C10.5,12.8284271 11.1715729,13.5 12,13.5 C12.8284271,13.5 13.5,12.8284271 13.5,12 C13.5,11.1715729 12.8284271,10.5 12,10.5 Z" id="Style"></path>
                        </g>
                    </g>
                </g>
            </g>
        </g>
    </g>
</svg>