<?xml version="1.0" encoding="UTF-8"?>
<svg width="22px" height="22px" viewBox="0 0 22 22" version="1.1" xmlns="http://www.w3.org/2000/svg" xmlns:xlink="http://www.w3.org/1999/xlink">
    <title>Outlined/UI/account备份 2</title>
    <defs>
        <rect id="path-1" x="0" y="0" width="380" height="316" rx="8"></rect>
        <filter x="-12.6%" y="-13.3%" width="125.3%" height="130.4%" filterUnits="objectBoundingBox" id="filter-2">
            <feOffset dx="0" dy="6" in="SourceAlpha" result="shadowOffsetOuter1"></feOffset>
            <feGaussianBlur stdDeviation="15" in="shadowOffsetOuter1" result="shadowBlurOuter1"></feGaussianBlur>
            <feColorMatrix values="0 0 0 0 0   0 0 0 0 0   0 0 0 0 0  0 0 0 0.1 0" type="matrix" in="shadowBlurOuter1"></feColorMatrix>
        </filter>
    </defs>
    <g id="下载" stroke="none" stroke-width="1" fill="none" fill-rule="evenodd">
        <g id="openEuler-下载" transform="translate(-619.000000, -1029.000000)">
            <rect fill="#FFFFFF" x="0" y="0" width="1920" height="2972"></rect>
            <g id="Article-Big" transform="translate(360.000000, 816.000000)">
                <g id="Base">
                    <use fill="black" fill-opacity="1" filter="url(#filter-2)" xlink:href="#path-1"></use>
                    <use fill="#FFFFFF" fill-rule="evenodd" xlink:href="#path-1"></use>
                </g>
                <g id="Content" transform="translate(30.000000, 36.000000)" fill="#252C32">
                    <g id="编组-2" transform="translate(0.000000, 176.000000)">
                        <g id="Outlined/UI/account备份-2" transform="translate(228.000000, 0.000000)">
                            <path d="M12,1.49999997 C14.7847732,1.49999997 17.4554892,2.60624679 19.4246212,4.57537877 C21.3937532,6.54451075 22.5,9.21522685 22.5,12 C22.5,17.7989899 17.7989899,22.5 12,22.5 C6.20101011,22.5 1.49999997,17.7989899 1.49999997,12 C1.49999997,6.20101011 6.20101011,1.49999997 12,1.49999997 Z M12,2.99999997 C7.02943724,2.99999997 2.99999997,7.02943724 2.99999997,12 C2.99999997,16.9705628 7.02943724,21 12,21 C14.3869484,21 16.6761336,20.0517885 18.3639611,18.3639611 C20.0517885,16.6761336 21,14.3869484 21,12 C21,7.02943724 16.9705628,2.99999997 12,2.99999997 Z M12,16.5 C12.8284271,16.5 13.5,17.1715729 13.5,18 C13.5,18.8284271 12.8284271,19.5 12,19.5 C11.1715729,19.5 10.5,18.8284271 10.5,18 C10.5,17.1715729 11.1715729,16.5 12,16.5 Z M13.5,5.24999998 C14.7426407,5.24999998 15.75,6.25735929 15.75,7.49999999 L15.75,7.49999999 L15.75,8.37749999 C15.7494749,8.97403604 15.5120775,9.54594792 15.09,9.96749999 L15.09,9.96749999 L12.9675,12.09 C12.8271101,12.2315391 12.7488474,12.4231478 12.75,12.6225 L12.75,12.6225 L12.75,15 L11.25,15 L11.25,12.6225 C11.2505252,12.0259639 11.4879225,11.4540521 11.91,11.0325 L11.91,11.0325 L14.0325,8.90999999 C14.1728899,8.76846087 14.2511526,8.57685223 14.25,8.37749999 L14.25,8.37749999 L14.25,7.49999999 C14.25,7.08578642 13.9142136,6.74999998 13.5,6.74999998 L13.5,6.74999998 L10.5,6.74999998 C10.0857864,6.74999998 9.74999999,7.08578642 9.74999999,7.49999999 L9.74999999,7.49999999 L9.74999999,8.99999999 L8.24999999,8.99999999 L8.24999999,7.49999999 C8.24999999,6.25735929 9.2573593,5.24999998 10.5,5.24999998 L10.5,5.24999998 Z" id="Style"></path>
                        </g>
                    </g>
                </g>
            </g>
        </g>
    </g>
</svg>