<!-- Generated by IcoMoon.io -->
<svg version="1.1" xmlns="http://www.w3.org/2000/svg" width="1024" height="1024" viewBox="0 0 1024 1024">
<title></title>
<g id="icomoon-ignore">
</g>
<path fill="none" stroke="#000" stroke-linejoin="round" stroke-linecap="butt" stroke-miterlimit="4" stroke-width="51.2" d="M449.555 762.644l-121.186 209.909-68.185-137.901-153.518 9.901 122.507-212.184c54.094 67.301 131.716 114.887 220.382 130.274z"></path>
<path fill="none" stroke="#000" stroke-linejoin="round" stroke-linecap="butt" stroke-miterlimit="4" stroke-width="51.2" d="M787.19 641.558l117.179 202.996-153.518-9.901-68.185 137.901-120.143-208.045c89.485-12.473 168.515-57.598 224.666-122.951z"></path>
<path fill="none" stroke="#000" stroke-linejoin="miter" stroke-linecap="butt" stroke-miterlimit="4" stroke-width="51.2" d="M874.667 405.333c0 200.295-162.371 362.667-362.667 362.667s-362.667-162.371-362.667-362.667c0-200.295 162.371-362.667 362.667-362.667s362.667 162.371 362.667 362.667z"></path>
<path fill="none" stroke="#002fa7" stroke-linejoin="miter" stroke-linecap="butt" stroke-miterlimit="4" stroke-width="51.2" d="M746.667 405.333c0 129.603-105.064 234.667-234.667 234.667s-234.667-105.064-234.667-234.667c0-129.603 105.064-234.667 234.667-234.667s234.667 105.064 234.667 234.667z"></path>
</svg>
