<!-- Generated by IcoMoon.io -->
<svg version="1.1" xmlns="http://www.w3.org/2000/svg" width="1024" height="1024" viewBox="0 0 1024 1024">
<title></title>
<g id="icomoon-ignore">
</g>
<path fill="none" stroke="#000" stroke-linejoin="miter" stroke-linecap="butt" stroke-miterlimit="4" stroke-width="51.2" d="M85.333 341.333h853.333v503.467c0 28.277-22.923 51.2-51.2 51.2h-750.933c-28.277 0-51.2-22.923-51.2-51.2v-503.467z"></path>
<path fill="none" stroke="#000" stroke-linejoin="miter" stroke-linecap="butt" stroke-miterlimit="4" stroke-width="51.2" d="M136.533 128h750.933c28.277 0 51.2 22.923 51.2 51.2v162.133h-853.333v-162.133c0-28.277 22.923-51.2 51.2-51.2z"></path>
<path fill="#d4d4d4" d="M661.333 234.667c0 23.564-19.103 42.667-42.667 42.667s-42.667-19.103-42.667-42.667c0-23.564 19.103-42.667 42.667-42.667s42.667 19.103 42.667 42.667z"></path>
<path fill="#002fa7" d="M768 234.667c0 23.564-19.103 42.667-42.667 42.667s-42.667-19.103-42.667-42.667c0-23.564 19.103-42.667 42.667-42.667s42.667 19.103 42.667 42.667z"></path>
<path fill="#000" d="M874.667 234.667c0 23.564-19.103 42.667-42.667 42.667s-42.667-19.103-42.667-42.667c0-23.564 19.103-42.667 42.667-42.667s42.667 19.103 42.667 42.667z"></path>
<path fill="none" stroke="#002fa7" stroke-linejoin="round" stroke-linecap="round" stroke-miterlimit="4" stroke-width="51.2" d="M563.219 499.2l-112.119 253.45"></path>
<path fill="none" stroke="#002fa7" stroke-linejoin="round" stroke-linecap="round" stroke-miterlimit="4" stroke-width="51.2" d="M402.144 535.037l-158.944 90.242 158.944 92.727"></path>
<path fill="none" stroke="#002fa7" stroke-linejoin="round" stroke-linecap="round" stroke-miterlimit="4" stroke-width="51.2" d="M614.4 535.037l158.944 90.242-158.944 92.727"></path>
</svg>
