<!-- Generated by IcoMoon.io -->
<svg version="1.1" xmlns="http://www.w3.org/2000/svg" width="1024" height="1024" viewBox="0 0 1024 1024">
<title></title>
<g id="icomoon-ignore">
</g>
<path fill="none" stroke="#000" stroke-linejoin="miter" stroke-linecap="butt" stroke-miterlimit="4" stroke-width="51.2" d="M887.467 149.333c28.277 0 51.2 22.923 51.2 51.2v452.267c0 28.277-22.923 51.2-51.2 51.2l-36.823 0.004c1.756-6.82 2.689-13.969 2.689-21.337 0-47.128-38.205-85.333-85.333-85.333s-85.333 38.205-85.333 85.333c0 7.368 0.934 14.518 2.689 21.337h-90.712c1.756-6.82 2.689-13.969 2.689-21.337 0-47.128-38.205-85.333-85.333-85.333s-85.333 38.205-85.333 85.333c0 7.368 0.934 14.518 2.689 21.337h-90.712c1.756-6.82 2.689-13.969 2.689-21.337 0-47.128-38.205-85.333-85.333-85.333s-85.333 38.205-85.333 85.333c0 7.368 0.934 14.518 2.689 21.337l-36.823-0.004c-28.277 0-51.2-22.923-51.2-51.2v-452.267c0-28.277 22.923-51.2 51.2-51.2h750.933z"></path>
<path fill="none" stroke="#000" stroke-linejoin="miter" stroke-linecap="butt" stroke-miterlimit="4" stroke-width="51.2" d="M136.533 149.333h750.933c28.277 0 51.2 22.923 51.2 51.2v119.467h-853.333v-119.467c0-28.277 22.923-51.2 51.2-51.2z"></path>
<path fill="none" stroke="#000" stroke-linejoin="round" stroke-linecap="butt" stroke-miterlimit="4" stroke-width="51.2" d="M768 768c70.692 0 128 57.308 128 128v0 0h-256c0-70.692 57.308-128 128-128z"></path>
<path fill="none" stroke="#000" stroke-linejoin="round" stroke-linecap="butt" stroke-miterlimit="4" stroke-width="51.2" d="M256 768c70.692 0 128 57.308 128 128v0 0h-256c0-70.692 57.308-128 128-128z"></path>
<path fill="none" stroke="#000" stroke-linejoin="round" stroke-linecap="butt" stroke-miterlimit="4" stroke-width="51.2" d="M853.333 682.667c0 47.128-38.205 85.333-85.333 85.333s-85.333-38.205-85.333-85.333c0-47.128 38.205-85.333 85.333-85.333s85.333 38.205 85.333 85.333z"></path>
<path fill="none" stroke="#000" stroke-linejoin="round" stroke-linecap="butt" stroke-miterlimit="4" stroke-width="51.2" d="M341.333 682.667c0 47.128-38.205 85.333-85.333 85.333s-85.333-38.205-85.333-85.333c0-47.128 38.205-85.333 85.333-85.333s85.333 38.205 85.333 85.333z"></path>
<path fill="none" stroke="#002fa7" stroke-linejoin="round" stroke-linecap="butt" stroke-miterlimit="4" stroke-width="51.2" d="M512 768c70.692 0 128 57.308 128 128v0 0h-256c0-70.692 57.308-128 128-128z"></path>
<path fill="none" stroke="#002fa7" stroke-linejoin="round" stroke-linecap="butt" stroke-miterlimit="4" stroke-width="51.2" d="M597.333 682.667c0 47.128-38.205 85.333-85.333 85.333s-85.333-38.205-85.333-85.333c0-47.128 38.205-85.333 85.333-85.333s85.333 38.205 85.333 85.333z"></path>
</svg>
