<!-- Generated by IcoMoon.io -->
<svg version="1.1" xmlns="http://www.w3.org/2000/svg" width="1024" height="1024" viewBox="0 0 1024 1024">
<title></title>
<g id="icomoon-ignore">
</g>
<path fill="none" stroke="#000" stroke-linejoin="miter" stroke-linecap="butt" stroke-miterlimit="4" stroke-width="51.2" d="M315.152 64h393.697c56.233 0 101.818 45.586 101.818 101.818v0c0 56.233-45.586 101.818-101.818 101.818h-393.697c-56.233 0-101.818-45.586-101.818-101.818v0c0-56.233 45.586-101.818 101.818-101.818z"></path>
<path fill="none" stroke="#000" stroke-linejoin="miter" stroke-linecap="butt" stroke-miterlimit="4" stroke-width="51.2" d="M315.152 267.636h393.697c56.233 0 101.818 45.586 101.818 101.818v0c0 56.233-45.586 101.818-101.818 101.818h-393.697c-56.233 0-101.818-45.586-101.818-101.818v0c0-56.233 45.586-101.818 101.818-101.818z"></path>
<path fill="none" stroke="#000" stroke-linejoin="miter" stroke-linecap="butt" stroke-miterlimit="4" stroke-width="51.2" d="M315.152 471.273h393.697c56.233 0 101.818 45.586 101.818 101.818v0c0 56.233-45.586 101.818-101.818 101.818h-393.697c-56.233 0-101.818-45.586-101.818-101.818v0c0-56.233 45.586-101.818 101.818-101.818z"></path>
<path fill="#002fa7" d="M362.667 165.818c0 22.493-19.103 40.727-42.667 40.727s-42.667-18.234-42.667-40.727c0-22.493 19.103-40.727 42.667-40.727s42.667 18.234 42.667 40.727z"></path>
<path fill="#002fa7" d="M362.667 369.455c0 22.493-19.103 40.727-42.667 40.727s-42.667-18.234-42.667-40.727c0-22.493 19.103-40.727 42.667-40.727s42.667 18.234 42.667 40.727z"></path>
<path fill="#002fa7" d="M362.667 573.091c0 22.493-19.103 40.727-42.667 40.727s-42.667-18.234-42.667-40.727c0-22.493 19.103-40.727 42.667-40.727s42.667 18.234 42.667 40.727z"></path>
<path fill="none" stroke="#000" stroke-linejoin="bevel" stroke-linecap="round" stroke-miterlimit="4" stroke-width="51.2" d="M512 674.909v122.182"></path>
<path fill="none" stroke="#000" stroke-linejoin="bevel" stroke-linecap="round" stroke-miterlimit="4" stroke-width="51.2" d="M917.333 878.545h-298.667"></path>
<path fill="none" stroke="#000" stroke-linejoin="bevel" stroke-linecap="round" stroke-miterlimit="4" stroke-width="51.2" d="M405.333 878.545h-298.667"></path>
<path fill="none" stroke="#002fa7" stroke-linejoin="miter" stroke-linecap="butt" stroke-miterlimit="4" stroke-width="51.2" d="M597.333 878.545c0 44.986-38.205 81.455-85.333 81.455s-85.333-36.468-85.333-81.455c0-44.986 38.205-81.455 85.333-81.455s85.333 36.468 85.333 81.455z"></path>
</svg>
