<!-- Generated by IcoMoon.io -->
<svg version="1.1" xmlns="http://www.w3.org/2000/svg" width="1024" height="1024" viewBox="0 0 1024 1024">
<title></title>
<g id="icomoon-ignore">
</g>
<path fill="none" stroke="#002fa7" stroke-linejoin="round" stroke-linecap="round" stroke-miterlimit="4" stroke-width="51.2" d="M697.747 884.922c0-39.253-15.787-68.267-37.547-88.96-34.56-33.067-82.347-48-110.933-49.92-23.467-2.347-44.8-12.16-60.373-27.733h-0.213c-15.573-16-25.387-36.907-25.387-60.8v-13.653c0-12.16 7.040-23.040 17.493-28.8 21.333-14.293 33.067-43.307 42.453-66.773 8.96-21.76 16.213-40.533 30.72-53.333l0.427-0.853 1.28-1.28c8.533-7.467 18.987-21.547 25.173-36.693 4.053-11.947 5.547-24.32-2.347-32.853l-0.64-1.493h-0.427c-7.253-8.747-9.813-25.387-6.4-36.48 6.4-20.48 11.093-39.68 13.227-58.027 2.133-17.92 2.56-34.347 0-49.707h-0.213c-2.773-19.413-17.92-53.547-38.4-78.080-11.307-12.587-23.467-21.973-33.28-20.267-11.52 1.28-22.613 0-32.853-4.693-9.6-4.907-18.347-11.947-24.533-21.973-5.12-7.040-17.493-11.733-32.213-14.293-18.987-3.413-40.747-2.987-56.96-2.987-38.827 0.64-72.107 8.747-98.347 26.24-23.040 15.787-40.747 39.467-51.84 72.747-9.173 25.6-13.867 54.4-13.44 81.707 0.427 26.24 4.693 50.347 13.867 70.613 1.493 4.48 2.56 8.96 2.56 13.227 0 8.533-2.987 16.64-8.533 23.040v0.427l-1.067 1.067c-6.4 8.32-5.333 20.267-1.493 31.787l0.213-1.067c5.973 16.427 17.493 30.933 25.387 38.4h0.427l2.773 2.987c13.44 12.8 20.48 30.72 28.8 51.84 10.027 24.747 22.187 55.040 45.653 69.12 10.24 5.973 16.213 16.64 16.213 27.733v12.373c0 24.32-10.027 45.227-25.387 60.8-15.787 15.573-37.12 25.387-60.16 27.733-28.8 1.92-76.8 16.853-110.933 49.92-22.187 20.693-37.76 49.707-37.76 88.96"></path>
<path fill="none" stroke="#000" stroke-linejoin="round" stroke-linecap="round" stroke-miterlimit="4" stroke-width="51.2" d="M925.139 885.135c0-30.72-12.587-53.12-29.653-69.76-26.667-25.387-65.067-37.12-87.68-39.68v0.213c-25.173-1.92-43.52-12.587-56.747-28.373-13.013-16.64-19.2-38.187-19.2-61.013 0-11.947 6.827-22.613 16.64-28.16 16.213-10.88 25.6-33.92 33.28-52.48 7.253-18.56 13.44-34.773 26.453-46.293l0.427-0.213 0.853-1.067c6.4-5.973 14.933-16.853 19.413-28.8 2.987-7.68 3.84-15.573-0.853-20.907-5.333-5.973-7.893-12.587-8.32-20.48-0.853-20.053 2.56-37.547 7.040-55.040 3.627-15.147 7.040-32 5.12-46.933-2.987-15.787-14.507-42.667-31.147-61.867-7.893-9.387-16.213-15.787-22.187-15.147-10.027 1.493-20.907 0-30.080-4.48l-1.707-0.853c-8.32-4.267-15.36-10.027-20.48-18.347l-0.427-0.427c-4.693-6.4-23.040-13.653-44.8-18.347l-2.133-0.427c-11.093-2.133-22.4-3.413-31.573-2.987"></path>
</svg>
