<!-- Generated by IcoMoon.io -->
<svg version="1.1" xmlns="http://www.w3.org/2000/svg" width="1024" height="1024" viewBox="0 0 1024 1024">
<title></title>
<g id="icomoon-ignore">
</g>
<path fill="none" stroke="#000" stroke-linejoin="miter" stroke-linecap="butt" stroke-miterlimit="4" stroke-width="51.2" d="M326.212 253.804c19.995 19.995 19.995 52.413 0 72.408s-52.413 19.995-72.408 0c-19.995-19.995-19.995-52.413 0-72.408s52.413-19.995 72.408 0z"></path>
<path fill="none" stroke="#000" stroke-linejoin="round" stroke-linecap="round" stroke-miterlimit="4" stroke-width="51.2" d="M326.212 326.212l72.408 72.408"></path>
<path fill="none" stroke="#000" stroke-linejoin="miter" stroke-linecap="butt" stroke-miterlimit="4" stroke-width="51.2" d="M697.412 253.804c-19.995 19.995-19.995 52.413 0 72.408s52.413 19.995 72.408 0c19.995-19.995 19.995-52.413 0-72.408s-52.413-19.995-72.408 0z"></path>
<path fill="none" stroke="#000" stroke-linejoin="round" stroke-linecap="round" stroke-miterlimit="4" stroke-width="51.2" d="M697.412 326.212l-72.408 72.408"></path>
<path fill="none" stroke="#000" stroke-linejoin="miter" stroke-linecap="butt" stroke-miterlimit="4" stroke-width="51.2" d="M326.212 769.819c19.995-19.995 19.995-52.413 0-72.408s-52.413-19.995-72.408 0c-19.995 19.995-19.995 52.413 0 72.408s52.413 19.995 72.408 0z"></path>
<path fill="none" stroke="#000" stroke-linejoin="round" stroke-linecap="round" stroke-miterlimit="4" stroke-width="51.2" d="M326.212 697.412l72.408-72.408"></path>
<path fill="none" stroke="#000" stroke-linejoin="miter" stroke-linecap="butt" stroke-miterlimit="4" stroke-width="51.2" d="M697.412 769.819c-19.995-19.995-19.995-52.413 0-72.408s52.413-19.995 72.408 0c19.995 19.995 19.995 52.413 0 72.408s-52.413 19.995-72.408 0z"></path>
<path fill="none" stroke="#000" stroke-linejoin="round" stroke-linecap="round" stroke-miterlimit="4" stroke-width="51.2" d="M697.412 697.412l-72.408-72.408"></path>
<path fill="#002fa7" d="M623.302 480.104l-122 204.645c-2.394 3.977-6.605 6.413-11.154 6.451h-3.486c-2.441-0.005-4.773-1.041-6.449-2.867-1.667-1.833-2.491-4.311-2.266-6.81l9.76-115.762h-62.22c-4.681-0.052-8.988-2.641-11.329-6.81l-3.311-5.914c-1.663-2.806-1.663-6.333 0-9.139l122-204.645c2.459-4.086 6.83-6.538 11.503-6.453h3.486c2.441 0.007 4.773 1.044 6.449 2.869 1.667 1.833 2.491 4.311 2.266 6.81l-9.934 115.762h62.22c4.681 0.052 8.988 2.641 11.329 6.81l3.311 5.914c1.61 2.84 1.543 6.366-0.174 9.139z"></path>
</svg>
