<?xml version="1.0" encoding="UTF-8"?>
<svg width="80px" height="80px" viewBox="0 0 80 80" version="1.1" xmlns="http://www.w3.org/2000/svg" xmlns:xlink="http://www.w3.org/1999/xlink">
    <title>插画/light/选中/三级插画/15</title>
    <g id="插画/light/选中/三级插画/15" stroke="none" stroke-width="1" fill="none" fill-rule="evenodd">
        <circle id="椭圆形" fill="#002FA7" opacity="0.400000006" cx="27" cy="40" r="17"></circle>
        <g id="编组-2" transform="translate(10.000000, 10.000000)">
            <g id="编组" transform="translate(11.074846, 11.074846) rotate(-45.000000) translate(-11.074846, -11.074846) translate(5.854113, 0.633381)" stroke="#000000" stroke-width="2">
                <circle id="椭圆形" cx="5.22073226" cy="5.22073226" r="5.22073226"></circle>
                <line x1="5.22073226" y1="10.4414645" x2="5.22073226" y2="20.882929" id="路径-12" stroke-linecap="round" stroke-linejoin="round"></line>
            </g>
            <g id="编组" transform="translate(48.925154, 11.074846) scale(-1, 1) rotate(-45.000000) translate(-48.925154, -11.074846) translate(43.704422, 0.633381)" stroke="#000000" stroke-width="2">
                <circle id="椭圆形" cx="5.22073226" cy="5.22073226" r="5.22073226"></circle>
                <line x1="5.22073226" y1="10.4414645" x2="5.22073226" y2="20.882929" id="路径-12" stroke-linecap="round" stroke-linejoin="round"></line>
            </g>
            <g id="编组" transform="translate(11.074846, 48.925154) scale(1, -1) rotate(-45.000000) translate(-11.074846, -48.925154) translate(5.854113, 38.483690)" stroke="#000000" stroke-width="2">
                <circle id="椭圆形" cx="5.22073226" cy="5.22073226" r="5.22073226"></circle>
                <line x1="5.22073226" y1="10.4414645" x2="5.22073226" y2="20.882929" id="路径-12" stroke-linecap="round" stroke-linejoin="round"></line>
            </g>
            <g id="编组" transform="translate(48.925154, 48.925154) scale(-1, -1) rotate(-45.000000) translate(-48.925154, -48.925154) translate(43.704422, 38.483690)" stroke="#000000" stroke-width="2">
                <circle id="椭圆形" cx="5.22073226" cy="5.22073226" r="5.22073226"></circle>
                <line x1="5.22073226" y1="10.4414645" x2="5.22073226" y2="20.882929" id="路径-12" stroke-linecap="round" stroke-linejoin="round"></line>
            </g>
            <path d="M41.3683946,26.7668278 L28.9283554,47.6339652 C28.6842412,48.0394969 28.2548114,48.2878604 27.7909804,48.2917734 L27.4355507,48.2917734 C27.1866215,48.2912989 26.9488394,48.1855757 26.7780058,47.9994142 C26.6080436,47.8125347 26.5239591,47.559821 26.5469765,47.3050611 L27.5421796,35.5010587 L21.1977596,35.5010587 C20.7204261,35.4957599 20.2812659,35.2317828 20.0426131,34.8067056 L19.7049549,34.2037148 C19.535343,33.9175598 19.535343,33.5579748 19.7049549,33.2718199 L32.1449941,12.4046824 C32.3957256,11.9880167 32.8414525,11.7380395 33.3179121,11.7466476 L33.6733418,11.7466476 C33.922271,11.7473488 34.1600531,11.853072 34.3308867,12.0392334 C34.5008489,12.2261129 34.5849333,12.4788267 34.561916,12.7335865 L33.5489414,24.5375889 L39.8933614,24.5375889 C40.3706949,24.5428878 40.809855,24.8068649 41.0485079,25.231942 L41.3861661,25.8349329 C41.5503593,26.124497 41.5435015,26.4841041 41.3683946,26.7668278 Z" id="Icon-color" fill="#002FA7" fill-rule="nonzero"></path>
        </g>
    </g>
</svg>