<!-- Generated by IcoMoon.io -->
<svg version="1.1" xmlns="http://www.w3.org/2000/svg" width="1024" height="1024" viewBox="0 0 1024 1024">
<title></title>
<g id="icomoon-ignore">
</g>
<path fill="none" stroke="#000" stroke-linejoin="miter" stroke-linecap="butt" stroke-miterlimit="4" stroke-width="51.2" d="M560.723 128c14.138 0 25.6 11.462 25.6 25.6l0.005 57.7c30.617 7.543 59.442 19.639 85.715 35.53l40.831-40.811c9.997-9.997 26.206-9.997 36.204 0l68.904 68.904c9.997 9.997 9.997 26.206 0 36.204l-40.811 40.831c15.891 26.273 27.987 55.098 35.53 85.715l57.7 0.005c14.138 0 25.6 11.462 25.6 25.6v97.445c0 14.138-11.462 25.6-25.6 25.6l-57.7 0.005c-7.543 30.617-19.639 59.442-35.53 85.715l40.811 40.831c9.997 9.997 9.997 26.206 0 36.204l-68.904 68.904c-9.997 9.997-26.206 9.997-36.204 0l-40.831-40.811c-26.273 15.891-55.098 27.987-85.715 35.53l-0.005 57.7c0 14.138-11.462 25.6-25.6 25.6h-97.445c-14.138 0-25.6-11.462-25.6-25.6l-0.005-57.7c-30.617-7.543-59.442-19.639-85.715-35.53l-40.831 40.811c-9.997 9.997-26.206 9.997-36.204 0l-68.904-68.904c-9.997-9.997-9.997-26.206 0-36.204l40.811-40.831c-15.891-26.273-27.987-55.098-35.53-85.715l-57.7-0.005c-14.138 0-25.6-11.462-25.6-25.6v-97.445c0-14.138 11.462-25.6 25.6-25.6l57.7-0.005c7.543-30.617 19.639-59.442 35.53-85.715l-40.811-40.831c-9.997-9.997-9.997-26.206 0-36.204l68.904-68.904c9.997-9.997 26.206-9.997 36.204 0l40.831 40.811c26.273-15.891 55.098-27.987 85.715-35.53l0.005-57.7c0-14.138 11.462-25.6 25.6-25.6h97.445z"></path>
<path fill="#002fa7" d="M512 396.8c21.456 0 41.543 5.866 58.743 16.082-6.398-2.123-13.235-3.282-20.343-3.282-35.346 0-64 28.654-64 64s28.654 64 64 64c35.346 0 64-28.654 64-64 0-7.108-1.159-13.945-3.297-20.333 10.231 17.19 16.097 37.276 16.097 58.733 0 50.148-32.043 92.813-76.772 108.635l-0.028 108.965h-76.8l-0.002-108.956c-44.742-15.815-76.798-58.486-76.798-108.644 0-63.623 51.577-115.2 115.2-115.2z"></path>
<path fill="none" stroke="#000" stroke-linejoin="miter" stroke-linecap="butt" stroke-miterlimit="4" stroke-width="51.2" d="M729.6 512c0 120.177-97.423 217.6-217.6 217.6s-217.6-97.423-217.6-217.6c0-120.177 97.423-217.6 217.6-217.6s217.6 97.423 217.6 217.6z"></path>
</svg>
