<?xml version="1.0" encoding="UTF-8"?>
<svg width="80px" height="80px" viewBox="0 0 80 80" version="1.1" xmlns="http://www.w3.org/2000/svg" xmlns:xlink="http://www.w3.org/1999/xlink">
    <title>插画/light/未选中/三级插画/17</title>
    <g id="插画/light/未选中/三级插画/17" stroke="none" stroke-width="1" fill="none" fill-rule="evenodd">
        <g id="编组-3" transform="translate(10.232646, 10.000000)">
            <polygon id="矩形" stroke="#000000" stroke-width="2" stroke-linejoin="round" points="29.7146755 15.4285714 43.3929004 22.2215504 29.7146755 29.0145293 16.0364507 22.2215504"></polygon>
            <polygon id="矩形" stroke="#000000" stroke-width="2" stroke-linejoin="round" points="16.0364507 22.3138173 29.8069425 29.1990632 29.8069425 45.4285714 16.0364507 37.4407589"></polygon>
            <polygon id="矩形" stroke="#000000" stroke-width="2" stroke-linejoin="round" transform="translate(36.692188, 33.871194) scale(-1, 1) translate(-36.692188, -33.871194) " points="29.8069425 22.3138173 43.5774343 29.1990632 43.5774343 45.4285714 29.8069425 37.4407589"></polygon>
            <g id="编组" transform="translate(25.465022, 0.000000)" stroke="#000000" stroke-width="2">
                <circle id="椭圆形" cx="4.28571429" cy="4.28571429" r="4.28571429"></circle>
                <line x1="4.34192037" y1="8.57142857" x2="4.34192037" y2="16.5" id="路径-14"></line>
            </g>
            <g id="编组" transform="translate(9.287567, 41.516253) rotate(-120.000000) translate(-9.287567, -41.516253) translate(5.001852, 33.266253)" stroke="#000000" stroke-width="2">
                <circle id="椭圆形" cx="4.28571429" cy="4.28571429" r="4.28571429"></circle>
                <line x1="4.34192037" y1="8.57142857" x2="4.34192037" y2="16.5" id="路径-14"></line>
            </g>
            <g id="编组" transform="translate(50.001852, 41.516253) scale(-1, 1) rotate(-120.000000) translate(-50.001852, -41.516253) translate(45.716138, 33.266253)" stroke="#000000" stroke-width="2">
                <circle id="椭圆形" cx="4.28571429" cy="4.28571429" r="4.28571429"></circle>
                <line x1="4.34192037" y1="8.57142857" x2="4.34192037" y2="16.5" id="路径-14"></line>
            </g>
            <g id="编组-2" transform="translate(7.250736, 17.142857) rotate(-60.000000) translate(-7.250736, -17.142857) translate(4.036451, 11.785714)" fill="#002FA7">
                <circle id="椭圆形" cx="3.21428571" cy="3.21428571" r="3.21428571"></circle>
                <rect id="矩形" x="2.14285714" y="5.35714286" width="2.14285714" height="5.35714286" rx="1"></rect>
            </g>
            <g id="编组-2" transform="translate(29.750736, 54.642857) scale(1, -1) translate(-29.750736, -54.642857) translate(26.536451, 49.285714)" fill="#002FA7">
                <circle id="椭圆形" cx="3.21428571" cy="3.21428571" r="3.21428571"></circle>
                <rect id="矩形" x="2.14285714" y="5.35714286" width="2.14285714" height="5.35714286" rx="1"></rect>
            </g>
            <g id="编组-2" transform="translate(52.250736, 17.142857) scale(-1, 1) rotate(-60.000000) translate(-52.250736, -17.142857) translate(49.036451, 11.785714)" fill="#002FA7">
                <circle id="椭圆形" cx="3.21428571" cy="3.21428571" r="3.21428571"></circle>
                <rect id="矩形" x="2.14285714" y="5.35714286" width="2.14285714" height="5.35714286" rx="1"></rect>
            </g>
        </g>
    </g>
</svg>