<!-- Generated by IcoMoon.io -->
<svg version="1.1" xmlns="http://www.w3.org/2000/svg" width="1024" height="1024" viewBox="0 0 1024 1024">
<title></title>
<g id="icomoon-ignore">
</g>
<path fill="none" stroke="#000" stroke-linejoin="round" stroke-linecap="butt" stroke-miterlimit="4" stroke-width="51.2" d="M511.569 337.92l163.409 81.153-163.409 81.153-163.409-81.153z"></path>
<path fill="none" stroke="#000" stroke-linejoin="round" stroke-linecap="butt" stroke-miterlimit="4" stroke-width="51.2" d="M348.16 420.176l164.511 82.256v193.889l-164.511-95.428z"></path>
<path fill="none" stroke="#000" stroke-linejoin="round" stroke-linecap="butt" stroke-miterlimit="4" stroke-width="51.2" d="M677.183 420.176l-164.511 82.256v193.889l164.511-95.428z"></path>
<path fill="none" stroke="#000" stroke-linejoin="miter" stroke-linecap="butt" stroke-miterlimit="4" stroke-width="51.2" d="M563.2 204.8c0 28.277-22.923 51.2-51.2 51.2s-51.2-22.923-51.2-51.2c0-28.277 22.923-51.2 51.2-51.2s51.2 22.923 51.2 51.2z"></path>
<path fill="none" stroke="#000" stroke-linejoin="miter" stroke-linecap="butt" stroke-miterlimit="4" stroke-width="51.2" d="M512.671 256v94.72"></path>
<path fill="none" stroke="#000" stroke-linejoin="miter" stroke-linecap="butt" stroke-miterlimit="4" stroke-width="51.2" d="M200.918 628.92c24.489-14.138 55.802-5.748 69.941 18.741s5.748 55.802-18.741 69.941c-24.489 14.138-55.802 5.748-69.941-18.741s-5.748-55.802 18.741-69.941z"></path>
<path fill="none" stroke="#000" stroke-linejoin="miter" stroke-linecap="butt" stroke-miterlimit="4" stroke-width="51.2" d="M270.523 647.079l82.030-47.36"></path>
<path fill="none" stroke="#000" stroke-linejoin="miter" stroke-linecap="butt" stroke-miterlimit="4" stroke-width="51.2" d="M820.548 628.92c-24.489-14.138-55.802-5.748-69.941 18.741s-5.748 55.802 18.741 69.941c24.489 14.138 55.802 5.748 69.941-18.741s5.748-55.802-18.741-69.941z"></path>
<path fill="none" stroke="#000" stroke-linejoin="miter" stroke-linecap="butt" stroke-miterlimit="4" stroke-width="51.2" d="M750.944 647.079l-82.030-47.36"></path>
<path fill="#002fa7" d="M240.23 312.345c18.366 10.604 24.659 34.089 14.055 52.455s-34.089 24.659-52.455 14.055c-18.366-10.604-24.659-34.089-14.055-52.455s34.089-24.659 52.455-14.055z"></path>
<path fill="#002fa7" d="M243.2 358.4c3.535-6.122 11.363-8.22 17.485-4.685l33.255 19.2c6.122 3.535 8.22 11.363 4.685 17.485s-11.363 8.22-17.485 4.685l-33.255-19.2c-6.122-3.535-8.22-11.363-4.685-17.485z"></path>
<path fill="#002fa7" d="M550.4 832c0-21.208-17.192-38.4-38.4-38.4s-38.4 17.192-38.4 38.4c0 21.208 17.192 38.4 38.4 38.4s38.4-17.192 38.4-38.4z"></path>
<path fill="#002fa7" d="M512 806.4c7.069 0 12.8-5.731 12.8-12.8v-38.4c0-7.069-5.731-12.8-12.8-12.8s-12.8 5.731-12.8 12.8v38.4c0 7.069 5.731 12.8 12.8 12.8z"></path>
<path fill="#002fa7" d="M783.77 312.345c-18.366 10.604-24.659 34.089-14.055 52.455s34.089 24.659 52.455 14.055c18.366-10.604 24.659-34.089 14.055-52.455s-34.089-24.659-52.455-14.055z"></path>
<path fill="#002fa7" d="M780.8 358.4c-3.535-6.122-11.363-8.22-17.485-4.685l-33.255 19.2c-6.122 3.535-8.22 11.363-4.685 17.485s11.363 8.22 17.485 4.685l33.255-19.2c6.122-3.535 8.22-11.363 4.685-17.485z"></path>
</svg>
