<!-- Generated by IcoMoon.io -->
<svg version="1.1" xmlns="http://www.w3.org/2000/svg" width="1024" height="1024" viewBox="0 0 1024 1024">
<title></title>
<g id="icomoon-ignore">
</g>
<path fill="none" stroke="#000" stroke-linejoin="miter" stroke-linecap="butt" stroke-miterlimit="4" stroke-width="51.2" d="M896 512c0 212.077-171.923 384-384 384s-384-171.923-384-384c0-212.077 171.923-384 384-384s384 171.923 384 384z"></path>
<path fill="none" stroke="#000" stroke-linejoin="miter" stroke-linecap="butt" stroke-miterlimit="4" stroke-width="51.2" d="M704 512c0 212.077-85.961 384-192 384s-192-171.923-192-384c0-212.077 85.961-384 192-384s192 171.923 192 384z"></path>
<path fill="none" stroke="#000" stroke-linejoin="miter" stroke-linecap="butt" stroke-miterlimit="4" stroke-width="51.2" d="M512 704c-212.077 0-384-85.961-384-192s171.923-192 384-192c212.077 0 384 85.961 384 192s-171.923 192-384 192z"></path>
<path fill="#002fa7" d="M742.4 332.8c0 35.346-28.654 64-64 64s-64-28.654-64-64c0-35.346 28.654-64 64-64s64 28.654 64 64z"></path>
<path fill="#002fa7" d="M409.6 678.4c0 35.346-28.654 64-64 64s-64-28.654-64-64c0-35.346 28.654-64 64-64s64 28.654 64 64z"></path>
</svg>
