<!-- Generated by IcoMoon.io -->
<svg version="1.1" xmlns="http://www.w3.org/2000/svg" width="1024" height="1024" viewBox="0 0 1024 1024">
<title></title>
<g id="icomoon-ignore">
</g>
<path fill="none" stroke="#000" stroke-linejoin="miter" stroke-linecap="butt" stroke-miterlimit="4" stroke-width="51.2" d="M204.8 665.6h614.4v204.8h-614.4v-204.8z"></path>
<path fill="#002fa7" d="M349.046 388.571c0-37.871 31.267-68.571 69.837-68.571s69.837 30.7 69.837 68.571c0 37.871-31.267 68.571-69.837 68.571s-69.837-30.7-69.837-68.571zM605.117 457.143c38.57 0 69.837-30.7 69.837-68.571s-31.267-68.571-69.837-68.571c-38.57 0-69.837 30.7-69.837 68.571s31.267 68.571 69.837 68.571zM765.51 606.857l-33.522-66.057c-11.807-23.221-35.955-37.907-62.388-37.943h-93.117c4.26 5.441 8 11.256 11.174 17.371l33.755 66.286c8.353 16.688 9.445 35.992 3.026 53.486h120.353c8.068-0.024 15.549-4.148 19.769-10.9s4.58-15.168 0.949-22.243zM545.755 540.8c-11.844-23.295-36.104-37.994-62.621-37.943h-128.501c-26.517-0.051-50.776 14.648-62.621 37.943l-33.522 66.057c-3.631 7.075-3.272 15.491 0.949 22.243s11.701 10.876 19.769 10.9h279.35c8.068-0.024 15.549-4.148 19.769-10.9s4.58-15.168 0.949-22.243l-33.522-66.057z"></path>
<path fill="none" stroke="#000" stroke-linejoin="round" stroke-linecap="round" stroke-miterlimit="4" stroke-width="51.2" d="M307.2 358.4h-102.4v-204.8h614.4v204.8h-102.4"></path>
<path fill="none" stroke="#000" stroke-linejoin="round" stroke-linecap="round" stroke-miterlimit="4" stroke-width="51.2" d="M307.758 409.6h-102.958v204.8h26.633"></path>
<path fill="none" stroke="#000" stroke-linejoin="round" stroke-linecap="round" stroke-miterlimit="4" stroke-width="51.2" d="M716.8 409.6h102.958v204.8h-26.633"></path>
</svg>
