<?xml version="1.0" encoding="UTF-8"?>
<svg width="28px" height="28px" viewBox="0 0 28 28" version="1.1" xmlns="http://www.w3.org/2000/svg" xmlns:xlink="http://www.w3.org/1999/xlink">
    <title>Style</title>
    <g id="控件" stroke="none" stroke-width="1" fill="none" fill-rule="evenodd">
        <g id="icon可点击" transform="translate(-103.000000, -57.000000)" fill="#252C32">
            <path d="M126,75.0000001 C128.761424,75.0000001 131,77.2385763 131,80.0000001 L131,80.0000001 L131,85.0000001 L129,85.0000001 L129,80.0000001 C129,78.3431458 127.656854,77.0000001 126,77.0000001 L126,77.0000001 L116,77.0000001 C114.343146,77.0000001 113,78.3431458 113,80.0000001 L113,80.0000001 L113,85.0000001 L111,85.0000001 L111,80.0000001 C111,77.2385763 113.238576,75.0000001 116,75.0000001 L116,75.0000001 Z M121,64 C123.761424,64 126,66.2385763 126,69 C126,71.7614238 123.761424,74 121,74 C118.238576,74 116,71.7614238 116,69 C116,66.2385763 118.238576,64 121,64 Z M114,66 L114,68 L107,68 C105.895431,68 105,68.8954305 105,70 L105,70 L105,74 L103,74 L103,70 C103,67.790861 104.790861,66 107,66 L107,66 L114,66 Z M121,66 C119.343146,66 118,67.3431458 118,69 C118,70.6568543 119.343146,72 121,72 C122.656854,72 124,70.6568543 124,69 C124,67.3431458 122.656854,66 121,66 Z M109.94,57 C112.149139,57 113.94,58.790861 113.94,61 C113.94,63.209139 112.149139,65 109.94,65 C107.730861,65 105.94,63.209139 105.94,61 C105.94,58.790861 107.730861,57 109.94,57 Z M109.94,59 C108.835431,59 107.94,59.8954305 107.94,61 C107.94,62.1045695 108.835431,63 109.94,63 C111.04457,63 111.94,62.1045695 111.94,61 C111.94,59.8954305 111.04457,59 109.94,59 Z" id="Style"></path>
        </g>
    </g>
</svg>