<?xml version="1.0" encoding="UTF-8"?>
<svg width="24px" height="28px" viewBox="0 0 24 28" version="1.1" xmlns="http://www.w3.org/2000/svg" xmlns:xlink="http://www.w3.org/1999/xlink">
    <title>Style</title>
    <g id="控件" stroke="none" stroke-width="1" fill="none" fill-rule="evenodd">
        <g id="icon可点击" transform="translate(-292.000000, -392.000000)" fill="#252C32">
            <path d="M305,392 C306.656854,392 308,393.343146 308,395 L308,395 L308,396 L316,396 L316,398 L314,398 L314,417 C314,418.656854 312.656854,420 311,420 L311,420 L297,420 C295.343146,420 294,418.656854 294,417 L294,417 L294,398 L292,398 L292,396 L300,396 L300,395 C300,393.343146 301.343146,392 303,392 L303,392 Z M312,398 L296,398 L296,417 C296,417.552285 296.447715,418 297,418 L297,418 L311,418 C311.552285,418 312,417.552285 312,417 L312,417 L312,398 Z M305,402 L305,414 L303,414 L303,402 L305,402 Z M309,402 L309,414 L307,414 L307,402 L309,402 Z M301,402 L301,414 L299,414 L299,402 L301,402 Z M305,394 L303,394 C302.447715,394 302,394.447715 302,395 L302,395 L302,396 L306,396 L306,395 C306,394.447715 305.552285,394 305,394 L305,394 Z" id="Style"></path>
        </g>
    </g>
</svg>