<?xml version="1.0" encoding="UTF-8"?>
<svg width="30px" height="28px" viewBox="0 0 30 28" version="1.1" xmlns="http://www.w3.org/2000/svg" xmlns:xlink="http://www.w3.org/1999/xlink">
    <title>Style</title>
    <g id="控件" stroke="none" stroke-width="1" fill="none" fill-rule="evenodd">
        <g id="icon可点击" transform="translate(-40.000000, -227.000000)" fill="#252C32">
            <path d="M56.8300001,227.845722 C55.6415865,226.718093 53.7784136,226.718093 52.59,227.845722 L40,240.425722 L41.42,241.845722 L43.71,239.555722 L43.71,251.965722 C43.71,253.622576 45.0531458,254.965722 46.71,254.965722 L62.7100001,254.965722 C64.3668543,254.965722 65.7100001,253.622576 65.7100001,251.965722 L65.7100001,239.555722 L68,241.845722 L69.4200001,240.425722 L56.8300001,227.845722 Z M52.71,252.965722 L52.71,245.965722 L56.71,245.965722 L56.71,252.965722 L52.71,252.965722 Z M63.71,251.965722 C63.71,252.518006 63.2622848,252.965722 62.71,252.965722 L58.71,252.965722 L58.71,243.965722 L50.71,243.965722 L50.71,252.965722 L46.71,252.965722 C46.1577153,252.965722 45.71,252.518006 45.71,251.965722 L45.71,237.555722 L54,229.255722 C54.1877666,229.066409 54.4433625,228.959923 54.71,228.959923 C54.9766376,228.959923 55.2322334,229.066409 55.42,229.255722 L63.71,237.555722 L63.71,251.965722 Z" id="Style"></path>
        </g>
    </g>
</svg>