<?xml version="1.0" encoding="UTF-8"?>
<svg width="28px" height="28px" viewBox="0 0 28 28" version="1.1" xmlns="http://www.w3.org/2000/svg" xmlns:xlink="http://www.w3.org/1999/xlink">
    <title>Style</title>
    <g id="控件" stroke="none" stroke-width="1" fill="none" fill-rule="evenodd">
        <g id="icon可点击" transform="translate(-170.000000, -227.000000)" fill="#252C32">
            <path d="M191,242.88 L186.07,245.35 C185.760599,245.528633 185.379401,245.528633 185.07,245.35 C182.95708,243.888745 181.127344,242.05562 179.67,239.94 C179.491367,239.630599 179.491367,239.249401 179.67,238.94 L182.12,234 L178.62,227 L170,227 L170,228 C170,242.911688 182.088312,255 197,255 L198,255 L198,246.38 L191,242.88 Z M196,253 C182.963059,252.488164 172.511836,242.036941 172,229 L177.38,229 L179.88,234 L177.88,238 C177.401626,238.961889 177.474096,240.106148 178.07,241 C179.660914,243.347619 181.671212,245.381647 184,247 C184.893852,247.595904 186.038111,247.668374 187,247.19 L191,245.19 L196,247.69 L196,253 Z" id="Style"></path>
        </g>
    </g>
</svg>