<?xml version="1.0" encoding="UTF-8"?>
<svg width="22px" height="29px" viewBox="0 0 22 29" version="1.1" xmlns="http://www.w3.org/2000/svg" xmlns:xlink="http://www.w3.org/1999/xlink">
    <title>Style</title>
    <g id="控件" stroke="none" stroke-width="1" fill="none" fill-rule="evenodd">
        <g id="icon可点击" transform="translate(-106.000000, -227.000000)" fill="#252C32">
            <path d="M117,227 C123.075132,227 128,231.924868 128,238 C128,247.41 118,254.52 117.57,254.82 L117.57,254.82 L117,255.22 L116.43,254.82 C116,254.52 106,247.41 106,238 C106,231.924868 110.924868,227 117,227 Z M117,229 C112.029437,229 108,233.029437 108,238 C108,245.15 114.93,251.13 117,252.75 C119.07,251.13 126,245.15 126,238 C126,233.029437 121.970563,229 117,229 Z M117,234 C118.060866,234 119.078282,234.421427 119.828427,235.171573 C120.578573,235.921718 121,236.939134 121,238 C121,240.209139 119.209139,242 117,242 C114.790861,242 113,240.209139 113,238 C113,235.790861 114.790861,234 117,234 Z M117,236 C115.895431,236 115,236.895431 115,238 C115,239.10457 115.895431,240 117,240 C118.10457,240 119,239.10457 119,238 C119,236.895431 118.10457,236 117,236 Z" id="Style"></path>
        </g>
    </g>
</svg>