<?xml version="1.0" encoding="UTF-8"?>
<svg width="28px" height="27px" viewBox="0 0 28 27" version="1.1" xmlns="http://www.w3.org/2000/svg" xmlns:xlink="http://www.w3.org/1999/xlink">
    <title>形状结合</title>
    <g id="控件" stroke="none" stroke-width="1" fill="none" fill-rule="evenodd">
        <g id="icon可点击" transform="translate(-42.000000, -571.000000)" fill="#252C32">
            <path d="M68,591.59 C69.1045695,591.59 70,592.485431 70,593.59 L70,595.59 C70,596.69457 69.1045695,597.59 68,597.59 L44,597.59 C42.8954305,597.59 42,596.69457 42,595.59 L42,593.59 C42,592.485431 42.8954305,591.59 44,591.59 L68,591.59 Z M67,593.59 L45,593.59 C44.4477153,593.59 44,594.037715 44,594.59 C44,595.102836 44.3860402,595.525507 44.8833789,595.583272 L45,595.59 L67,595.59 C67.5522848,595.59 68,595.142285 68,594.59 C68,594.037715 67.5522848,593.59 67,593.59 Z M65.5000001,571.59 C67.0177969,571.59 68.2584778,572.776474 68.3451619,574.272541 L68.35,574.44 L68.35,590.59 L43.65,590.59 L43.65,574.44 C43.65,572.922203 44.836474,571.681522 46.3325409,571.594838 L46.5,571.59 L65.5000001,571.59 Z M65.3750001,573.59 L46.625,573.59 C46.1442164,573.59 45.747962,573.951913 45.6938073,574.418168 L45.6875,574.5275 L45.6875,588.59 L66.3125,588.59 L66.3125,574.5275 C66.3125,574.009733 65.892767,573.59 65.3750001,573.59 Z M56.3281694,576.59 L58.2600211,577.107638 L55.9306497,585.800971 L53.998798,585.283332 L56.3281694,576.59 Z M60.517767,577.678448 L64.0533009,581.213982 L60.517767,584.749516 L59.1035534,583.335302 L61.225,581.213448 L59.1035534,579.092662 L60.517767,577.678448 Z M51.5355339,577.678448 L52.9497475,579.092662 L50.828,581.213448 L52.9497475,583.335302 L51.5355339,584.749516 L48,581.213982 L51.5355339,577.678448 Z" id="形状结合"></path>
        </g>
    </g>
</svg>