<?xml version="1.0" encoding="UTF-8"?>
<svg width="1804px" height="926px" viewBox="0 0 1804 926" version="1.1" xmlns="http://www.w3.org/2000/svg" xmlns:xlink="http://www.w3.org/1999/xlink">
    <title>编组 8</title>
    <g id="Web" stroke="none" stroke-width="1" fill="none" fill-rule="evenodd">
        <g id="直播页背景" transform="translate(-58.000000, 0.000000)">
            <g id="编组-8" transform="translate(58.000000, 0.000000)">
                <path d="M90,485.5 C90,460.923329 69.8528103,441 45,441 C20.147191,441 0,460.923329 0,485.5 C0,510.076666 20.147191,530 45,530 C69.8528103,530 90,510.076666 90,485.5 Z" id="Fill-1" fill="#02BC86"></path>
                <path d="M1538,44.5 C1538,19.9233289 1517.85281,0 1493,0 C1468.14719,0 1448,19.9233289 1448,44.5 C1448,69.076666 1468.14719,89 1493,89 C1517.85281,89 1538,69.076666 1538,44.5 Z" id="Fill-1备份" fill="#32C5FF"></path>
                <path d="M259,39 C259,27.9543 250.0457,19 239,19 C227.9543,19 219,27.9543 219,39 C219,50.0457 227.9543,59 239,59 C250.0457,59 259,50.0457 259,39 Z" id="Fill-2" fill="#FFB32A"></path>
                <path d="M768,910.5 C768,901.9396 761.2843,895 753,895 C744.7157,895 738,901.9396 738,910.5 C738,919.06041 744.7157,926 753,926 C761.2843,926 768,919.06041 768,910.5 Z" id="Fill-3" fill="#32C5FF"></path>
                <path d="M1338,669.5 C1338,644.923329 1317.85281,625 1293,625 C1268.14719,625 1248,644.923329 1248,669.5 C1248,694.076666 1268.14719,714 1293,714 C1317.85281,714 1338,694.076666 1338,669.5 Z" id="Fill-1" fill="#F87770"></path>
                <path d="M1199,192 C1199,180.9543 1190.0457,172 1179,172 C1167.9543,172 1159,180.9543 1159,192 C1159,203.0457 1167.9543,212 1179,212 C1190.0457,212 1199,203.0457 1199,192 Z" id="Fill-2" fill="#FFB32A"></path>
                <g id="编组" transform="translate(1774.000000, 474.000000)"></g>
            </g>
        </g>
    </g>
</svg>