<?xml version="1.0" encoding="UTF-8"?>
<svg width="145px" height="190px" viewBox="0 0 145 190" version="1.1" xmlns="http://www.w3.org/2000/svg" xmlns:xlink="http://www.w3.org/1999/xlink">
    <title>Fill 1</title>
    <g id="Web" stroke="none" stroke-width="1" fill="none" fill-rule="evenodd">
        <g id="直播页面所需切图" transform="translate(-1565.000000, -88.000000)">
            <g id="Article-Big备份-13" transform="translate(1565.000000, 23.000000)">
                <path d="M448.819637,159.683725 C464.884067,130.780514 430.438247,114.85337 416.554969,88.2571472 C402.671597,61.6609242 411.948625,3.01981485 365.519594,0.10657507 C319.090563,-2.80666471 289.635902,54.9154428 236.928366,61.755566 C184.220736,68.5956893 111.605116,24.2107518 49.2741715,41.1474085 C31.4195841,46.5563562 -9.15264996,78.9226304 1.86875588,127.288814 C14.3893817,173.148962 58.3917393,178.160564 77.9225206,204.538182 C97.4532268,230.915789 88.1010838,274.778291 119.053355,285.554354 C150.005636,296.330416 190.700512,264.141792 227.655371,263.179817 C264.610324,262.217841 303.177695,315.211887 340.782698,279.782457 C370.391923,242.849472 353.635143,246.607897 377.138341,213.559986 C400.641632,180.512056 432.755206,188.586936 448.819637,159.683725 Z" id="Fill-1" fill="#002FA8" transform="translate(226.500000, 146.000000) scale(1, -1) translate(-226.500000, -146.000000) "></path>
                <g id="Outlined/UI/video" transform="translate(101.000000, 83.000000)" fill="#FFFFFF">
                    <path d="M9.70710678,3.29289322 L14.414,8 L17.426,8 L22.1339691,3.29289322 C22.5244934,2.90236893 23.1576583,2.90236893 23.5481826,3.29289322 C23.9086666,3.65337718 23.9363961,4.22060824 23.6313712,4.61289944 L23.5481826,4.70710678 L20.254,8 L27,8 C28.5976809,8 29.9036609,9.24891997 29.9949073,10.8237272 L30,11 L30,25 C30,26.6568543 28.6568543,28 27,28 L27,28 L5,28 C3.34314575,28 2,26.6568543 2,25 L2,25 L2,11 C2,9.34314575 3.34314575,8 5,8 L5,8 L11.586,8 L8.29289322,4.70710678 C7.90236893,4.31658249 7.90236893,3.68341751 8.29289322,3.29289322 C8.68341751,2.90236893 9.31658249,2.90236893 9.70710678,3.29289322 Z M27,10 L5.00000001,10 C4.44771526,10 4.00000001,10.4477153 4.00000001,11 L4.00000001,11 L4.00000001,25 C4.00000001,25.5522848 4.44771526,26 5.00000001,26 L5.00000001,26 L27,26 C27.5522848,26 28,25.5522848 28,25 L28,25 L28,11 C28,10.4477153 27.5522848,10 27,10 L27,10 Z M13,13 C13.1552451,13 13.3083582,13.0361451 13.4472136,13.1055728 L21.2111456,16.9875388 C21.7051241,17.2345281 21.9053485,17.8352011 21.6583592,18.3291796 C21.5615955,18.522707 21.404673,18.6796295 21.2111456,18.7763932 L13.4472136,22.6583592 C12.9532351,22.9053485 12.3525621,22.7051241 12.1055728,22.2111456 C12.0361451,22.0722902 12,21.9191771 12,21.763932 L12,14 C12,13.4477153 12.4477153,13 13,13 Z M14,15.381966 L14,20.381966 L19,17.881966 L14,15.381966 Z" id="形状结合"></path>
                </g>
            </g>
        </g>
    </g>
</svg>