<?xml version="1.0" encoding="UTF-8"?>
<svg width="145px" height="190px" viewBox="0 0 145 190" version="1.1" xmlns="http://www.w3.org/2000/svg" xmlns:xlink="http://www.w3.org/1999/xlink">
    <title>Fill 1</title>
    <g id="Web" stroke="none" stroke-width="1" fill="none" fill-rule="evenodd">
        <g id="直播页面所需切图" transform="translate(-737.000000, -142.000000)">
            <g id="Article-Big备份-20" transform="translate(737.000000, 77.000000)">
                <path d="M448.819637,159.683725 C464.884067,130.780514 430.438247,114.85337 416.554969,88.2571472 C402.671597,61.6609242 411.948625,3.01981485 365.519594,0.10657507 C319.090563,-2.80666471 289.635902,54.9154428 236.928366,61.755566 C184.220736,68.5956893 111.605116,24.2107518 49.2741715,41.1474085 C31.4195841,46.5563562 -9.15264996,78.9226304 1.86875588,127.288814 C14.3893817,173.148962 58.3917393,178.160564 77.9225206,204.538182 C97.4532268,230.915789 88.1010838,274.778291 119.053355,285.554354 C150.005636,296.330416 190.700512,264.141792 227.655371,263.179817 C264.610324,262.217841 303.177695,315.211887 340.782698,279.782457 C370.391923,242.849472 353.635143,246.607897 377.138341,213.559986 C400.641632,180.512056 432.755206,188.586936 448.819637,159.683725 Z" id="Fill-1" fill="#002FA8" transform="translate(226.500000, 146.000000) scale(1, -1) translate(-226.500000, -146.000000) "></path>
                <g id="Outlined/UI/video" transform="translate(101.000000, 83.000000)" fill="#FFFFFF">
                    <path d="M16,2 C19.7130309,2 23.2739857,3.47499577 25.899495,6.10050508 C28.5250043,8.72601438 30,12.2869692 30,16 C30,23.7319866 23.7319866,30 16,30 C8.26801352,30 2,23.7319866 2,16 C2,8.26801352 8.26801352,2 16,2 Z M16,4.00000001 C9.37258303,4.00000001 4.00000001,9.37258303 4.00000001,16 C4.00000001,22.6274171 9.37258303,28 16,28 C19.1825979,28 22.2348449,26.735718 24.4852814,24.4852814 C26.735718,22.2348449 28,19.1825979 28,16 C28,9.37258303 22.6274171,4.00000001 16,4.00000001 Z M13,10 C13.3104902,10 13.6167163,10.0722902 13.8944272,10.2111456 L22.4222912,14.4750776 C23.4102482,14.9690561 23.8106969,16.1704022 23.3167184,17.1583592 C23.123191,17.545414 22.809346,17.859259 22.4222912,18.0527864 L13.8944272,22.3167184 C12.9064702,22.8106969 11.7051241,22.4102482 11.2111456,21.4222912 C11.0722902,21.1445804 11,20.8383542 11,20.527864 L11,12 C11,10.8954305 11.8954305,10 13,10 Z M14,12.381966 C13.4871642,12.381966 13.0644928,12.7680062 13.0067277,13.2653449 L13,13.381966 L13,19.145898 C13,19.3011431 13.0361451,19.4542562 13.1055728,19.5931116 C13.33492,20.0518059 13.8692292,20.2572122 14.3398958,20.0864623 L14.4472136,20.0403252 L20.2111456,17.1583592 C20.404673,17.0615955 20.5615955,16.904673 20.6583592,16.7111456 C20.8877064,16.2524513 20.7314459,15.7017602 20.312446,15.4276769 L20.2111456,15.3695048 L14.4472136,12.4875388 C14.3083582,12.4181111 14.1552451,12.381966 14,12.381966 Z" id="形状结合"></path>
                </g>
            </g>
        </g>
    </g>
</svg>