<?xml version="1.0" encoding="UTF-8"?>
<svg width="28px" height="25px" viewBox="0 0 28 25" version="1.1" xmlns="http://www.w3.org/2000/svg" xmlns:xlink="http://www.w3.org/1999/xlink">
    <title>形状结合</title>
    <g id="控件" stroke="none" stroke-width="1" fill="none" fill-rule="evenodd">
        <g id="icon可点击" transform="translate(-105.000000, -395.000000)" fill="#252C32">
            <path d="M112.707107,395.292893 L117.414,400 L120.426,400 L125.133969,395.292893 C125.524493,394.902369 126.157658,394.902369 126.548183,395.292893 C126.908667,395.653377 126.936396,396.220608 126.631371,396.612899 L126.548183,396.707107 L123.254,400 L130,400 C131.597681,400 132.903661,401.24892 132.994907,402.823727 L133,403 L133,417 C133,418.656854 131.656854,420 130,420 L130,420 L108,420 C106.343146,420 105,418.656854 105,417 L105,417 L105,403 C105,401.343146 106.343146,400 108,400 L108,400 L114.586,400 L111.292893,396.707107 C110.902369,396.316582 110.902369,395.683418 111.292893,395.292893 C111.683418,394.902369 112.316582,394.902369 112.707107,395.292893 Z M130,402 L108,402 C107.447715,402 107,402.447715 107,403 L107,403 L107,417 C107,417.552285 107.447715,418 108,418 L108,418 L130,418 C130.552285,418 131,417.552285 131,417 L131,417 L131,403 C131,402.447715 130.552285,402 130,402 L130,402 Z M116,405 C116.155245,405 116.308358,405.036145 116.447214,405.105573 L124.211146,408.987539 C124.705124,409.234528 124.905348,409.835201 124.658359,410.32918 C124.561596,410.522707 124.404673,410.67963 124.211146,410.776393 L116.447214,414.658359 C115.953235,414.905348 115.352562,414.705124 115.105573,414.211146 C115.036145,414.07229 115,413.919177 115,413.763932 L115,406 C115,405.447715 115.447715,405 116,405 Z M117,407.381966 L117,412.381966 L122,409.881966 L117,407.381966 Z" id="形状结合"></path>
        </g>
    </g>
</svg>